M48
; DRILL file {KiCad 5.1.10-88a1d61d58~90~ubuntu20.04.1} date Thu Aug 12 15:59:21 2021
; FORMAT={-:-/ absolute / inch / decimal}
; #@! TF.CreationDate,2021-08-12T15:59:21-04:00
; #@! TF.GenerationSoftware,Kicad,Pcbnew,5.1.10-88a1d61d58~90~ubuntu20.04.1
; #@! TF.FileFunction,Plated,1,2,PTH
FMAT,2
INCH
T1C0.0157
T2C0.0315
T3C0.0394
T4C0.0512
T5C0.0709
T6C0.0827
%
G90
G05
T1
X1.255Y-1.195
X1.475Y-1.625
T2
X1.7717Y-2.4016
X1.7717Y-3.8189
X1.7717Y-6.5354
X2.1717Y-2.4016
X2.1717Y-3.8189
X2.1717Y-6.5354
T3
X0.9236Y-0.9055
X1.0236Y-0.9055
X1.1236Y-0.9055
X1.2236Y-0.9055
X1.3236Y-0.9055
X1.4236Y-0.9055
X1.5236Y-0.9055
X1.6236Y-0.9055
X1.7236Y-0.9055
X1.7717Y-5.1969
X1.8236Y-0.9055
X1.8701Y-1.8701
X1.8701Y-3.248
X1.8701Y-4.626
X1.8701Y-6.0039
X1.8717Y-5.1969
X1.9685Y-1.8701
X1.9685Y-3.248
X1.9685Y-4.626
X1.9685Y-6.0039
X1.9717Y-5.1969
X2.0669Y-1.8701
X2.0669Y-3.248
X2.0669Y-4.626
X2.0669Y-6.0039
X2.0717Y-5.1969
T4
X1.7717Y-2.2047
X1.7717Y-3.5827
X1.7717Y-4.9606
X1.7717Y-6.3386
X1.9685Y-2.2047
X1.9685Y-3.5827
X1.9685Y-4.9606
X1.9685Y-6.3386
X2.1654Y-2.2047
X2.1654Y-3.5827
X2.1654Y-4.9606
X2.1654Y-6.3386
T5
X1.7795Y-1.5748
X1.7795Y-2.9528
X1.7795Y-4.3307
X1.7795Y-5.7087
X2.1575Y-1.5748
X2.1575Y-2.9528
X2.1575Y-4.3307
X2.1575Y-5.7087
T6
X0.8335Y-2.7677
X0.8335Y-2.9528
X0.8335Y-3.1378
X1.0236Y-1.3898
X1.0236Y-1.5748
X1.0236Y-1.7598
X1.0236Y-2.7677
X1.0236Y-2.9528
X1.0236Y-3.1378
X1.2138Y-2.7677
X1.2138Y-2.9528
X1.2138Y-3.1378
T0
M30
