%TF.GenerationSoftware,KiCad,Pcbnew,5.1.10-88a1d61d58~90~ubuntu20.04.1*%
%TF.CreationDate,2021-08-12T15:59:19-04:00*%
%TF.ProjectId,precadsr,70726563-6164-4737-922e-6b696361645f,rev?*%
%TF.SameCoordinates,Original*%
%TF.FileFunction,Copper,L2,Bot*%
%TF.FilePolarity,Positive*%
%FSLAX46Y46*%
G04 Gerber Fmt 4.6, Leading zero omitted, Abs format (unit mm)*
G04 Created by KiCad (PCBNEW 5.1.10-88a1d61d58~90~ubuntu20.04.1) date 2021-08-12 15:59:19*
%MOMM*%
%LPD*%
G01*
G04 APERTURE LIST*
%TA.AperFunction,ComponentPad*%
%ADD10C,3.240000*%
%TD*%
%TA.AperFunction,ComponentPad*%
%ADD11C,1.800000*%
%TD*%
%TA.AperFunction,ComponentPad*%
%ADD12R,1.800000X1.800000*%
%TD*%
%TA.AperFunction,ComponentPad*%
%ADD13O,1.700000X1.700000*%
%TD*%
%TA.AperFunction,ComponentPad*%
%ADD14R,1.700000X1.700000*%
%TD*%
%TA.AperFunction,ComponentPad*%
%ADD15C,1.600000*%
%TD*%
%TA.AperFunction,ComponentPad*%
%ADD16O,1.600000X1.600000*%
%TD*%
%TA.AperFunction,ComponentPad*%
%ADD17C,2.340000*%
%TD*%
%TA.AperFunction,ComponentPad*%
%ADD18C,3.100000*%
%TD*%
%TA.AperFunction,ViaPad*%
%ADD19C,0.800000*%
%TD*%
%TA.AperFunction,Conductor*%
%ADD20C,0.250000*%
%TD*%
%TA.AperFunction,Conductor*%
%ADD21C,0.254000*%
%TD*%
%TA.AperFunction,Conductor*%
%ADD22C,0.100000*%
%TD*%
G04 APERTURE END LIST*
D10*
%TO.P,R26,*%
%TO.N,*%
X45200000Y-75000000D03*
X54800000Y-75000000D03*
D11*
%TO.P,R26,3*%
%TO.N,POTS_P*%
X52500000Y-82500000D03*
%TO.P,R26,2*%
X50000000Y-82500000D03*
D12*
%TO.P,R26,1*%
%TO.N,Net-(R22-Pad1)*%
X47500000Y-82500000D03*
%TD*%
D13*
%TO.P,J11,4*%
%TO.N,REL1_P*%
X52620000Y-132000000D03*
%TO.P,J11,3*%
%TO.N,SUS3_P*%
X50080000Y-132000000D03*
%TO.P,J11,2*%
%TO.N,SUS2_P*%
X47540000Y-132000000D03*
D14*
%TO.P,J11,1*%
%TO.N,SUS1_P*%
X45000000Y-132000000D03*
%TD*%
D15*
%TO.P,R21,1*%
%TO.N,Net-(R21-Pad1)*%
X45000000Y-61000000D03*
D16*
%TO.P,R21,2*%
%TO.N,ATT1_P*%
X55160000Y-61000000D03*
%TD*%
D13*
%TO.P,J10,10*%
%TO.N,DEC1_P*%
X46320000Y-23000000D03*
%TO.P,J10,9*%
%TO.N,ATT1_P*%
X43780000Y-23000000D03*
%TO.P,J10,8*%
%TO.N,LOOP_CONN_2_P*%
X41240000Y-23000000D03*
%TO.P,J10,7*%
%TO.N,LOOP_CONN_1_P*%
X38700000Y-23000000D03*
%TO.P,J10,6*%
%TO.N,LOOP_NORM_2_P*%
X36160000Y-23000000D03*
%TO.P,J10,5*%
%TO.N,LOOP_NORM_1_P*%
X33620000Y-23000000D03*
%TO.P,J10,4*%
%TO.N,SPEED_3_P*%
X31080000Y-23000000D03*
%TO.P,J10,3*%
%TO.N,POTS_P*%
X28540000Y-23000000D03*
%TO.P,J10,2*%
%TO.N,SPEED_1_P*%
X26000000Y-23000000D03*
D14*
%TO.P,J10,1*%
%TO.N,GND2*%
X23460000Y-23000000D03*
%TD*%
D17*
%TO.P,R31,3*%
%TO.N,SUS3_P*%
X55000000Y-126000000D03*
%TO.P,R31,2*%
%TO.N,SUS2_S*%
X50000000Y-126000000D03*
%TO.P,R31,1*%
%TO.N,SUS1_P*%
X45000000Y-126000000D03*
%TD*%
%TO.P,R27,3*%
%TO.N,POTS_P*%
X55000000Y-91000000D03*
%TO.P,R27,2*%
X50000000Y-91000000D03*
%TO.P,R27,1*%
%TO.N,Net-(R22-Pad1)*%
X45000000Y-91000000D03*
%TD*%
D10*
%TO.P,R24,*%
%TO.N,*%
X45200000Y-40000000D03*
X54800000Y-40000000D03*
D11*
%TO.P,R24,3*%
%TO.N,POTS_P*%
X52500000Y-47500000D03*
%TO.P,R24,2*%
X50000000Y-47500000D03*
D12*
%TO.P,R24,1*%
%TO.N,Net-(R21-Pad1)*%
X47500000Y-47500000D03*
%TD*%
D18*
%TO.P,S2,1*%
%TO.N,SPEED_1_P*%
X26000000Y-44700000D03*
%TO.P,S2,3*%
%TO.N,SPEED_3_P*%
X26000000Y-35300000D03*
%TO.P,S2,2*%
%TO.N,POTS_P*%
X26000000Y-40000000D03*
%TD*%
D17*
%TO.P,R25,3*%
%TO.N,POTS_P*%
X55000000Y-56000000D03*
%TO.P,R25,2*%
X50000000Y-56000000D03*
%TO.P,R25,1*%
%TO.N,Net-(R21-Pad1)*%
X45000000Y-56000000D03*
%TD*%
%TO.P,R29,3*%
%TO.N,POTS_P*%
X55000000Y-161000000D03*
%TO.P,R29,2*%
X50000000Y-161000000D03*
%TO.P,R29,1*%
%TO.N,Net-(R23-Pad1)*%
X45000000Y-161000000D03*
%TD*%
D10*
%TO.P,R28,*%
%TO.N,*%
X45200000Y-145000000D03*
X54800000Y-145000000D03*
D11*
%TO.P,R28,3*%
%TO.N,POTS_P*%
X52500000Y-152500000D03*
%TO.P,R28,2*%
X50000000Y-152500000D03*
D12*
%TO.P,R28,1*%
%TO.N,Net-(R23-Pad1)*%
X47500000Y-152500000D03*
%TD*%
D15*
%TO.P,R23,1*%
%TO.N,Net-(R23-Pad1)*%
X45000000Y-166000000D03*
D16*
%TO.P,R23,2*%
%TO.N,REL1_P*%
X55160000Y-166000000D03*
%TD*%
D18*
%TO.P,S1,2*%
%TO.N,LOOP_NORM_2_P*%
X21170000Y-75000000D03*
%TO.P,S1,3*%
%TO.N,LOOP_NORM_1_P*%
X21170000Y-79700000D03*
%TO.P,S1,1*%
%TO.N,Net-(S1-Pad1)*%
X21170000Y-70300000D03*
%TO.P,S1,9*%
%TO.N,SUS1_P*%
X30830000Y-79700000D03*
%TO.P,S1,8*%
%TO.N,SUS2_P*%
X30830000Y-75000000D03*
%TO.P,S1,7*%
%TO.N,SUS2_S*%
X30830000Y-70300000D03*
%TO.P,S1,6*%
%TO.N,LOOP_CONN_1_P*%
X26000000Y-79700000D03*
%TO.P,S1,5*%
%TO.N,LOOP_CONN_2_P*%
X26000000Y-75000000D03*
%TO.P,S1,4*%
%TO.N,Net-(S1-Pad4)*%
X26000000Y-70300000D03*
%TD*%
D10*
%TO.P,R30,*%
%TO.N,*%
X45200000Y-110000000D03*
X54800000Y-110000000D03*
D11*
%TO.P,R30,3*%
%TO.N,SUS3_P*%
X52500000Y-117500000D03*
%TO.P,R30,2*%
%TO.N,SUS2_S*%
X50000000Y-117500000D03*
D12*
%TO.P,R30,1*%
%TO.N,SUS1_P*%
X47500000Y-117500000D03*
%TD*%
D15*
%TO.P,R22,1*%
%TO.N,Net-(R22-Pad1)*%
X45000000Y-97000000D03*
D16*
%TO.P,R22,2*%
%TO.N,DEC1_P*%
X55160000Y-97000000D03*
%TD*%
D19*
%TO.N,GND2*%
X37465000Y-41275000D03*
X31877000Y-30353000D03*
%TD*%
D20*
%TO.N,LOOP_CONN_2_P*%
X41240000Y-41684000D02*
X41240000Y-23000000D01*
X29500000Y-53424000D02*
X41240000Y-41684000D01*
X27900000Y-73100000D02*
X27900000Y-67100000D01*
X27900000Y-67100000D02*
X29500000Y-65500000D01*
X29500000Y-65500000D02*
X29500000Y-53424000D01*
X26000000Y-75000000D02*
X27900000Y-73100000D01*
%TO.N,LOOP_CONN_1_P*%
X28415000Y-51969000D02*
X38700000Y-41684000D01*
X24100000Y-77800000D02*
X26000000Y-79700000D01*
X24100000Y-68600000D02*
X24100000Y-77800000D01*
X24100000Y-68600000D02*
X28415000Y-64285000D01*
X38700000Y-41684000D02*
X38700000Y-23000000D01*
X28415000Y-64285000D02*
X28415000Y-51969000D01*
%TO.N,LOOP_NORM_2_P*%
X23045001Y-73124999D02*
X21170000Y-75000000D01*
X36160000Y-41558410D02*
X24700000Y-53018410D01*
X24700000Y-66000000D02*
X23045001Y-67654999D01*
X23045001Y-67654999D02*
X23045001Y-73124999D01*
X24700000Y-53018410D02*
X24700000Y-66000000D01*
X36160000Y-23000000D02*
X36160000Y-41558410D01*
%TO.N,LOOP_NORM_1_P*%
X18400000Y-76930000D02*
X21170000Y-79700000D01*
X33620000Y-23000000D02*
X33620000Y-41430000D01*
X18400000Y-70200000D02*
X18400000Y-76930000D01*
X23585000Y-51465000D02*
X23585000Y-65015000D01*
X33620000Y-41430000D02*
X23585000Y-51465000D01*
X23585000Y-65015000D02*
X18400000Y-70200000D01*
%TO.N,SUS2_P*%
X35100000Y-94700000D02*
X41300000Y-100900000D01*
X35100000Y-79270000D02*
X35100000Y-94700000D01*
X30830000Y-75000000D02*
X35100000Y-79270000D01*
X41300000Y-125760000D02*
X47540000Y-132000000D01*
X41300000Y-100900000D02*
X41300000Y-125760000D01*
%TO.N,SUS1_P*%
X39700000Y-101169656D02*
X39700000Y-126700000D01*
X33600000Y-82470000D02*
X33600000Y-95069656D01*
X30830000Y-79700000D02*
X33600000Y-82470000D01*
X33600000Y-95069656D02*
X39700000Y-101169656D01*
X39700000Y-126700000D02*
X45000000Y-132000000D01*
%TO.N,SUS2_S*%
X42800000Y-101000000D02*
X36400000Y-94600000D01*
X48774999Y-116274999D02*
X48596397Y-116274999D01*
X48596397Y-116274999D02*
X42800000Y-110478602D01*
X42800000Y-110478602D02*
X42800000Y-101000000D01*
X36400000Y-75870000D02*
X30830000Y-70300000D01*
X50000000Y-117500000D02*
X48774999Y-116274999D01*
X36400000Y-94600000D02*
X36400000Y-75870000D01*
%TD*%
D21*
%TO.N,GND2*%
X59315001Y-169315000D02*
X38685000Y-169315000D01*
X38685000Y-165858665D01*
X43565000Y-165858665D01*
X43565000Y-166141335D01*
X43620147Y-166418574D01*
X43728320Y-166679727D01*
X43885363Y-166914759D01*
X44085241Y-167114637D01*
X44320273Y-167271680D01*
X44581426Y-167379853D01*
X44858665Y-167435000D01*
X45141335Y-167435000D01*
X45418574Y-167379853D01*
X45679727Y-167271680D01*
X45914759Y-167114637D01*
X46114637Y-166914759D01*
X46271680Y-166679727D01*
X46379853Y-166418574D01*
X46435000Y-166141335D01*
X46435000Y-165858665D01*
X53725000Y-165858665D01*
X53725000Y-166141335D01*
X53780147Y-166418574D01*
X53888320Y-166679727D01*
X54045363Y-166914759D01*
X54245241Y-167114637D01*
X54480273Y-167271680D01*
X54741426Y-167379853D01*
X55018665Y-167435000D01*
X55301335Y-167435000D01*
X55578574Y-167379853D01*
X55839727Y-167271680D01*
X56074759Y-167114637D01*
X56274637Y-166914759D01*
X56431680Y-166679727D01*
X56539853Y-166418574D01*
X56595000Y-166141335D01*
X56595000Y-165858665D01*
X56539853Y-165581426D01*
X56431680Y-165320273D01*
X56274637Y-165085241D01*
X56074759Y-164885363D01*
X55839727Y-164728320D01*
X55578574Y-164620147D01*
X55301335Y-164565000D01*
X55018665Y-164565000D01*
X54741426Y-164620147D01*
X54480273Y-164728320D01*
X54245241Y-164885363D01*
X54045363Y-165085241D01*
X53888320Y-165320273D01*
X53780147Y-165581426D01*
X53725000Y-165858665D01*
X46435000Y-165858665D01*
X46379853Y-165581426D01*
X46271680Y-165320273D01*
X46114637Y-165085241D01*
X45914759Y-164885363D01*
X45679727Y-164728320D01*
X45418574Y-164620147D01*
X45141335Y-164565000D01*
X44858665Y-164565000D01*
X44581426Y-164620147D01*
X44320273Y-164728320D01*
X44085241Y-164885363D01*
X43885363Y-165085241D01*
X43728320Y-165320273D01*
X43620147Y-165581426D01*
X43565000Y-165858665D01*
X38685000Y-165858665D01*
X38685000Y-160822223D01*
X43195000Y-160822223D01*
X43195000Y-161177777D01*
X43264365Y-161526499D01*
X43400429Y-161854988D01*
X43597965Y-162150621D01*
X43849379Y-162402035D01*
X44145012Y-162599571D01*
X44473501Y-162735635D01*
X44822223Y-162805000D01*
X45177777Y-162805000D01*
X45526499Y-162735635D01*
X45854988Y-162599571D01*
X46150621Y-162402035D01*
X46402035Y-162150621D01*
X46599571Y-161854988D01*
X46735635Y-161526499D01*
X46805000Y-161177777D01*
X46805000Y-160822223D01*
X48195000Y-160822223D01*
X48195000Y-161177777D01*
X48264365Y-161526499D01*
X48400429Y-161854988D01*
X48597965Y-162150621D01*
X48849379Y-162402035D01*
X49145012Y-162599571D01*
X49473501Y-162735635D01*
X49822223Y-162805000D01*
X50177777Y-162805000D01*
X50526499Y-162735635D01*
X50854988Y-162599571D01*
X51150621Y-162402035D01*
X51402035Y-162150621D01*
X51599571Y-161854988D01*
X51735635Y-161526499D01*
X51805000Y-161177777D01*
X51805000Y-160822223D01*
X53195000Y-160822223D01*
X53195000Y-161177777D01*
X53264365Y-161526499D01*
X53400429Y-161854988D01*
X53597965Y-162150621D01*
X53849379Y-162402035D01*
X54145012Y-162599571D01*
X54473501Y-162735635D01*
X54822223Y-162805000D01*
X55177777Y-162805000D01*
X55526499Y-162735635D01*
X55854988Y-162599571D01*
X56150621Y-162402035D01*
X56402035Y-162150621D01*
X56599571Y-161854988D01*
X56735635Y-161526499D01*
X56805000Y-161177777D01*
X56805000Y-160822223D01*
X56735635Y-160473501D01*
X56599571Y-160145012D01*
X56402035Y-159849379D01*
X56150621Y-159597965D01*
X55854988Y-159400429D01*
X55526499Y-159264365D01*
X55177777Y-159195000D01*
X54822223Y-159195000D01*
X54473501Y-159264365D01*
X54145012Y-159400429D01*
X53849379Y-159597965D01*
X53597965Y-159849379D01*
X53400429Y-160145012D01*
X53264365Y-160473501D01*
X53195000Y-160822223D01*
X51805000Y-160822223D01*
X51735635Y-160473501D01*
X51599571Y-160145012D01*
X51402035Y-159849379D01*
X51150621Y-159597965D01*
X50854988Y-159400429D01*
X50526499Y-159264365D01*
X50177777Y-159195000D01*
X49822223Y-159195000D01*
X49473501Y-159264365D01*
X49145012Y-159400429D01*
X48849379Y-159597965D01*
X48597965Y-159849379D01*
X48400429Y-160145012D01*
X48264365Y-160473501D01*
X48195000Y-160822223D01*
X46805000Y-160822223D01*
X46735635Y-160473501D01*
X46599571Y-160145012D01*
X46402035Y-159849379D01*
X46150621Y-159597965D01*
X45854988Y-159400429D01*
X45526499Y-159264365D01*
X45177777Y-159195000D01*
X44822223Y-159195000D01*
X44473501Y-159264365D01*
X44145012Y-159400429D01*
X43849379Y-159597965D01*
X43597965Y-159849379D01*
X43400429Y-160145012D01*
X43264365Y-160473501D01*
X43195000Y-160822223D01*
X38685000Y-160822223D01*
X38685000Y-151600000D01*
X45961928Y-151600000D01*
X45961928Y-153400000D01*
X45974188Y-153524482D01*
X46010498Y-153644180D01*
X46069463Y-153754494D01*
X46148815Y-153851185D01*
X46245506Y-153930537D01*
X46355820Y-153989502D01*
X46475518Y-154025812D01*
X46600000Y-154038072D01*
X48400000Y-154038072D01*
X48524482Y-154025812D01*
X48644180Y-153989502D01*
X48754494Y-153930537D01*
X48851185Y-153851185D01*
X48930537Y-153754494D01*
X48983880Y-153654697D01*
X49021495Y-153692312D01*
X49272905Y-153860299D01*
X49552257Y-153976011D01*
X49848816Y-154035000D01*
X50151184Y-154035000D01*
X50447743Y-153976011D01*
X50727095Y-153860299D01*
X50978505Y-153692312D01*
X51192312Y-153478505D01*
X51250000Y-153392169D01*
X51307688Y-153478505D01*
X51521495Y-153692312D01*
X51772905Y-153860299D01*
X52052257Y-153976011D01*
X52348816Y-154035000D01*
X52651184Y-154035000D01*
X52947743Y-153976011D01*
X53227095Y-153860299D01*
X53478505Y-153692312D01*
X53692312Y-153478505D01*
X53860299Y-153227095D01*
X53976011Y-152947743D01*
X54035000Y-152651184D01*
X54035000Y-152348816D01*
X53976011Y-152052257D01*
X53860299Y-151772905D01*
X53692312Y-151521495D01*
X53478505Y-151307688D01*
X53227095Y-151139701D01*
X52947743Y-151023989D01*
X52651184Y-150965000D01*
X52348816Y-150965000D01*
X52052257Y-151023989D01*
X51772905Y-151139701D01*
X51521495Y-151307688D01*
X51307688Y-151521495D01*
X51250000Y-151607831D01*
X51192312Y-151521495D01*
X50978505Y-151307688D01*
X50727095Y-151139701D01*
X50447743Y-151023989D01*
X50151184Y-150965000D01*
X49848816Y-150965000D01*
X49552257Y-151023989D01*
X49272905Y-151139701D01*
X49021495Y-151307688D01*
X48983880Y-151345303D01*
X48930537Y-151245506D01*
X48851185Y-151148815D01*
X48754494Y-151069463D01*
X48644180Y-151010498D01*
X48524482Y-150974188D01*
X48400000Y-150961928D01*
X46600000Y-150961928D01*
X46475518Y-150974188D01*
X46355820Y-151010498D01*
X46245506Y-151069463D01*
X46148815Y-151148815D01*
X46069463Y-151245506D01*
X46010498Y-151355820D01*
X45974188Y-151475518D01*
X45961928Y-151600000D01*
X38685000Y-151600000D01*
X38685000Y-144777902D01*
X42945000Y-144777902D01*
X42945000Y-145222098D01*
X43031658Y-145657759D01*
X43201645Y-146068143D01*
X43448427Y-146437479D01*
X43762521Y-146751573D01*
X44131857Y-146998355D01*
X44542241Y-147168342D01*
X44977902Y-147255000D01*
X45422098Y-147255000D01*
X45857759Y-147168342D01*
X46268143Y-146998355D01*
X46637479Y-146751573D01*
X46951573Y-146437479D01*
X47198355Y-146068143D01*
X47368342Y-145657759D01*
X47455000Y-145222098D01*
X47455000Y-144777902D01*
X52545000Y-144777902D01*
X52545000Y-145222098D01*
X52631658Y-145657759D01*
X52801645Y-146068143D01*
X53048427Y-146437479D01*
X53362521Y-146751573D01*
X53731857Y-146998355D01*
X54142241Y-147168342D01*
X54577902Y-147255000D01*
X55022098Y-147255000D01*
X55457759Y-147168342D01*
X55868143Y-146998355D01*
X56237479Y-146751573D01*
X56551573Y-146437479D01*
X56798355Y-146068143D01*
X56968342Y-145657759D01*
X57055000Y-145222098D01*
X57055000Y-144777902D01*
X56968342Y-144342241D01*
X56798355Y-143931857D01*
X56551573Y-143562521D01*
X56237479Y-143248427D01*
X55868143Y-143001645D01*
X55457759Y-142831658D01*
X55022098Y-142745000D01*
X54577902Y-142745000D01*
X54142241Y-142831658D01*
X53731857Y-143001645D01*
X53362521Y-143248427D01*
X53048427Y-143562521D01*
X52801645Y-143931857D01*
X52631658Y-144342241D01*
X52545000Y-144777902D01*
X47455000Y-144777902D01*
X47368342Y-144342241D01*
X47198355Y-143931857D01*
X46951573Y-143562521D01*
X46637479Y-143248427D01*
X46268143Y-143001645D01*
X45857759Y-142831658D01*
X45422098Y-142745000D01*
X44977902Y-142745000D01*
X44542241Y-142831658D01*
X44131857Y-143001645D01*
X43762521Y-143248427D01*
X43448427Y-143562521D01*
X43201645Y-143931857D01*
X43031658Y-144342241D01*
X42945000Y-144777902D01*
X38685000Y-144777902D01*
X38685000Y-101229458D01*
X38940000Y-101484458D01*
X38940001Y-126662667D01*
X38936324Y-126700000D01*
X38950998Y-126848985D01*
X38994454Y-126992246D01*
X39065026Y-127124276D01*
X39136201Y-127211002D01*
X39160000Y-127240001D01*
X39188998Y-127263799D01*
X43511928Y-131586730D01*
X43511928Y-132850000D01*
X43524188Y-132974482D01*
X43560498Y-133094180D01*
X43619463Y-133204494D01*
X43698815Y-133301185D01*
X43795506Y-133380537D01*
X43905820Y-133439502D01*
X44025518Y-133475812D01*
X44150000Y-133488072D01*
X45850000Y-133488072D01*
X45974482Y-133475812D01*
X46094180Y-133439502D01*
X46204494Y-133380537D01*
X46301185Y-133301185D01*
X46380537Y-133204494D01*
X46439502Y-133094180D01*
X46461513Y-133021620D01*
X46593368Y-133153475D01*
X46836589Y-133315990D01*
X47106842Y-133427932D01*
X47393740Y-133485000D01*
X47686260Y-133485000D01*
X47973158Y-133427932D01*
X48243411Y-133315990D01*
X48486632Y-133153475D01*
X48693475Y-132946632D01*
X48810000Y-132772240D01*
X48926525Y-132946632D01*
X49133368Y-133153475D01*
X49376589Y-133315990D01*
X49646842Y-133427932D01*
X49933740Y-133485000D01*
X50226260Y-133485000D01*
X50513158Y-133427932D01*
X50783411Y-133315990D01*
X51026632Y-133153475D01*
X51233475Y-132946632D01*
X51350000Y-132772240D01*
X51466525Y-132946632D01*
X51673368Y-133153475D01*
X51916589Y-133315990D01*
X52186842Y-133427932D01*
X52473740Y-133485000D01*
X52766260Y-133485000D01*
X53053158Y-133427932D01*
X53323411Y-133315990D01*
X53566632Y-133153475D01*
X53773475Y-132946632D01*
X53935990Y-132703411D01*
X54047932Y-132433158D01*
X54105000Y-132146260D01*
X54105000Y-131853740D01*
X54047932Y-131566842D01*
X53935990Y-131296589D01*
X53773475Y-131053368D01*
X53566632Y-130846525D01*
X53323411Y-130684010D01*
X53053158Y-130572068D01*
X52766260Y-130515000D01*
X52473740Y-130515000D01*
X52186842Y-130572068D01*
X51916589Y-130684010D01*
X51673368Y-130846525D01*
X51466525Y-131053368D01*
X51350000Y-131227760D01*
X51233475Y-131053368D01*
X51026632Y-130846525D01*
X50783411Y-130684010D01*
X50513158Y-130572068D01*
X50226260Y-130515000D01*
X49933740Y-130515000D01*
X49646842Y-130572068D01*
X49376589Y-130684010D01*
X49133368Y-130846525D01*
X48926525Y-131053368D01*
X48810000Y-131227760D01*
X48693475Y-131053368D01*
X48486632Y-130846525D01*
X48243411Y-130684010D01*
X47973158Y-130572068D01*
X47686260Y-130515000D01*
X47393740Y-130515000D01*
X47173592Y-130558790D01*
X44263417Y-127648616D01*
X44473501Y-127735635D01*
X44822223Y-127805000D01*
X45177777Y-127805000D01*
X45526499Y-127735635D01*
X45854988Y-127599571D01*
X46150621Y-127402035D01*
X46402035Y-127150621D01*
X46599571Y-126854988D01*
X46735635Y-126526499D01*
X46805000Y-126177777D01*
X46805000Y-125822223D01*
X48195000Y-125822223D01*
X48195000Y-126177777D01*
X48264365Y-126526499D01*
X48400429Y-126854988D01*
X48597965Y-127150621D01*
X48849379Y-127402035D01*
X49145012Y-127599571D01*
X49473501Y-127735635D01*
X49822223Y-127805000D01*
X50177777Y-127805000D01*
X50526499Y-127735635D01*
X50854988Y-127599571D01*
X51150621Y-127402035D01*
X51402035Y-127150621D01*
X51599571Y-126854988D01*
X51735635Y-126526499D01*
X51805000Y-126177777D01*
X51805000Y-125822223D01*
X53195000Y-125822223D01*
X53195000Y-126177777D01*
X53264365Y-126526499D01*
X53400429Y-126854988D01*
X53597965Y-127150621D01*
X53849379Y-127402035D01*
X54145012Y-127599571D01*
X54473501Y-127735635D01*
X54822223Y-127805000D01*
X55177777Y-127805000D01*
X55526499Y-127735635D01*
X55854988Y-127599571D01*
X56150621Y-127402035D01*
X56402035Y-127150621D01*
X56599571Y-126854988D01*
X56735635Y-126526499D01*
X56805000Y-126177777D01*
X56805000Y-125822223D01*
X56735635Y-125473501D01*
X56599571Y-125145012D01*
X56402035Y-124849379D01*
X56150621Y-124597965D01*
X55854988Y-124400429D01*
X55526499Y-124264365D01*
X55177777Y-124195000D01*
X54822223Y-124195000D01*
X54473501Y-124264365D01*
X54145012Y-124400429D01*
X53849379Y-124597965D01*
X53597965Y-124849379D01*
X53400429Y-125145012D01*
X53264365Y-125473501D01*
X53195000Y-125822223D01*
X51805000Y-125822223D01*
X51735635Y-125473501D01*
X51599571Y-125145012D01*
X51402035Y-124849379D01*
X51150621Y-124597965D01*
X50854988Y-124400429D01*
X50526499Y-124264365D01*
X50177777Y-124195000D01*
X49822223Y-124195000D01*
X49473501Y-124264365D01*
X49145012Y-124400429D01*
X48849379Y-124597965D01*
X48597965Y-124849379D01*
X48400429Y-125145012D01*
X48264365Y-125473501D01*
X48195000Y-125822223D01*
X46805000Y-125822223D01*
X46735635Y-125473501D01*
X46599571Y-125145012D01*
X46402035Y-124849379D01*
X46150621Y-124597965D01*
X45854988Y-124400429D01*
X45526499Y-124264365D01*
X45177777Y-124195000D01*
X44822223Y-124195000D01*
X44473501Y-124264365D01*
X44145012Y-124400429D01*
X43849379Y-124597965D01*
X43597965Y-124849379D01*
X43400429Y-125145012D01*
X43264365Y-125473501D01*
X43195000Y-125822223D01*
X43195000Y-126177777D01*
X43264365Y-126526499D01*
X43351384Y-126736583D01*
X42060000Y-125445199D01*
X42060000Y-110657266D01*
X42094454Y-110770848D01*
X42165026Y-110902878D01*
X42204871Y-110951428D01*
X42259999Y-111018603D01*
X42289003Y-111042406D01*
X47208524Y-115961928D01*
X46600000Y-115961928D01*
X46475518Y-115974188D01*
X46355820Y-116010498D01*
X46245506Y-116069463D01*
X46148815Y-116148815D01*
X46069463Y-116245506D01*
X46010498Y-116355820D01*
X45974188Y-116475518D01*
X45961928Y-116600000D01*
X45961928Y-118400000D01*
X45974188Y-118524482D01*
X46010498Y-118644180D01*
X46069463Y-118754494D01*
X46148815Y-118851185D01*
X46245506Y-118930537D01*
X46355820Y-118989502D01*
X46475518Y-119025812D01*
X46600000Y-119038072D01*
X48400000Y-119038072D01*
X48524482Y-119025812D01*
X48644180Y-118989502D01*
X48754494Y-118930537D01*
X48851185Y-118851185D01*
X48930537Y-118754494D01*
X48983880Y-118654697D01*
X49021495Y-118692312D01*
X49272905Y-118860299D01*
X49552257Y-118976011D01*
X49848816Y-119035000D01*
X50151184Y-119035000D01*
X50447743Y-118976011D01*
X50727095Y-118860299D01*
X50978505Y-118692312D01*
X51192312Y-118478505D01*
X51250000Y-118392169D01*
X51307688Y-118478505D01*
X51521495Y-118692312D01*
X51772905Y-118860299D01*
X52052257Y-118976011D01*
X52348816Y-119035000D01*
X52651184Y-119035000D01*
X52947743Y-118976011D01*
X53227095Y-118860299D01*
X53478505Y-118692312D01*
X53692312Y-118478505D01*
X53860299Y-118227095D01*
X53976011Y-117947743D01*
X54035000Y-117651184D01*
X54035000Y-117348816D01*
X53976011Y-117052257D01*
X53860299Y-116772905D01*
X53692312Y-116521495D01*
X53478505Y-116307688D01*
X53227095Y-116139701D01*
X52947743Y-116023989D01*
X52651184Y-115965000D01*
X52348816Y-115965000D01*
X52052257Y-116023989D01*
X51772905Y-116139701D01*
X51521495Y-116307688D01*
X51307688Y-116521495D01*
X51250000Y-116607831D01*
X51192312Y-116521495D01*
X50978505Y-116307688D01*
X50727095Y-116139701D01*
X50447743Y-116023989D01*
X50151184Y-115965000D01*
X49848816Y-115965000D01*
X49591070Y-116016269D01*
X49338803Y-115764002D01*
X49315000Y-115734998D01*
X49199275Y-115640025D01*
X49067246Y-115569453D01*
X48923985Y-115525996D01*
X48922001Y-115525801D01*
X45613189Y-112216990D01*
X45857759Y-112168342D01*
X46268143Y-111998355D01*
X46637479Y-111751573D01*
X46951573Y-111437479D01*
X47198355Y-111068143D01*
X47368342Y-110657759D01*
X47455000Y-110222098D01*
X47455000Y-109777902D01*
X52545000Y-109777902D01*
X52545000Y-110222098D01*
X52631658Y-110657759D01*
X52801645Y-111068143D01*
X53048427Y-111437479D01*
X53362521Y-111751573D01*
X53731857Y-111998355D01*
X54142241Y-112168342D01*
X54577902Y-112255000D01*
X55022098Y-112255000D01*
X55457759Y-112168342D01*
X55868143Y-111998355D01*
X56237479Y-111751573D01*
X56551573Y-111437479D01*
X56798355Y-111068143D01*
X56968342Y-110657759D01*
X57055000Y-110222098D01*
X57055000Y-109777902D01*
X56968342Y-109342241D01*
X56798355Y-108931857D01*
X56551573Y-108562521D01*
X56237479Y-108248427D01*
X55868143Y-108001645D01*
X55457759Y-107831658D01*
X55022098Y-107745000D01*
X54577902Y-107745000D01*
X54142241Y-107831658D01*
X53731857Y-108001645D01*
X53362521Y-108248427D01*
X53048427Y-108562521D01*
X52801645Y-108931857D01*
X52631658Y-109342241D01*
X52545000Y-109777902D01*
X47455000Y-109777902D01*
X47368342Y-109342241D01*
X47198355Y-108931857D01*
X46951573Y-108562521D01*
X46637479Y-108248427D01*
X46268143Y-108001645D01*
X45857759Y-107831658D01*
X45422098Y-107745000D01*
X44977902Y-107745000D01*
X44542241Y-107831658D01*
X44131857Y-108001645D01*
X43762521Y-108248427D01*
X43560000Y-108450948D01*
X43560000Y-101037323D01*
X43563676Y-101000000D01*
X43560000Y-100962677D01*
X43560000Y-100962667D01*
X43549003Y-100851014D01*
X43505546Y-100707753D01*
X43434974Y-100575724D01*
X43340001Y-100459999D01*
X43311003Y-100436201D01*
X39733467Y-96858665D01*
X43565000Y-96858665D01*
X43565000Y-97141335D01*
X43620147Y-97418574D01*
X43728320Y-97679727D01*
X43885363Y-97914759D01*
X44085241Y-98114637D01*
X44320273Y-98271680D01*
X44581426Y-98379853D01*
X44858665Y-98435000D01*
X45141335Y-98435000D01*
X45418574Y-98379853D01*
X45679727Y-98271680D01*
X45914759Y-98114637D01*
X46114637Y-97914759D01*
X46271680Y-97679727D01*
X46379853Y-97418574D01*
X46435000Y-97141335D01*
X46435000Y-96858665D01*
X53725000Y-96858665D01*
X53725000Y-97141335D01*
X53780147Y-97418574D01*
X53888320Y-97679727D01*
X54045363Y-97914759D01*
X54245241Y-98114637D01*
X54480273Y-98271680D01*
X54741426Y-98379853D01*
X55018665Y-98435000D01*
X55301335Y-98435000D01*
X55578574Y-98379853D01*
X55839727Y-98271680D01*
X56074759Y-98114637D01*
X56274637Y-97914759D01*
X56431680Y-97679727D01*
X56539853Y-97418574D01*
X56595000Y-97141335D01*
X56595000Y-96858665D01*
X56539853Y-96581426D01*
X56431680Y-96320273D01*
X56274637Y-96085241D01*
X56074759Y-95885363D01*
X55839727Y-95728320D01*
X55578574Y-95620147D01*
X55301335Y-95565000D01*
X55018665Y-95565000D01*
X54741426Y-95620147D01*
X54480273Y-95728320D01*
X54245241Y-95885363D01*
X54045363Y-96085241D01*
X53888320Y-96320273D01*
X53780147Y-96581426D01*
X53725000Y-96858665D01*
X46435000Y-96858665D01*
X46379853Y-96581426D01*
X46271680Y-96320273D01*
X46114637Y-96085241D01*
X45914759Y-95885363D01*
X45679727Y-95728320D01*
X45418574Y-95620147D01*
X45141335Y-95565000D01*
X44858665Y-95565000D01*
X44581426Y-95620147D01*
X44320273Y-95728320D01*
X44085241Y-95885363D01*
X43885363Y-96085241D01*
X43728320Y-96320273D01*
X43620147Y-96581426D01*
X43565000Y-96858665D01*
X39733467Y-96858665D01*
X37160000Y-94285199D01*
X37160000Y-90822223D01*
X43195000Y-90822223D01*
X43195000Y-91177777D01*
X43264365Y-91526499D01*
X43400429Y-91854988D01*
X43597965Y-92150621D01*
X43849379Y-92402035D01*
X44145012Y-92599571D01*
X44473501Y-92735635D01*
X44822223Y-92805000D01*
X45177777Y-92805000D01*
X45526499Y-92735635D01*
X45854988Y-92599571D01*
X46150621Y-92402035D01*
X46402035Y-92150621D01*
X46599571Y-91854988D01*
X46735635Y-91526499D01*
X46805000Y-91177777D01*
X46805000Y-90822223D01*
X48195000Y-90822223D01*
X48195000Y-91177777D01*
X48264365Y-91526499D01*
X48400429Y-91854988D01*
X48597965Y-92150621D01*
X48849379Y-92402035D01*
X49145012Y-92599571D01*
X49473501Y-92735635D01*
X49822223Y-92805000D01*
X50177777Y-92805000D01*
X50526499Y-92735635D01*
X50854988Y-92599571D01*
X51150621Y-92402035D01*
X51402035Y-92150621D01*
X51599571Y-91854988D01*
X51735635Y-91526499D01*
X51805000Y-91177777D01*
X51805000Y-90822223D01*
X53195000Y-90822223D01*
X53195000Y-91177777D01*
X53264365Y-91526499D01*
X53400429Y-91854988D01*
X53597965Y-92150621D01*
X53849379Y-92402035D01*
X54145012Y-92599571D01*
X54473501Y-92735635D01*
X54822223Y-92805000D01*
X55177777Y-92805000D01*
X55526499Y-92735635D01*
X55854988Y-92599571D01*
X56150621Y-92402035D01*
X56402035Y-92150621D01*
X56599571Y-91854988D01*
X56735635Y-91526499D01*
X56805000Y-91177777D01*
X56805000Y-90822223D01*
X56735635Y-90473501D01*
X56599571Y-90145012D01*
X56402035Y-89849379D01*
X56150621Y-89597965D01*
X55854988Y-89400429D01*
X55526499Y-89264365D01*
X55177777Y-89195000D01*
X54822223Y-89195000D01*
X54473501Y-89264365D01*
X54145012Y-89400429D01*
X53849379Y-89597965D01*
X53597965Y-89849379D01*
X53400429Y-90145012D01*
X53264365Y-90473501D01*
X53195000Y-90822223D01*
X51805000Y-90822223D01*
X51735635Y-90473501D01*
X51599571Y-90145012D01*
X51402035Y-89849379D01*
X51150621Y-89597965D01*
X50854988Y-89400429D01*
X50526499Y-89264365D01*
X50177777Y-89195000D01*
X49822223Y-89195000D01*
X49473501Y-89264365D01*
X49145012Y-89400429D01*
X48849379Y-89597965D01*
X48597965Y-89849379D01*
X48400429Y-90145012D01*
X48264365Y-90473501D01*
X48195000Y-90822223D01*
X46805000Y-90822223D01*
X46735635Y-90473501D01*
X46599571Y-90145012D01*
X46402035Y-89849379D01*
X46150621Y-89597965D01*
X45854988Y-89400429D01*
X45526499Y-89264365D01*
X45177777Y-89195000D01*
X44822223Y-89195000D01*
X44473501Y-89264365D01*
X44145012Y-89400429D01*
X43849379Y-89597965D01*
X43597965Y-89849379D01*
X43400429Y-90145012D01*
X43264365Y-90473501D01*
X43195000Y-90822223D01*
X37160000Y-90822223D01*
X37160000Y-81600000D01*
X45961928Y-81600000D01*
X45961928Y-83400000D01*
X45974188Y-83524482D01*
X46010498Y-83644180D01*
X46069463Y-83754494D01*
X46148815Y-83851185D01*
X46245506Y-83930537D01*
X46355820Y-83989502D01*
X46475518Y-84025812D01*
X46600000Y-84038072D01*
X48400000Y-84038072D01*
X48524482Y-84025812D01*
X48644180Y-83989502D01*
X48754494Y-83930537D01*
X48851185Y-83851185D01*
X48930537Y-83754494D01*
X48983880Y-83654697D01*
X49021495Y-83692312D01*
X49272905Y-83860299D01*
X49552257Y-83976011D01*
X49848816Y-84035000D01*
X50151184Y-84035000D01*
X50447743Y-83976011D01*
X50727095Y-83860299D01*
X50978505Y-83692312D01*
X51192312Y-83478505D01*
X51250000Y-83392169D01*
X51307688Y-83478505D01*
X51521495Y-83692312D01*
X51772905Y-83860299D01*
X52052257Y-83976011D01*
X52348816Y-84035000D01*
X52651184Y-84035000D01*
X52947743Y-83976011D01*
X53227095Y-83860299D01*
X53478505Y-83692312D01*
X53692312Y-83478505D01*
X53860299Y-83227095D01*
X53976011Y-82947743D01*
X54035000Y-82651184D01*
X54035000Y-82348816D01*
X53976011Y-82052257D01*
X53860299Y-81772905D01*
X53692312Y-81521495D01*
X53478505Y-81307688D01*
X53227095Y-81139701D01*
X52947743Y-81023989D01*
X52651184Y-80965000D01*
X52348816Y-80965000D01*
X52052257Y-81023989D01*
X51772905Y-81139701D01*
X51521495Y-81307688D01*
X51307688Y-81521495D01*
X51250000Y-81607831D01*
X51192312Y-81521495D01*
X50978505Y-81307688D01*
X50727095Y-81139701D01*
X50447743Y-81023989D01*
X50151184Y-80965000D01*
X49848816Y-80965000D01*
X49552257Y-81023989D01*
X49272905Y-81139701D01*
X49021495Y-81307688D01*
X48983880Y-81345303D01*
X48930537Y-81245506D01*
X48851185Y-81148815D01*
X48754494Y-81069463D01*
X48644180Y-81010498D01*
X48524482Y-80974188D01*
X48400000Y-80961928D01*
X46600000Y-80961928D01*
X46475518Y-80974188D01*
X46355820Y-81010498D01*
X46245506Y-81069463D01*
X46148815Y-81148815D01*
X46069463Y-81245506D01*
X46010498Y-81355820D01*
X45974188Y-81475518D01*
X45961928Y-81600000D01*
X37160000Y-81600000D01*
X37160000Y-75907333D01*
X37163677Y-75870000D01*
X37149003Y-75721014D01*
X37105546Y-75577753D01*
X37034974Y-75445724D01*
X36963799Y-75358997D01*
X36940001Y-75329999D01*
X36911003Y-75306201D01*
X36382704Y-74777902D01*
X42945000Y-74777902D01*
X42945000Y-75222098D01*
X43031658Y-75657759D01*
X43201645Y-76068143D01*
X43448427Y-76437479D01*
X43762521Y-76751573D01*
X44131857Y-76998355D01*
X44542241Y-77168342D01*
X44977902Y-77255000D01*
X45422098Y-77255000D01*
X45857759Y-77168342D01*
X46268143Y-76998355D01*
X46637479Y-76751573D01*
X46951573Y-76437479D01*
X47198355Y-76068143D01*
X47368342Y-75657759D01*
X47455000Y-75222098D01*
X47455000Y-74777902D01*
X52545000Y-74777902D01*
X52545000Y-75222098D01*
X52631658Y-75657759D01*
X52801645Y-76068143D01*
X53048427Y-76437479D01*
X53362521Y-76751573D01*
X53731857Y-76998355D01*
X54142241Y-77168342D01*
X54577902Y-77255000D01*
X55022098Y-77255000D01*
X55457759Y-77168342D01*
X55868143Y-76998355D01*
X56237479Y-76751573D01*
X56551573Y-76437479D01*
X56798355Y-76068143D01*
X56968342Y-75657759D01*
X57055000Y-75222098D01*
X57055000Y-74777902D01*
X56968342Y-74342241D01*
X56798355Y-73931857D01*
X56551573Y-73562521D01*
X56237479Y-73248427D01*
X55868143Y-73001645D01*
X55457759Y-72831658D01*
X55022098Y-72745000D01*
X54577902Y-72745000D01*
X54142241Y-72831658D01*
X53731857Y-73001645D01*
X53362521Y-73248427D01*
X53048427Y-73562521D01*
X52801645Y-73931857D01*
X52631658Y-74342241D01*
X52545000Y-74777902D01*
X47455000Y-74777902D01*
X47368342Y-74342241D01*
X47198355Y-73931857D01*
X46951573Y-73562521D01*
X46637479Y-73248427D01*
X46268143Y-73001645D01*
X45857759Y-72831658D01*
X45422098Y-72745000D01*
X44977902Y-72745000D01*
X44542241Y-72831658D01*
X44131857Y-73001645D01*
X43762521Y-73248427D01*
X43448427Y-73562521D01*
X43201645Y-73931857D01*
X43031658Y-74342241D01*
X42945000Y-74777902D01*
X36382704Y-74777902D01*
X32817128Y-71212327D01*
X32931031Y-70937341D01*
X33015000Y-70515204D01*
X33015000Y-70084796D01*
X32931031Y-69662659D01*
X32766322Y-69265015D01*
X32527200Y-68907144D01*
X32222856Y-68602800D01*
X31864985Y-68363678D01*
X31467341Y-68198969D01*
X31045204Y-68115000D01*
X30614796Y-68115000D01*
X30192659Y-68198969D01*
X29795015Y-68363678D01*
X29437144Y-68602800D01*
X29132800Y-68907144D01*
X28893678Y-69265015D01*
X28728969Y-69662659D01*
X28660000Y-70009387D01*
X28660000Y-67414801D01*
X30011004Y-66063798D01*
X30040001Y-66040001D01*
X30134974Y-65924276D01*
X30205546Y-65792247D01*
X30249003Y-65648986D01*
X30260000Y-65537333D01*
X30260000Y-65537325D01*
X30263676Y-65500000D01*
X30260000Y-65462675D01*
X30260000Y-60858665D01*
X43565000Y-60858665D01*
X43565000Y-61141335D01*
X43620147Y-61418574D01*
X43728320Y-61679727D01*
X43885363Y-61914759D01*
X44085241Y-62114637D01*
X44320273Y-62271680D01*
X44581426Y-62379853D01*
X44858665Y-62435000D01*
X45141335Y-62435000D01*
X45418574Y-62379853D01*
X45679727Y-62271680D01*
X45914759Y-62114637D01*
X46114637Y-61914759D01*
X46271680Y-61679727D01*
X46379853Y-61418574D01*
X46435000Y-61141335D01*
X46435000Y-60858665D01*
X53725000Y-60858665D01*
X53725000Y-61141335D01*
X53780147Y-61418574D01*
X53888320Y-61679727D01*
X54045363Y-61914759D01*
X54245241Y-62114637D01*
X54480273Y-62271680D01*
X54741426Y-62379853D01*
X55018665Y-62435000D01*
X55301335Y-62435000D01*
X55578574Y-62379853D01*
X55839727Y-62271680D01*
X56074759Y-62114637D01*
X56274637Y-61914759D01*
X56431680Y-61679727D01*
X56539853Y-61418574D01*
X56595000Y-61141335D01*
X56595000Y-60858665D01*
X56539853Y-60581426D01*
X56431680Y-60320273D01*
X56274637Y-60085241D01*
X56074759Y-59885363D01*
X55839727Y-59728320D01*
X55578574Y-59620147D01*
X55301335Y-59565000D01*
X55018665Y-59565000D01*
X54741426Y-59620147D01*
X54480273Y-59728320D01*
X54245241Y-59885363D01*
X54045363Y-60085241D01*
X53888320Y-60320273D01*
X53780147Y-60581426D01*
X53725000Y-60858665D01*
X46435000Y-60858665D01*
X46379853Y-60581426D01*
X46271680Y-60320273D01*
X46114637Y-60085241D01*
X45914759Y-59885363D01*
X45679727Y-59728320D01*
X45418574Y-59620147D01*
X45141335Y-59565000D01*
X44858665Y-59565000D01*
X44581426Y-59620147D01*
X44320273Y-59728320D01*
X44085241Y-59885363D01*
X43885363Y-60085241D01*
X43728320Y-60320273D01*
X43620147Y-60581426D01*
X43565000Y-60858665D01*
X30260000Y-60858665D01*
X30260000Y-55822223D01*
X43195000Y-55822223D01*
X43195000Y-56177777D01*
X43264365Y-56526499D01*
X43400429Y-56854988D01*
X43597965Y-57150621D01*
X43849379Y-57402035D01*
X44145012Y-57599571D01*
X44473501Y-57735635D01*
X44822223Y-57805000D01*
X45177777Y-57805000D01*
X45526499Y-57735635D01*
X45854988Y-57599571D01*
X46150621Y-57402035D01*
X46402035Y-57150621D01*
X46599571Y-56854988D01*
X46735635Y-56526499D01*
X46805000Y-56177777D01*
X46805000Y-55822223D01*
X48195000Y-55822223D01*
X48195000Y-56177777D01*
X48264365Y-56526499D01*
X48400429Y-56854988D01*
X48597965Y-57150621D01*
X48849379Y-57402035D01*
X49145012Y-57599571D01*
X49473501Y-57735635D01*
X49822223Y-57805000D01*
X50177777Y-57805000D01*
X50526499Y-57735635D01*
X50854988Y-57599571D01*
X51150621Y-57402035D01*
X51402035Y-57150621D01*
X51599571Y-56854988D01*
X51735635Y-56526499D01*
X51805000Y-56177777D01*
X51805000Y-55822223D01*
X53195000Y-55822223D01*
X53195000Y-56177777D01*
X53264365Y-56526499D01*
X53400429Y-56854988D01*
X53597965Y-57150621D01*
X53849379Y-57402035D01*
X54145012Y-57599571D01*
X54473501Y-57735635D01*
X54822223Y-57805000D01*
X55177777Y-57805000D01*
X55526499Y-57735635D01*
X55854988Y-57599571D01*
X56150621Y-57402035D01*
X56402035Y-57150621D01*
X56599571Y-56854988D01*
X56735635Y-56526499D01*
X56805000Y-56177777D01*
X56805000Y-55822223D01*
X56735635Y-55473501D01*
X56599571Y-55145012D01*
X56402035Y-54849379D01*
X56150621Y-54597965D01*
X55854988Y-54400429D01*
X55526499Y-54264365D01*
X55177777Y-54195000D01*
X54822223Y-54195000D01*
X54473501Y-54264365D01*
X54145012Y-54400429D01*
X53849379Y-54597965D01*
X53597965Y-54849379D01*
X53400429Y-55145012D01*
X53264365Y-55473501D01*
X53195000Y-55822223D01*
X51805000Y-55822223D01*
X51735635Y-55473501D01*
X51599571Y-55145012D01*
X51402035Y-54849379D01*
X51150621Y-54597965D01*
X50854988Y-54400429D01*
X50526499Y-54264365D01*
X50177777Y-54195000D01*
X49822223Y-54195000D01*
X49473501Y-54264365D01*
X49145012Y-54400429D01*
X48849379Y-54597965D01*
X48597965Y-54849379D01*
X48400429Y-55145012D01*
X48264365Y-55473501D01*
X48195000Y-55822223D01*
X46805000Y-55822223D01*
X46735635Y-55473501D01*
X46599571Y-55145012D01*
X46402035Y-54849379D01*
X46150621Y-54597965D01*
X45854988Y-54400429D01*
X45526499Y-54264365D01*
X45177777Y-54195000D01*
X44822223Y-54195000D01*
X44473501Y-54264365D01*
X44145012Y-54400429D01*
X43849379Y-54597965D01*
X43597965Y-54849379D01*
X43400429Y-55145012D01*
X43264365Y-55473501D01*
X43195000Y-55822223D01*
X30260000Y-55822223D01*
X30260000Y-53738801D01*
X37398801Y-46600000D01*
X45961928Y-46600000D01*
X45961928Y-48400000D01*
X45974188Y-48524482D01*
X46010498Y-48644180D01*
X46069463Y-48754494D01*
X46148815Y-48851185D01*
X46245506Y-48930537D01*
X46355820Y-48989502D01*
X46475518Y-49025812D01*
X46600000Y-49038072D01*
X48400000Y-49038072D01*
X48524482Y-49025812D01*
X48644180Y-48989502D01*
X48754494Y-48930537D01*
X48851185Y-48851185D01*
X48930537Y-48754494D01*
X48983880Y-48654697D01*
X49021495Y-48692312D01*
X49272905Y-48860299D01*
X49552257Y-48976011D01*
X49848816Y-49035000D01*
X50151184Y-49035000D01*
X50447743Y-48976011D01*
X50727095Y-48860299D01*
X50978505Y-48692312D01*
X51192312Y-48478505D01*
X51250000Y-48392169D01*
X51307688Y-48478505D01*
X51521495Y-48692312D01*
X51772905Y-48860299D01*
X52052257Y-48976011D01*
X52348816Y-49035000D01*
X52651184Y-49035000D01*
X52947743Y-48976011D01*
X53227095Y-48860299D01*
X53478505Y-48692312D01*
X53692312Y-48478505D01*
X53860299Y-48227095D01*
X53976011Y-47947743D01*
X54035000Y-47651184D01*
X54035000Y-47348816D01*
X53976011Y-47052257D01*
X53860299Y-46772905D01*
X53692312Y-46521495D01*
X53478505Y-46307688D01*
X53227095Y-46139701D01*
X52947743Y-46023989D01*
X52651184Y-45965000D01*
X52348816Y-45965000D01*
X52052257Y-46023989D01*
X51772905Y-46139701D01*
X51521495Y-46307688D01*
X51307688Y-46521495D01*
X51250000Y-46607831D01*
X51192312Y-46521495D01*
X50978505Y-46307688D01*
X50727095Y-46139701D01*
X50447743Y-46023989D01*
X50151184Y-45965000D01*
X49848816Y-45965000D01*
X49552257Y-46023989D01*
X49272905Y-46139701D01*
X49021495Y-46307688D01*
X48983880Y-46345303D01*
X48930537Y-46245506D01*
X48851185Y-46148815D01*
X48754494Y-46069463D01*
X48644180Y-46010498D01*
X48524482Y-45974188D01*
X48400000Y-45961928D01*
X46600000Y-45961928D01*
X46475518Y-45974188D01*
X46355820Y-46010498D01*
X46245506Y-46069463D01*
X46148815Y-46148815D01*
X46069463Y-46245506D01*
X46010498Y-46355820D01*
X45974188Y-46475518D01*
X45961928Y-46600000D01*
X37398801Y-46600000D01*
X41751004Y-42247798D01*
X41780001Y-42224001D01*
X41874974Y-42108276D01*
X41945546Y-41976247D01*
X41989003Y-41832986D01*
X42000000Y-41721333D01*
X42000000Y-41721324D01*
X42003676Y-41684001D01*
X42000000Y-41646678D01*
X42000000Y-39777902D01*
X42945000Y-39777902D01*
X42945000Y-40222098D01*
X43031658Y-40657759D01*
X43201645Y-41068143D01*
X43448427Y-41437479D01*
X43762521Y-41751573D01*
X44131857Y-41998355D01*
X44542241Y-42168342D01*
X44977902Y-42255000D01*
X45422098Y-42255000D01*
X45857759Y-42168342D01*
X46268143Y-41998355D01*
X46637479Y-41751573D01*
X46951573Y-41437479D01*
X47198355Y-41068143D01*
X47368342Y-40657759D01*
X47455000Y-40222098D01*
X47455000Y-39777902D01*
X52545000Y-39777902D01*
X52545000Y-40222098D01*
X52631658Y-40657759D01*
X52801645Y-41068143D01*
X53048427Y-41437479D01*
X53362521Y-41751573D01*
X53731857Y-41998355D01*
X54142241Y-42168342D01*
X54577902Y-42255000D01*
X55022098Y-42255000D01*
X55457759Y-42168342D01*
X55868143Y-41998355D01*
X56237479Y-41751573D01*
X56551573Y-41437479D01*
X56798355Y-41068143D01*
X56968342Y-40657759D01*
X57055000Y-40222098D01*
X57055000Y-39777902D01*
X56968342Y-39342241D01*
X56798355Y-38931857D01*
X56551573Y-38562521D01*
X56237479Y-38248427D01*
X55868143Y-38001645D01*
X55457759Y-37831658D01*
X55022098Y-37745000D01*
X54577902Y-37745000D01*
X54142241Y-37831658D01*
X53731857Y-38001645D01*
X53362521Y-38248427D01*
X53048427Y-38562521D01*
X52801645Y-38931857D01*
X52631658Y-39342241D01*
X52545000Y-39777902D01*
X47455000Y-39777902D01*
X47368342Y-39342241D01*
X47198355Y-38931857D01*
X46951573Y-38562521D01*
X46637479Y-38248427D01*
X46268143Y-38001645D01*
X45857759Y-37831658D01*
X45422098Y-37745000D01*
X44977902Y-37745000D01*
X44542241Y-37831658D01*
X44131857Y-38001645D01*
X43762521Y-38248427D01*
X43448427Y-38562521D01*
X43201645Y-38931857D01*
X43031658Y-39342241D01*
X42945000Y-39777902D01*
X42000000Y-39777902D01*
X42000000Y-24278178D01*
X42186632Y-24153475D01*
X42393475Y-23946632D01*
X42510000Y-23772240D01*
X42626525Y-23946632D01*
X42833368Y-24153475D01*
X43076589Y-24315990D01*
X43346842Y-24427932D01*
X43633740Y-24485000D01*
X43926260Y-24485000D01*
X44213158Y-24427932D01*
X44483411Y-24315990D01*
X44726632Y-24153475D01*
X44933475Y-23946632D01*
X45050000Y-23772240D01*
X45166525Y-23946632D01*
X45373368Y-24153475D01*
X45616589Y-24315990D01*
X45886842Y-24427932D01*
X46173740Y-24485000D01*
X46466260Y-24485000D01*
X46753158Y-24427932D01*
X47023411Y-24315990D01*
X47266632Y-24153475D01*
X47473475Y-23946632D01*
X47635990Y-23703411D01*
X47747932Y-23433158D01*
X47805000Y-23146260D01*
X47805000Y-22853740D01*
X47790307Y-22779872D01*
X54765000Y-22779872D01*
X54765000Y-23220128D01*
X54850890Y-23651925D01*
X55019369Y-24058669D01*
X55263962Y-24424729D01*
X55575271Y-24736038D01*
X55941331Y-24980631D01*
X56348075Y-25149110D01*
X56779872Y-25235000D01*
X57220128Y-25235000D01*
X57651925Y-25149110D01*
X58058669Y-24980631D01*
X58424729Y-24736038D01*
X58736038Y-24424729D01*
X58980631Y-24058669D01*
X59149110Y-23651925D01*
X59235000Y-23220128D01*
X59235000Y-22779872D01*
X59149110Y-22348075D01*
X58980631Y-21941331D01*
X58736038Y-21575271D01*
X58424729Y-21263962D01*
X58058669Y-21019369D01*
X57651925Y-20850890D01*
X57220128Y-20765000D01*
X56779872Y-20765000D01*
X56348075Y-20850890D01*
X55941331Y-21019369D01*
X55575271Y-21263962D01*
X55263962Y-21575271D01*
X55019369Y-21941331D01*
X54850890Y-22348075D01*
X54765000Y-22779872D01*
X47790307Y-22779872D01*
X47747932Y-22566842D01*
X47635990Y-22296589D01*
X47473475Y-22053368D01*
X47266632Y-21846525D01*
X47023411Y-21684010D01*
X46753158Y-21572068D01*
X46466260Y-21515000D01*
X46173740Y-21515000D01*
X45886842Y-21572068D01*
X45616589Y-21684010D01*
X45373368Y-21846525D01*
X45166525Y-22053368D01*
X45050000Y-22227760D01*
X44933475Y-22053368D01*
X44726632Y-21846525D01*
X44483411Y-21684010D01*
X44213158Y-21572068D01*
X43926260Y-21515000D01*
X43633740Y-21515000D01*
X43346842Y-21572068D01*
X43076589Y-21684010D01*
X42833368Y-21846525D01*
X42626525Y-22053368D01*
X42510000Y-22227760D01*
X42393475Y-22053368D01*
X42186632Y-21846525D01*
X41943411Y-21684010D01*
X41673158Y-21572068D01*
X41386260Y-21515000D01*
X41093740Y-21515000D01*
X40806842Y-21572068D01*
X40536589Y-21684010D01*
X40293368Y-21846525D01*
X40086525Y-22053368D01*
X39970000Y-22227760D01*
X39853475Y-22053368D01*
X39646632Y-21846525D01*
X39403411Y-21684010D01*
X39133158Y-21572068D01*
X38846260Y-21515000D01*
X38553740Y-21515000D01*
X38266842Y-21572068D01*
X37996589Y-21684010D01*
X37753368Y-21846525D01*
X37546525Y-22053368D01*
X37430000Y-22227760D01*
X37313475Y-22053368D01*
X37106632Y-21846525D01*
X36863411Y-21684010D01*
X36593158Y-21572068D01*
X36306260Y-21515000D01*
X36013740Y-21515000D01*
X35726842Y-21572068D01*
X35456589Y-21684010D01*
X35213368Y-21846525D01*
X35006525Y-22053368D01*
X34890000Y-22227760D01*
X34773475Y-22053368D01*
X34566632Y-21846525D01*
X34323411Y-21684010D01*
X34053158Y-21572068D01*
X33766260Y-21515000D01*
X33473740Y-21515000D01*
X33186842Y-21572068D01*
X32916589Y-21684010D01*
X32673368Y-21846525D01*
X32466525Y-22053368D01*
X32350000Y-22227760D01*
X32233475Y-22053368D01*
X32026632Y-21846525D01*
X31783411Y-21684010D01*
X31513158Y-21572068D01*
X31226260Y-21515000D01*
X30933740Y-21515000D01*
X30646842Y-21572068D01*
X30376589Y-21684010D01*
X30133368Y-21846525D01*
X29926525Y-22053368D01*
X29810000Y-22227760D01*
X29693475Y-22053368D01*
X29486632Y-21846525D01*
X29243411Y-21684010D01*
X28973158Y-21572068D01*
X28686260Y-21515000D01*
X28393740Y-21515000D01*
X28106842Y-21572068D01*
X27836589Y-21684010D01*
X27593368Y-21846525D01*
X27386525Y-22053368D01*
X27270000Y-22227760D01*
X27153475Y-22053368D01*
X26946632Y-21846525D01*
X26703411Y-21684010D01*
X26433158Y-21572068D01*
X26146260Y-21515000D01*
X25853740Y-21515000D01*
X25566842Y-21572068D01*
X25296589Y-21684010D01*
X25053368Y-21846525D01*
X24921513Y-21978380D01*
X24899502Y-21905820D01*
X24840537Y-21795506D01*
X24761185Y-21698815D01*
X24664494Y-21619463D01*
X24554180Y-21560498D01*
X24434482Y-21524188D01*
X24310000Y-21511928D01*
X23745750Y-21515000D01*
X23587000Y-21673750D01*
X23587000Y-22873000D01*
X23607000Y-22873000D01*
X23607000Y-23127000D01*
X23587000Y-23127000D01*
X23587000Y-24326250D01*
X23745750Y-24485000D01*
X24310000Y-24488072D01*
X24434482Y-24475812D01*
X24554180Y-24439502D01*
X24664494Y-24380537D01*
X24761185Y-24301185D01*
X24840537Y-24204494D01*
X24899502Y-24094180D01*
X24921513Y-24021620D01*
X25053368Y-24153475D01*
X25296589Y-24315990D01*
X25566842Y-24427932D01*
X25853740Y-24485000D01*
X26146260Y-24485000D01*
X26433158Y-24427932D01*
X26703411Y-24315990D01*
X26946632Y-24153475D01*
X27153475Y-23946632D01*
X27270000Y-23772240D01*
X27386525Y-23946632D01*
X27593368Y-24153475D01*
X27836589Y-24315990D01*
X28106842Y-24427932D01*
X28393740Y-24485000D01*
X28686260Y-24485000D01*
X28973158Y-24427932D01*
X29243411Y-24315990D01*
X29486632Y-24153475D01*
X29693475Y-23946632D01*
X29810000Y-23772240D01*
X29926525Y-23946632D01*
X30133368Y-24153475D01*
X30376589Y-24315990D01*
X30646842Y-24427932D01*
X30933740Y-24485000D01*
X31226260Y-24485000D01*
X31513158Y-24427932D01*
X31783411Y-24315990D01*
X32026632Y-24153475D01*
X32233475Y-23946632D01*
X32350000Y-23772240D01*
X32466525Y-23946632D01*
X32673368Y-24153475D01*
X32860000Y-24278179D01*
X32860001Y-41115197D01*
X23074003Y-50901196D01*
X23044999Y-50924999D01*
X22989871Y-50992174D01*
X22950026Y-51040724D01*
X22879455Y-51172753D01*
X22879454Y-51172754D01*
X22835997Y-51316015D01*
X22825000Y-51427668D01*
X22825000Y-51427678D01*
X22821324Y-51465000D01*
X22825000Y-51502322D01*
X22825001Y-64700197D01*
X17889003Y-69636196D01*
X17859999Y-69659999D01*
X17804871Y-69727174D01*
X17765026Y-69775724D01*
X17711575Y-69875724D01*
X17694454Y-69907754D01*
X17650997Y-70051015D01*
X17640000Y-70162668D01*
X17640000Y-70162678D01*
X17636324Y-70200000D01*
X17640000Y-70237323D01*
X17640001Y-76892668D01*
X17636324Y-76930000D01*
X17650998Y-77078985D01*
X17694454Y-77222246D01*
X17765026Y-77354276D01*
X17836201Y-77441002D01*
X17860000Y-77470001D01*
X17888998Y-77493799D01*
X19182872Y-78787673D01*
X19068969Y-79062659D01*
X18985000Y-79484796D01*
X18985000Y-79915204D01*
X19068969Y-80337341D01*
X19233678Y-80734985D01*
X19472800Y-81092856D01*
X19777144Y-81397200D01*
X20135015Y-81636322D01*
X20532659Y-81801031D01*
X20954796Y-81885000D01*
X21385204Y-81885000D01*
X21807341Y-81801031D01*
X22204985Y-81636322D01*
X22562856Y-81397200D01*
X22867200Y-81092856D01*
X23106322Y-80734985D01*
X23271031Y-80337341D01*
X23355000Y-79915204D01*
X23355000Y-79484796D01*
X23271031Y-79062659D01*
X23106322Y-78665015D01*
X22867200Y-78307144D01*
X22562856Y-78002800D01*
X22204985Y-77763678D01*
X21807341Y-77598969D01*
X21385204Y-77515000D01*
X20954796Y-77515000D01*
X20532659Y-77598969D01*
X20257673Y-77712872D01*
X19160000Y-76615199D01*
X19160000Y-75857110D01*
X19233678Y-76034985D01*
X19472800Y-76392856D01*
X19777144Y-76697200D01*
X20135015Y-76936322D01*
X20532659Y-77101031D01*
X20954796Y-77185000D01*
X21385204Y-77185000D01*
X21807341Y-77101031D01*
X22204985Y-76936322D01*
X22562856Y-76697200D01*
X22867200Y-76392856D01*
X23106322Y-76034985D01*
X23271031Y-75637341D01*
X23340001Y-75290610D01*
X23340001Y-77762668D01*
X23336324Y-77800000D01*
X23350998Y-77948985D01*
X23394454Y-78092246D01*
X23465026Y-78224276D01*
X23533035Y-78307144D01*
X23560000Y-78340001D01*
X23588998Y-78363799D01*
X24012872Y-78787673D01*
X23898969Y-79062659D01*
X23815000Y-79484796D01*
X23815000Y-79915204D01*
X23898969Y-80337341D01*
X24063678Y-80734985D01*
X24302800Y-81092856D01*
X24607144Y-81397200D01*
X24965015Y-81636322D01*
X25362659Y-81801031D01*
X25784796Y-81885000D01*
X26215204Y-81885000D01*
X26637341Y-81801031D01*
X27034985Y-81636322D01*
X27392856Y-81397200D01*
X27697200Y-81092856D01*
X27936322Y-80734985D01*
X28101031Y-80337341D01*
X28185000Y-79915204D01*
X28185000Y-79484796D01*
X28101031Y-79062659D01*
X27936322Y-78665015D01*
X27697200Y-78307144D01*
X27392856Y-78002800D01*
X27034985Y-77763678D01*
X26637341Y-77598969D01*
X26215204Y-77515000D01*
X25784796Y-77515000D01*
X25362659Y-77598969D01*
X25087673Y-77712872D01*
X24860000Y-77485199D01*
X24860000Y-76866153D01*
X24965015Y-76936322D01*
X25362659Y-77101031D01*
X25784796Y-77185000D01*
X26215204Y-77185000D01*
X26637341Y-77101031D01*
X27034985Y-76936322D01*
X27392856Y-76697200D01*
X27697200Y-76392856D01*
X27936322Y-76034985D01*
X28101031Y-75637341D01*
X28185000Y-75215204D01*
X28185000Y-74784796D01*
X28101031Y-74362659D01*
X27987129Y-74087673D01*
X28411004Y-73663798D01*
X28440001Y-73640001D01*
X28534974Y-73524276D01*
X28605546Y-73392247D01*
X28649003Y-73248986D01*
X28660000Y-73137333D01*
X28660000Y-73137325D01*
X28663676Y-73100000D01*
X28660000Y-73062675D01*
X28660000Y-70590613D01*
X28728969Y-70937341D01*
X28893678Y-71334985D01*
X29132800Y-71692856D01*
X29437144Y-71997200D01*
X29795015Y-72236322D01*
X30192659Y-72401031D01*
X30614796Y-72485000D01*
X31045204Y-72485000D01*
X31467341Y-72401031D01*
X31742327Y-72287128D01*
X35640001Y-76184803D01*
X35640001Y-78729999D01*
X35611004Y-78706202D01*
X32817128Y-75912327D01*
X32931031Y-75637341D01*
X33015000Y-75215204D01*
X33015000Y-74784796D01*
X32931031Y-74362659D01*
X32766322Y-73965015D01*
X32527200Y-73607144D01*
X32222856Y-73302800D01*
X31864985Y-73063678D01*
X31467341Y-72898969D01*
X31045204Y-72815000D01*
X30614796Y-72815000D01*
X30192659Y-72898969D01*
X29795015Y-73063678D01*
X29437144Y-73302800D01*
X29132800Y-73607144D01*
X28893678Y-73965015D01*
X28728969Y-74362659D01*
X28645000Y-74784796D01*
X28645000Y-75215204D01*
X28728969Y-75637341D01*
X28893678Y-76034985D01*
X29132800Y-76392856D01*
X29437144Y-76697200D01*
X29795015Y-76936322D01*
X30192659Y-77101031D01*
X30614796Y-77185000D01*
X31045204Y-77185000D01*
X31467341Y-77101031D01*
X31742327Y-76987128D01*
X34340000Y-79584802D01*
X34340000Y-82291335D01*
X34305546Y-82177753D01*
X34234974Y-82045724D01*
X34163799Y-81958997D01*
X34140001Y-81929999D01*
X34111004Y-81906202D01*
X32817128Y-80612327D01*
X32931031Y-80337341D01*
X33015000Y-79915204D01*
X33015000Y-79484796D01*
X32931031Y-79062659D01*
X32766322Y-78665015D01*
X32527200Y-78307144D01*
X32222856Y-78002800D01*
X31864985Y-77763678D01*
X31467341Y-77598969D01*
X31045204Y-77515000D01*
X30614796Y-77515000D01*
X30192659Y-77598969D01*
X29795015Y-77763678D01*
X29437144Y-78002800D01*
X29132800Y-78307144D01*
X28893678Y-78665015D01*
X28728969Y-79062659D01*
X28645000Y-79484796D01*
X28645000Y-79915204D01*
X28728969Y-80337341D01*
X28893678Y-80734985D01*
X29132800Y-81092856D01*
X29437144Y-81397200D01*
X29795015Y-81636322D01*
X30192659Y-81801031D01*
X30614796Y-81885000D01*
X31045204Y-81885000D01*
X31467341Y-81801031D01*
X31742327Y-81687128D01*
X32840000Y-82784802D01*
X32840001Y-95032324D01*
X32836324Y-95069656D01*
X32850998Y-95218641D01*
X32894454Y-95361902D01*
X32965026Y-95493932D01*
X33023351Y-95565000D01*
X33060000Y-95609657D01*
X33088998Y-95633455D01*
X36770542Y-99315000D01*
X16685000Y-99315000D01*
X16685000Y-96779872D01*
X16765000Y-96779872D01*
X16765000Y-97220128D01*
X16850890Y-97651925D01*
X17019369Y-98058669D01*
X17263962Y-98424729D01*
X17575271Y-98736038D01*
X17941331Y-98980631D01*
X18348075Y-99149110D01*
X18779872Y-99235000D01*
X19220128Y-99235000D01*
X19651925Y-99149110D01*
X20058669Y-98980631D01*
X20424729Y-98736038D01*
X20736038Y-98424729D01*
X20980631Y-98058669D01*
X21149110Y-97651925D01*
X21235000Y-97220128D01*
X21235000Y-96779872D01*
X21149110Y-96348075D01*
X20980631Y-95941331D01*
X20736038Y-95575271D01*
X20424729Y-95263962D01*
X20058669Y-95019369D01*
X19651925Y-94850890D01*
X19220128Y-94765000D01*
X18779872Y-94765000D01*
X18348075Y-94850890D01*
X17941331Y-95019369D01*
X17575271Y-95263962D01*
X17263962Y-95575271D01*
X17019369Y-95941331D01*
X16850890Y-96348075D01*
X16765000Y-96779872D01*
X16685000Y-96779872D01*
X16685000Y-44484796D01*
X23815000Y-44484796D01*
X23815000Y-44915204D01*
X23898969Y-45337341D01*
X24063678Y-45734985D01*
X24302800Y-46092856D01*
X24607144Y-46397200D01*
X24965015Y-46636322D01*
X25362659Y-46801031D01*
X25784796Y-46885000D01*
X26215204Y-46885000D01*
X26637341Y-46801031D01*
X27034985Y-46636322D01*
X27392856Y-46397200D01*
X27697200Y-46092856D01*
X27936322Y-45734985D01*
X28101031Y-45337341D01*
X28185000Y-44915204D01*
X28185000Y-44484796D01*
X28101031Y-44062659D01*
X27936322Y-43665015D01*
X27697200Y-43307144D01*
X27392856Y-43002800D01*
X27034985Y-42763678D01*
X26637341Y-42598969D01*
X26215204Y-42515000D01*
X25784796Y-42515000D01*
X25362659Y-42598969D01*
X24965015Y-42763678D01*
X24607144Y-43002800D01*
X24302800Y-43307144D01*
X24063678Y-43665015D01*
X23898969Y-44062659D01*
X23815000Y-44484796D01*
X16685000Y-44484796D01*
X16685000Y-39784796D01*
X23815000Y-39784796D01*
X23815000Y-40215204D01*
X23898969Y-40637341D01*
X24063678Y-41034985D01*
X24302800Y-41392856D01*
X24607144Y-41697200D01*
X24965015Y-41936322D01*
X25362659Y-42101031D01*
X25784796Y-42185000D01*
X26215204Y-42185000D01*
X26637341Y-42101031D01*
X27034985Y-41936322D01*
X27392856Y-41697200D01*
X27697200Y-41392856D01*
X27936322Y-41034985D01*
X28101031Y-40637341D01*
X28185000Y-40215204D01*
X28185000Y-39784796D01*
X28101031Y-39362659D01*
X27936322Y-38965015D01*
X27697200Y-38607144D01*
X27392856Y-38302800D01*
X27034985Y-38063678D01*
X26637341Y-37898969D01*
X26215204Y-37815000D01*
X25784796Y-37815000D01*
X25362659Y-37898969D01*
X24965015Y-38063678D01*
X24607144Y-38302800D01*
X24302800Y-38607144D01*
X24063678Y-38965015D01*
X23898969Y-39362659D01*
X23815000Y-39784796D01*
X16685000Y-39784796D01*
X16685000Y-35084796D01*
X23815000Y-35084796D01*
X23815000Y-35515204D01*
X23898969Y-35937341D01*
X24063678Y-36334985D01*
X24302800Y-36692856D01*
X24607144Y-36997200D01*
X24965015Y-37236322D01*
X25362659Y-37401031D01*
X25784796Y-37485000D01*
X26215204Y-37485000D01*
X26637341Y-37401031D01*
X27034985Y-37236322D01*
X27392856Y-36997200D01*
X27697200Y-36692856D01*
X27936322Y-36334985D01*
X28101031Y-35937341D01*
X28185000Y-35515204D01*
X28185000Y-35084796D01*
X28101031Y-34662659D01*
X27936322Y-34265015D01*
X27697200Y-33907144D01*
X27392856Y-33602800D01*
X27034985Y-33363678D01*
X26637341Y-33198969D01*
X26215204Y-33115000D01*
X25784796Y-33115000D01*
X25362659Y-33198969D01*
X24965015Y-33363678D01*
X24607144Y-33602800D01*
X24302800Y-33907144D01*
X24063678Y-34265015D01*
X23898969Y-34662659D01*
X23815000Y-35084796D01*
X16685000Y-35084796D01*
X16685000Y-23850000D01*
X21971928Y-23850000D01*
X21984188Y-23974482D01*
X22020498Y-24094180D01*
X22079463Y-24204494D01*
X22158815Y-24301185D01*
X22255506Y-24380537D01*
X22365820Y-24439502D01*
X22485518Y-24475812D01*
X22610000Y-24488072D01*
X23174250Y-24485000D01*
X23333000Y-24326250D01*
X23333000Y-23127000D01*
X22133750Y-23127000D01*
X21975000Y-23285750D01*
X21971928Y-23850000D01*
X16685000Y-23850000D01*
X16685000Y-22150000D01*
X21971928Y-22150000D01*
X21975000Y-22714250D01*
X22133750Y-22873000D01*
X23333000Y-22873000D01*
X23333000Y-21673750D01*
X23174250Y-21515000D01*
X22610000Y-21511928D01*
X22485518Y-21524188D01*
X22365820Y-21560498D01*
X22255506Y-21619463D01*
X22158815Y-21698815D01*
X22079463Y-21795506D01*
X22020498Y-21905820D01*
X21984188Y-22025518D01*
X21971928Y-22150000D01*
X16685000Y-22150000D01*
X16685000Y-20685000D01*
X59315000Y-20685000D01*
X59315001Y-169315000D01*
%TA.AperFunction,Conductor*%
D22*
G36*
X59315001Y-169315000D02*
G01*
X38685000Y-169315000D01*
X38685000Y-165858665D01*
X43565000Y-165858665D01*
X43565000Y-166141335D01*
X43620147Y-166418574D01*
X43728320Y-166679727D01*
X43885363Y-166914759D01*
X44085241Y-167114637D01*
X44320273Y-167271680D01*
X44581426Y-167379853D01*
X44858665Y-167435000D01*
X45141335Y-167435000D01*
X45418574Y-167379853D01*
X45679727Y-167271680D01*
X45914759Y-167114637D01*
X46114637Y-166914759D01*
X46271680Y-166679727D01*
X46379853Y-166418574D01*
X46435000Y-166141335D01*
X46435000Y-165858665D01*
X53725000Y-165858665D01*
X53725000Y-166141335D01*
X53780147Y-166418574D01*
X53888320Y-166679727D01*
X54045363Y-166914759D01*
X54245241Y-167114637D01*
X54480273Y-167271680D01*
X54741426Y-167379853D01*
X55018665Y-167435000D01*
X55301335Y-167435000D01*
X55578574Y-167379853D01*
X55839727Y-167271680D01*
X56074759Y-167114637D01*
X56274637Y-166914759D01*
X56431680Y-166679727D01*
X56539853Y-166418574D01*
X56595000Y-166141335D01*
X56595000Y-165858665D01*
X56539853Y-165581426D01*
X56431680Y-165320273D01*
X56274637Y-165085241D01*
X56074759Y-164885363D01*
X55839727Y-164728320D01*
X55578574Y-164620147D01*
X55301335Y-164565000D01*
X55018665Y-164565000D01*
X54741426Y-164620147D01*
X54480273Y-164728320D01*
X54245241Y-164885363D01*
X54045363Y-165085241D01*
X53888320Y-165320273D01*
X53780147Y-165581426D01*
X53725000Y-165858665D01*
X46435000Y-165858665D01*
X46379853Y-165581426D01*
X46271680Y-165320273D01*
X46114637Y-165085241D01*
X45914759Y-164885363D01*
X45679727Y-164728320D01*
X45418574Y-164620147D01*
X45141335Y-164565000D01*
X44858665Y-164565000D01*
X44581426Y-164620147D01*
X44320273Y-164728320D01*
X44085241Y-164885363D01*
X43885363Y-165085241D01*
X43728320Y-165320273D01*
X43620147Y-165581426D01*
X43565000Y-165858665D01*
X38685000Y-165858665D01*
X38685000Y-160822223D01*
X43195000Y-160822223D01*
X43195000Y-161177777D01*
X43264365Y-161526499D01*
X43400429Y-161854988D01*
X43597965Y-162150621D01*
X43849379Y-162402035D01*
X44145012Y-162599571D01*
X44473501Y-162735635D01*
X44822223Y-162805000D01*
X45177777Y-162805000D01*
X45526499Y-162735635D01*
X45854988Y-162599571D01*
X46150621Y-162402035D01*
X46402035Y-162150621D01*
X46599571Y-161854988D01*
X46735635Y-161526499D01*
X46805000Y-161177777D01*
X46805000Y-160822223D01*
X48195000Y-160822223D01*
X48195000Y-161177777D01*
X48264365Y-161526499D01*
X48400429Y-161854988D01*
X48597965Y-162150621D01*
X48849379Y-162402035D01*
X49145012Y-162599571D01*
X49473501Y-162735635D01*
X49822223Y-162805000D01*
X50177777Y-162805000D01*
X50526499Y-162735635D01*
X50854988Y-162599571D01*
X51150621Y-162402035D01*
X51402035Y-162150621D01*
X51599571Y-161854988D01*
X51735635Y-161526499D01*
X51805000Y-161177777D01*
X51805000Y-160822223D01*
X53195000Y-160822223D01*
X53195000Y-161177777D01*
X53264365Y-161526499D01*
X53400429Y-161854988D01*
X53597965Y-162150621D01*
X53849379Y-162402035D01*
X54145012Y-162599571D01*
X54473501Y-162735635D01*
X54822223Y-162805000D01*
X55177777Y-162805000D01*
X55526499Y-162735635D01*
X55854988Y-162599571D01*
X56150621Y-162402035D01*
X56402035Y-162150621D01*
X56599571Y-161854988D01*
X56735635Y-161526499D01*
X56805000Y-161177777D01*
X56805000Y-160822223D01*
X56735635Y-160473501D01*
X56599571Y-160145012D01*
X56402035Y-159849379D01*
X56150621Y-159597965D01*
X55854988Y-159400429D01*
X55526499Y-159264365D01*
X55177777Y-159195000D01*
X54822223Y-159195000D01*
X54473501Y-159264365D01*
X54145012Y-159400429D01*
X53849379Y-159597965D01*
X53597965Y-159849379D01*
X53400429Y-160145012D01*
X53264365Y-160473501D01*
X53195000Y-160822223D01*
X51805000Y-160822223D01*
X51735635Y-160473501D01*
X51599571Y-160145012D01*
X51402035Y-159849379D01*
X51150621Y-159597965D01*
X50854988Y-159400429D01*
X50526499Y-159264365D01*
X50177777Y-159195000D01*
X49822223Y-159195000D01*
X49473501Y-159264365D01*
X49145012Y-159400429D01*
X48849379Y-159597965D01*
X48597965Y-159849379D01*
X48400429Y-160145012D01*
X48264365Y-160473501D01*
X48195000Y-160822223D01*
X46805000Y-160822223D01*
X46735635Y-160473501D01*
X46599571Y-160145012D01*
X46402035Y-159849379D01*
X46150621Y-159597965D01*
X45854988Y-159400429D01*
X45526499Y-159264365D01*
X45177777Y-159195000D01*
X44822223Y-159195000D01*
X44473501Y-159264365D01*
X44145012Y-159400429D01*
X43849379Y-159597965D01*
X43597965Y-159849379D01*
X43400429Y-160145012D01*
X43264365Y-160473501D01*
X43195000Y-160822223D01*
X38685000Y-160822223D01*
X38685000Y-151600000D01*
X45961928Y-151600000D01*
X45961928Y-153400000D01*
X45974188Y-153524482D01*
X46010498Y-153644180D01*
X46069463Y-153754494D01*
X46148815Y-153851185D01*
X46245506Y-153930537D01*
X46355820Y-153989502D01*
X46475518Y-154025812D01*
X46600000Y-154038072D01*
X48400000Y-154038072D01*
X48524482Y-154025812D01*
X48644180Y-153989502D01*
X48754494Y-153930537D01*
X48851185Y-153851185D01*
X48930537Y-153754494D01*
X48983880Y-153654697D01*
X49021495Y-153692312D01*
X49272905Y-153860299D01*
X49552257Y-153976011D01*
X49848816Y-154035000D01*
X50151184Y-154035000D01*
X50447743Y-153976011D01*
X50727095Y-153860299D01*
X50978505Y-153692312D01*
X51192312Y-153478505D01*
X51250000Y-153392169D01*
X51307688Y-153478505D01*
X51521495Y-153692312D01*
X51772905Y-153860299D01*
X52052257Y-153976011D01*
X52348816Y-154035000D01*
X52651184Y-154035000D01*
X52947743Y-153976011D01*
X53227095Y-153860299D01*
X53478505Y-153692312D01*
X53692312Y-153478505D01*
X53860299Y-153227095D01*
X53976011Y-152947743D01*
X54035000Y-152651184D01*
X54035000Y-152348816D01*
X53976011Y-152052257D01*
X53860299Y-151772905D01*
X53692312Y-151521495D01*
X53478505Y-151307688D01*
X53227095Y-151139701D01*
X52947743Y-151023989D01*
X52651184Y-150965000D01*
X52348816Y-150965000D01*
X52052257Y-151023989D01*
X51772905Y-151139701D01*
X51521495Y-151307688D01*
X51307688Y-151521495D01*
X51250000Y-151607831D01*
X51192312Y-151521495D01*
X50978505Y-151307688D01*
X50727095Y-151139701D01*
X50447743Y-151023989D01*
X50151184Y-150965000D01*
X49848816Y-150965000D01*
X49552257Y-151023989D01*
X49272905Y-151139701D01*
X49021495Y-151307688D01*
X48983880Y-151345303D01*
X48930537Y-151245506D01*
X48851185Y-151148815D01*
X48754494Y-151069463D01*
X48644180Y-151010498D01*
X48524482Y-150974188D01*
X48400000Y-150961928D01*
X46600000Y-150961928D01*
X46475518Y-150974188D01*
X46355820Y-151010498D01*
X46245506Y-151069463D01*
X46148815Y-151148815D01*
X46069463Y-151245506D01*
X46010498Y-151355820D01*
X45974188Y-151475518D01*
X45961928Y-151600000D01*
X38685000Y-151600000D01*
X38685000Y-144777902D01*
X42945000Y-144777902D01*
X42945000Y-145222098D01*
X43031658Y-145657759D01*
X43201645Y-146068143D01*
X43448427Y-146437479D01*
X43762521Y-146751573D01*
X44131857Y-146998355D01*
X44542241Y-147168342D01*
X44977902Y-147255000D01*
X45422098Y-147255000D01*
X45857759Y-147168342D01*
X46268143Y-146998355D01*
X46637479Y-146751573D01*
X46951573Y-146437479D01*
X47198355Y-146068143D01*
X47368342Y-145657759D01*
X47455000Y-145222098D01*
X47455000Y-144777902D01*
X52545000Y-144777902D01*
X52545000Y-145222098D01*
X52631658Y-145657759D01*
X52801645Y-146068143D01*
X53048427Y-146437479D01*
X53362521Y-146751573D01*
X53731857Y-146998355D01*
X54142241Y-147168342D01*
X54577902Y-147255000D01*
X55022098Y-147255000D01*
X55457759Y-147168342D01*
X55868143Y-146998355D01*
X56237479Y-146751573D01*
X56551573Y-146437479D01*
X56798355Y-146068143D01*
X56968342Y-145657759D01*
X57055000Y-145222098D01*
X57055000Y-144777902D01*
X56968342Y-144342241D01*
X56798355Y-143931857D01*
X56551573Y-143562521D01*
X56237479Y-143248427D01*
X55868143Y-143001645D01*
X55457759Y-142831658D01*
X55022098Y-142745000D01*
X54577902Y-142745000D01*
X54142241Y-142831658D01*
X53731857Y-143001645D01*
X53362521Y-143248427D01*
X53048427Y-143562521D01*
X52801645Y-143931857D01*
X52631658Y-144342241D01*
X52545000Y-144777902D01*
X47455000Y-144777902D01*
X47368342Y-144342241D01*
X47198355Y-143931857D01*
X46951573Y-143562521D01*
X46637479Y-143248427D01*
X46268143Y-143001645D01*
X45857759Y-142831658D01*
X45422098Y-142745000D01*
X44977902Y-142745000D01*
X44542241Y-142831658D01*
X44131857Y-143001645D01*
X43762521Y-143248427D01*
X43448427Y-143562521D01*
X43201645Y-143931857D01*
X43031658Y-144342241D01*
X42945000Y-144777902D01*
X38685000Y-144777902D01*
X38685000Y-101229458D01*
X38940000Y-101484458D01*
X38940001Y-126662667D01*
X38936324Y-126700000D01*
X38950998Y-126848985D01*
X38994454Y-126992246D01*
X39065026Y-127124276D01*
X39136201Y-127211002D01*
X39160000Y-127240001D01*
X39188998Y-127263799D01*
X43511928Y-131586730D01*
X43511928Y-132850000D01*
X43524188Y-132974482D01*
X43560498Y-133094180D01*
X43619463Y-133204494D01*
X43698815Y-133301185D01*
X43795506Y-133380537D01*
X43905820Y-133439502D01*
X44025518Y-133475812D01*
X44150000Y-133488072D01*
X45850000Y-133488072D01*
X45974482Y-133475812D01*
X46094180Y-133439502D01*
X46204494Y-133380537D01*
X46301185Y-133301185D01*
X46380537Y-133204494D01*
X46439502Y-133094180D01*
X46461513Y-133021620D01*
X46593368Y-133153475D01*
X46836589Y-133315990D01*
X47106842Y-133427932D01*
X47393740Y-133485000D01*
X47686260Y-133485000D01*
X47973158Y-133427932D01*
X48243411Y-133315990D01*
X48486632Y-133153475D01*
X48693475Y-132946632D01*
X48810000Y-132772240D01*
X48926525Y-132946632D01*
X49133368Y-133153475D01*
X49376589Y-133315990D01*
X49646842Y-133427932D01*
X49933740Y-133485000D01*
X50226260Y-133485000D01*
X50513158Y-133427932D01*
X50783411Y-133315990D01*
X51026632Y-133153475D01*
X51233475Y-132946632D01*
X51350000Y-132772240D01*
X51466525Y-132946632D01*
X51673368Y-133153475D01*
X51916589Y-133315990D01*
X52186842Y-133427932D01*
X52473740Y-133485000D01*
X52766260Y-133485000D01*
X53053158Y-133427932D01*
X53323411Y-133315990D01*
X53566632Y-133153475D01*
X53773475Y-132946632D01*
X53935990Y-132703411D01*
X54047932Y-132433158D01*
X54105000Y-132146260D01*
X54105000Y-131853740D01*
X54047932Y-131566842D01*
X53935990Y-131296589D01*
X53773475Y-131053368D01*
X53566632Y-130846525D01*
X53323411Y-130684010D01*
X53053158Y-130572068D01*
X52766260Y-130515000D01*
X52473740Y-130515000D01*
X52186842Y-130572068D01*
X51916589Y-130684010D01*
X51673368Y-130846525D01*
X51466525Y-131053368D01*
X51350000Y-131227760D01*
X51233475Y-131053368D01*
X51026632Y-130846525D01*
X50783411Y-130684010D01*
X50513158Y-130572068D01*
X50226260Y-130515000D01*
X49933740Y-130515000D01*
X49646842Y-130572068D01*
X49376589Y-130684010D01*
X49133368Y-130846525D01*
X48926525Y-131053368D01*
X48810000Y-131227760D01*
X48693475Y-131053368D01*
X48486632Y-130846525D01*
X48243411Y-130684010D01*
X47973158Y-130572068D01*
X47686260Y-130515000D01*
X47393740Y-130515000D01*
X47173592Y-130558790D01*
X44263417Y-127648616D01*
X44473501Y-127735635D01*
X44822223Y-127805000D01*
X45177777Y-127805000D01*
X45526499Y-127735635D01*
X45854988Y-127599571D01*
X46150621Y-127402035D01*
X46402035Y-127150621D01*
X46599571Y-126854988D01*
X46735635Y-126526499D01*
X46805000Y-126177777D01*
X46805000Y-125822223D01*
X48195000Y-125822223D01*
X48195000Y-126177777D01*
X48264365Y-126526499D01*
X48400429Y-126854988D01*
X48597965Y-127150621D01*
X48849379Y-127402035D01*
X49145012Y-127599571D01*
X49473501Y-127735635D01*
X49822223Y-127805000D01*
X50177777Y-127805000D01*
X50526499Y-127735635D01*
X50854988Y-127599571D01*
X51150621Y-127402035D01*
X51402035Y-127150621D01*
X51599571Y-126854988D01*
X51735635Y-126526499D01*
X51805000Y-126177777D01*
X51805000Y-125822223D01*
X53195000Y-125822223D01*
X53195000Y-126177777D01*
X53264365Y-126526499D01*
X53400429Y-126854988D01*
X53597965Y-127150621D01*
X53849379Y-127402035D01*
X54145012Y-127599571D01*
X54473501Y-127735635D01*
X54822223Y-127805000D01*
X55177777Y-127805000D01*
X55526499Y-127735635D01*
X55854988Y-127599571D01*
X56150621Y-127402035D01*
X56402035Y-127150621D01*
X56599571Y-126854988D01*
X56735635Y-126526499D01*
X56805000Y-126177777D01*
X56805000Y-125822223D01*
X56735635Y-125473501D01*
X56599571Y-125145012D01*
X56402035Y-124849379D01*
X56150621Y-124597965D01*
X55854988Y-124400429D01*
X55526499Y-124264365D01*
X55177777Y-124195000D01*
X54822223Y-124195000D01*
X54473501Y-124264365D01*
X54145012Y-124400429D01*
X53849379Y-124597965D01*
X53597965Y-124849379D01*
X53400429Y-125145012D01*
X53264365Y-125473501D01*
X53195000Y-125822223D01*
X51805000Y-125822223D01*
X51735635Y-125473501D01*
X51599571Y-125145012D01*
X51402035Y-124849379D01*
X51150621Y-124597965D01*
X50854988Y-124400429D01*
X50526499Y-124264365D01*
X50177777Y-124195000D01*
X49822223Y-124195000D01*
X49473501Y-124264365D01*
X49145012Y-124400429D01*
X48849379Y-124597965D01*
X48597965Y-124849379D01*
X48400429Y-125145012D01*
X48264365Y-125473501D01*
X48195000Y-125822223D01*
X46805000Y-125822223D01*
X46735635Y-125473501D01*
X46599571Y-125145012D01*
X46402035Y-124849379D01*
X46150621Y-124597965D01*
X45854988Y-124400429D01*
X45526499Y-124264365D01*
X45177777Y-124195000D01*
X44822223Y-124195000D01*
X44473501Y-124264365D01*
X44145012Y-124400429D01*
X43849379Y-124597965D01*
X43597965Y-124849379D01*
X43400429Y-125145012D01*
X43264365Y-125473501D01*
X43195000Y-125822223D01*
X43195000Y-126177777D01*
X43264365Y-126526499D01*
X43351384Y-126736583D01*
X42060000Y-125445199D01*
X42060000Y-110657266D01*
X42094454Y-110770848D01*
X42165026Y-110902878D01*
X42204871Y-110951428D01*
X42259999Y-111018603D01*
X42289003Y-111042406D01*
X47208524Y-115961928D01*
X46600000Y-115961928D01*
X46475518Y-115974188D01*
X46355820Y-116010498D01*
X46245506Y-116069463D01*
X46148815Y-116148815D01*
X46069463Y-116245506D01*
X46010498Y-116355820D01*
X45974188Y-116475518D01*
X45961928Y-116600000D01*
X45961928Y-118400000D01*
X45974188Y-118524482D01*
X46010498Y-118644180D01*
X46069463Y-118754494D01*
X46148815Y-118851185D01*
X46245506Y-118930537D01*
X46355820Y-118989502D01*
X46475518Y-119025812D01*
X46600000Y-119038072D01*
X48400000Y-119038072D01*
X48524482Y-119025812D01*
X48644180Y-118989502D01*
X48754494Y-118930537D01*
X48851185Y-118851185D01*
X48930537Y-118754494D01*
X48983880Y-118654697D01*
X49021495Y-118692312D01*
X49272905Y-118860299D01*
X49552257Y-118976011D01*
X49848816Y-119035000D01*
X50151184Y-119035000D01*
X50447743Y-118976011D01*
X50727095Y-118860299D01*
X50978505Y-118692312D01*
X51192312Y-118478505D01*
X51250000Y-118392169D01*
X51307688Y-118478505D01*
X51521495Y-118692312D01*
X51772905Y-118860299D01*
X52052257Y-118976011D01*
X52348816Y-119035000D01*
X52651184Y-119035000D01*
X52947743Y-118976011D01*
X53227095Y-118860299D01*
X53478505Y-118692312D01*
X53692312Y-118478505D01*
X53860299Y-118227095D01*
X53976011Y-117947743D01*
X54035000Y-117651184D01*
X54035000Y-117348816D01*
X53976011Y-117052257D01*
X53860299Y-116772905D01*
X53692312Y-116521495D01*
X53478505Y-116307688D01*
X53227095Y-116139701D01*
X52947743Y-116023989D01*
X52651184Y-115965000D01*
X52348816Y-115965000D01*
X52052257Y-116023989D01*
X51772905Y-116139701D01*
X51521495Y-116307688D01*
X51307688Y-116521495D01*
X51250000Y-116607831D01*
X51192312Y-116521495D01*
X50978505Y-116307688D01*
X50727095Y-116139701D01*
X50447743Y-116023989D01*
X50151184Y-115965000D01*
X49848816Y-115965000D01*
X49591070Y-116016269D01*
X49338803Y-115764002D01*
X49315000Y-115734998D01*
X49199275Y-115640025D01*
X49067246Y-115569453D01*
X48923985Y-115525996D01*
X48922001Y-115525801D01*
X45613189Y-112216990D01*
X45857759Y-112168342D01*
X46268143Y-111998355D01*
X46637479Y-111751573D01*
X46951573Y-111437479D01*
X47198355Y-111068143D01*
X47368342Y-110657759D01*
X47455000Y-110222098D01*
X47455000Y-109777902D01*
X52545000Y-109777902D01*
X52545000Y-110222098D01*
X52631658Y-110657759D01*
X52801645Y-111068143D01*
X53048427Y-111437479D01*
X53362521Y-111751573D01*
X53731857Y-111998355D01*
X54142241Y-112168342D01*
X54577902Y-112255000D01*
X55022098Y-112255000D01*
X55457759Y-112168342D01*
X55868143Y-111998355D01*
X56237479Y-111751573D01*
X56551573Y-111437479D01*
X56798355Y-111068143D01*
X56968342Y-110657759D01*
X57055000Y-110222098D01*
X57055000Y-109777902D01*
X56968342Y-109342241D01*
X56798355Y-108931857D01*
X56551573Y-108562521D01*
X56237479Y-108248427D01*
X55868143Y-108001645D01*
X55457759Y-107831658D01*
X55022098Y-107745000D01*
X54577902Y-107745000D01*
X54142241Y-107831658D01*
X53731857Y-108001645D01*
X53362521Y-108248427D01*
X53048427Y-108562521D01*
X52801645Y-108931857D01*
X52631658Y-109342241D01*
X52545000Y-109777902D01*
X47455000Y-109777902D01*
X47368342Y-109342241D01*
X47198355Y-108931857D01*
X46951573Y-108562521D01*
X46637479Y-108248427D01*
X46268143Y-108001645D01*
X45857759Y-107831658D01*
X45422098Y-107745000D01*
X44977902Y-107745000D01*
X44542241Y-107831658D01*
X44131857Y-108001645D01*
X43762521Y-108248427D01*
X43560000Y-108450948D01*
X43560000Y-101037323D01*
X43563676Y-101000000D01*
X43560000Y-100962677D01*
X43560000Y-100962667D01*
X43549003Y-100851014D01*
X43505546Y-100707753D01*
X43434974Y-100575724D01*
X43340001Y-100459999D01*
X43311003Y-100436201D01*
X39733467Y-96858665D01*
X43565000Y-96858665D01*
X43565000Y-97141335D01*
X43620147Y-97418574D01*
X43728320Y-97679727D01*
X43885363Y-97914759D01*
X44085241Y-98114637D01*
X44320273Y-98271680D01*
X44581426Y-98379853D01*
X44858665Y-98435000D01*
X45141335Y-98435000D01*
X45418574Y-98379853D01*
X45679727Y-98271680D01*
X45914759Y-98114637D01*
X46114637Y-97914759D01*
X46271680Y-97679727D01*
X46379853Y-97418574D01*
X46435000Y-97141335D01*
X46435000Y-96858665D01*
X53725000Y-96858665D01*
X53725000Y-97141335D01*
X53780147Y-97418574D01*
X53888320Y-97679727D01*
X54045363Y-97914759D01*
X54245241Y-98114637D01*
X54480273Y-98271680D01*
X54741426Y-98379853D01*
X55018665Y-98435000D01*
X55301335Y-98435000D01*
X55578574Y-98379853D01*
X55839727Y-98271680D01*
X56074759Y-98114637D01*
X56274637Y-97914759D01*
X56431680Y-97679727D01*
X56539853Y-97418574D01*
X56595000Y-97141335D01*
X56595000Y-96858665D01*
X56539853Y-96581426D01*
X56431680Y-96320273D01*
X56274637Y-96085241D01*
X56074759Y-95885363D01*
X55839727Y-95728320D01*
X55578574Y-95620147D01*
X55301335Y-95565000D01*
X55018665Y-95565000D01*
X54741426Y-95620147D01*
X54480273Y-95728320D01*
X54245241Y-95885363D01*
X54045363Y-96085241D01*
X53888320Y-96320273D01*
X53780147Y-96581426D01*
X53725000Y-96858665D01*
X46435000Y-96858665D01*
X46379853Y-96581426D01*
X46271680Y-96320273D01*
X46114637Y-96085241D01*
X45914759Y-95885363D01*
X45679727Y-95728320D01*
X45418574Y-95620147D01*
X45141335Y-95565000D01*
X44858665Y-95565000D01*
X44581426Y-95620147D01*
X44320273Y-95728320D01*
X44085241Y-95885363D01*
X43885363Y-96085241D01*
X43728320Y-96320273D01*
X43620147Y-96581426D01*
X43565000Y-96858665D01*
X39733467Y-96858665D01*
X37160000Y-94285199D01*
X37160000Y-90822223D01*
X43195000Y-90822223D01*
X43195000Y-91177777D01*
X43264365Y-91526499D01*
X43400429Y-91854988D01*
X43597965Y-92150621D01*
X43849379Y-92402035D01*
X44145012Y-92599571D01*
X44473501Y-92735635D01*
X44822223Y-92805000D01*
X45177777Y-92805000D01*
X45526499Y-92735635D01*
X45854988Y-92599571D01*
X46150621Y-92402035D01*
X46402035Y-92150621D01*
X46599571Y-91854988D01*
X46735635Y-91526499D01*
X46805000Y-91177777D01*
X46805000Y-90822223D01*
X48195000Y-90822223D01*
X48195000Y-91177777D01*
X48264365Y-91526499D01*
X48400429Y-91854988D01*
X48597965Y-92150621D01*
X48849379Y-92402035D01*
X49145012Y-92599571D01*
X49473501Y-92735635D01*
X49822223Y-92805000D01*
X50177777Y-92805000D01*
X50526499Y-92735635D01*
X50854988Y-92599571D01*
X51150621Y-92402035D01*
X51402035Y-92150621D01*
X51599571Y-91854988D01*
X51735635Y-91526499D01*
X51805000Y-91177777D01*
X51805000Y-90822223D01*
X53195000Y-90822223D01*
X53195000Y-91177777D01*
X53264365Y-91526499D01*
X53400429Y-91854988D01*
X53597965Y-92150621D01*
X53849379Y-92402035D01*
X54145012Y-92599571D01*
X54473501Y-92735635D01*
X54822223Y-92805000D01*
X55177777Y-92805000D01*
X55526499Y-92735635D01*
X55854988Y-92599571D01*
X56150621Y-92402035D01*
X56402035Y-92150621D01*
X56599571Y-91854988D01*
X56735635Y-91526499D01*
X56805000Y-91177777D01*
X56805000Y-90822223D01*
X56735635Y-90473501D01*
X56599571Y-90145012D01*
X56402035Y-89849379D01*
X56150621Y-89597965D01*
X55854988Y-89400429D01*
X55526499Y-89264365D01*
X55177777Y-89195000D01*
X54822223Y-89195000D01*
X54473501Y-89264365D01*
X54145012Y-89400429D01*
X53849379Y-89597965D01*
X53597965Y-89849379D01*
X53400429Y-90145012D01*
X53264365Y-90473501D01*
X53195000Y-90822223D01*
X51805000Y-90822223D01*
X51735635Y-90473501D01*
X51599571Y-90145012D01*
X51402035Y-89849379D01*
X51150621Y-89597965D01*
X50854988Y-89400429D01*
X50526499Y-89264365D01*
X50177777Y-89195000D01*
X49822223Y-89195000D01*
X49473501Y-89264365D01*
X49145012Y-89400429D01*
X48849379Y-89597965D01*
X48597965Y-89849379D01*
X48400429Y-90145012D01*
X48264365Y-90473501D01*
X48195000Y-90822223D01*
X46805000Y-90822223D01*
X46735635Y-90473501D01*
X46599571Y-90145012D01*
X46402035Y-89849379D01*
X46150621Y-89597965D01*
X45854988Y-89400429D01*
X45526499Y-89264365D01*
X45177777Y-89195000D01*
X44822223Y-89195000D01*
X44473501Y-89264365D01*
X44145012Y-89400429D01*
X43849379Y-89597965D01*
X43597965Y-89849379D01*
X43400429Y-90145012D01*
X43264365Y-90473501D01*
X43195000Y-90822223D01*
X37160000Y-90822223D01*
X37160000Y-81600000D01*
X45961928Y-81600000D01*
X45961928Y-83400000D01*
X45974188Y-83524482D01*
X46010498Y-83644180D01*
X46069463Y-83754494D01*
X46148815Y-83851185D01*
X46245506Y-83930537D01*
X46355820Y-83989502D01*
X46475518Y-84025812D01*
X46600000Y-84038072D01*
X48400000Y-84038072D01*
X48524482Y-84025812D01*
X48644180Y-83989502D01*
X48754494Y-83930537D01*
X48851185Y-83851185D01*
X48930537Y-83754494D01*
X48983880Y-83654697D01*
X49021495Y-83692312D01*
X49272905Y-83860299D01*
X49552257Y-83976011D01*
X49848816Y-84035000D01*
X50151184Y-84035000D01*
X50447743Y-83976011D01*
X50727095Y-83860299D01*
X50978505Y-83692312D01*
X51192312Y-83478505D01*
X51250000Y-83392169D01*
X51307688Y-83478505D01*
X51521495Y-83692312D01*
X51772905Y-83860299D01*
X52052257Y-83976011D01*
X52348816Y-84035000D01*
X52651184Y-84035000D01*
X52947743Y-83976011D01*
X53227095Y-83860299D01*
X53478505Y-83692312D01*
X53692312Y-83478505D01*
X53860299Y-83227095D01*
X53976011Y-82947743D01*
X54035000Y-82651184D01*
X54035000Y-82348816D01*
X53976011Y-82052257D01*
X53860299Y-81772905D01*
X53692312Y-81521495D01*
X53478505Y-81307688D01*
X53227095Y-81139701D01*
X52947743Y-81023989D01*
X52651184Y-80965000D01*
X52348816Y-80965000D01*
X52052257Y-81023989D01*
X51772905Y-81139701D01*
X51521495Y-81307688D01*
X51307688Y-81521495D01*
X51250000Y-81607831D01*
X51192312Y-81521495D01*
X50978505Y-81307688D01*
X50727095Y-81139701D01*
X50447743Y-81023989D01*
X50151184Y-80965000D01*
X49848816Y-80965000D01*
X49552257Y-81023989D01*
X49272905Y-81139701D01*
X49021495Y-81307688D01*
X48983880Y-81345303D01*
X48930537Y-81245506D01*
X48851185Y-81148815D01*
X48754494Y-81069463D01*
X48644180Y-81010498D01*
X48524482Y-80974188D01*
X48400000Y-80961928D01*
X46600000Y-80961928D01*
X46475518Y-80974188D01*
X46355820Y-81010498D01*
X46245506Y-81069463D01*
X46148815Y-81148815D01*
X46069463Y-81245506D01*
X46010498Y-81355820D01*
X45974188Y-81475518D01*
X45961928Y-81600000D01*
X37160000Y-81600000D01*
X37160000Y-75907333D01*
X37163677Y-75870000D01*
X37149003Y-75721014D01*
X37105546Y-75577753D01*
X37034974Y-75445724D01*
X36963799Y-75358997D01*
X36940001Y-75329999D01*
X36911003Y-75306201D01*
X36382704Y-74777902D01*
X42945000Y-74777902D01*
X42945000Y-75222098D01*
X43031658Y-75657759D01*
X43201645Y-76068143D01*
X43448427Y-76437479D01*
X43762521Y-76751573D01*
X44131857Y-76998355D01*
X44542241Y-77168342D01*
X44977902Y-77255000D01*
X45422098Y-77255000D01*
X45857759Y-77168342D01*
X46268143Y-76998355D01*
X46637479Y-76751573D01*
X46951573Y-76437479D01*
X47198355Y-76068143D01*
X47368342Y-75657759D01*
X47455000Y-75222098D01*
X47455000Y-74777902D01*
X52545000Y-74777902D01*
X52545000Y-75222098D01*
X52631658Y-75657759D01*
X52801645Y-76068143D01*
X53048427Y-76437479D01*
X53362521Y-76751573D01*
X53731857Y-76998355D01*
X54142241Y-77168342D01*
X54577902Y-77255000D01*
X55022098Y-77255000D01*
X55457759Y-77168342D01*
X55868143Y-76998355D01*
X56237479Y-76751573D01*
X56551573Y-76437479D01*
X56798355Y-76068143D01*
X56968342Y-75657759D01*
X57055000Y-75222098D01*
X57055000Y-74777902D01*
X56968342Y-74342241D01*
X56798355Y-73931857D01*
X56551573Y-73562521D01*
X56237479Y-73248427D01*
X55868143Y-73001645D01*
X55457759Y-72831658D01*
X55022098Y-72745000D01*
X54577902Y-72745000D01*
X54142241Y-72831658D01*
X53731857Y-73001645D01*
X53362521Y-73248427D01*
X53048427Y-73562521D01*
X52801645Y-73931857D01*
X52631658Y-74342241D01*
X52545000Y-74777902D01*
X47455000Y-74777902D01*
X47368342Y-74342241D01*
X47198355Y-73931857D01*
X46951573Y-73562521D01*
X46637479Y-73248427D01*
X46268143Y-73001645D01*
X45857759Y-72831658D01*
X45422098Y-72745000D01*
X44977902Y-72745000D01*
X44542241Y-72831658D01*
X44131857Y-73001645D01*
X43762521Y-73248427D01*
X43448427Y-73562521D01*
X43201645Y-73931857D01*
X43031658Y-74342241D01*
X42945000Y-74777902D01*
X36382704Y-74777902D01*
X32817128Y-71212327D01*
X32931031Y-70937341D01*
X33015000Y-70515204D01*
X33015000Y-70084796D01*
X32931031Y-69662659D01*
X32766322Y-69265015D01*
X32527200Y-68907144D01*
X32222856Y-68602800D01*
X31864985Y-68363678D01*
X31467341Y-68198969D01*
X31045204Y-68115000D01*
X30614796Y-68115000D01*
X30192659Y-68198969D01*
X29795015Y-68363678D01*
X29437144Y-68602800D01*
X29132800Y-68907144D01*
X28893678Y-69265015D01*
X28728969Y-69662659D01*
X28660000Y-70009387D01*
X28660000Y-67414801D01*
X30011004Y-66063798D01*
X30040001Y-66040001D01*
X30134974Y-65924276D01*
X30205546Y-65792247D01*
X30249003Y-65648986D01*
X30260000Y-65537333D01*
X30260000Y-65537325D01*
X30263676Y-65500000D01*
X30260000Y-65462675D01*
X30260000Y-60858665D01*
X43565000Y-60858665D01*
X43565000Y-61141335D01*
X43620147Y-61418574D01*
X43728320Y-61679727D01*
X43885363Y-61914759D01*
X44085241Y-62114637D01*
X44320273Y-62271680D01*
X44581426Y-62379853D01*
X44858665Y-62435000D01*
X45141335Y-62435000D01*
X45418574Y-62379853D01*
X45679727Y-62271680D01*
X45914759Y-62114637D01*
X46114637Y-61914759D01*
X46271680Y-61679727D01*
X46379853Y-61418574D01*
X46435000Y-61141335D01*
X46435000Y-60858665D01*
X53725000Y-60858665D01*
X53725000Y-61141335D01*
X53780147Y-61418574D01*
X53888320Y-61679727D01*
X54045363Y-61914759D01*
X54245241Y-62114637D01*
X54480273Y-62271680D01*
X54741426Y-62379853D01*
X55018665Y-62435000D01*
X55301335Y-62435000D01*
X55578574Y-62379853D01*
X55839727Y-62271680D01*
X56074759Y-62114637D01*
X56274637Y-61914759D01*
X56431680Y-61679727D01*
X56539853Y-61418574D01*
X56595000Y-61141335D01*
X56595000Y-60858665D01*
X56539853Y-60581426D01*
X56431680Y-60320273D01*
X56274637Y-60085241D01*
X56074759Y-59885363D01*
X55839727Y-59728320D01*
X55578574Y-59620147D01*
X55301335Y-59565000D01*
X55018665Y-59565000D01*
X54741426Y-59620147D01*
X54480273Y-59728320D01*
X54245241Y-59885363D01*
X54045363Y-60085241D01*
X53888320Y-60320273D01*
X53780147Y-60581426D01*
X53725000Y-60858665D01*
X46435000Y-60858665D01*
X46379853Y-60581426D01*
X46271680Y-60320273D01*
X46114637Y-60085241D01*
X45914759Y-59885363D01*
X45679727Y-59728320D01*
X45418574Y-59620147D01*
X45141335Y-59565000D01*
X44858665Y-59565000D01*
X44581426Y-59620147D01*
X44320273Y-59728320D01*
X44085241Y-59885363D01*
X43885363Y-60085241D01*
X43728320Y-60320273D01*
X43620147Y-60581426D01*
X43565000Y-60858665D01*
X30260000Y-60858665D01*
X30260000Y-55822223D01*
X43195000Y-55822223D01*
X43195000Y-56177777D01*
X43264365Y-56526499D01*
X43400429Y-56854988D01*
X43597965Y-57150621D01*
X43849379Y-57402035D01*
X44145012Y-57599571D01*
X44473501Y-57735635D01*
X44822223Y-57805000D01*
X45177777Y-57805000D01*
X45526499Y-57735635D01*
X45854988Y-57599571D01*
X46150621Y-57402035D01*
X46402035Y-57150621D01*
X46599571Y-56854988D01*
X46735635Y-56526499D01*
X46805000Y-56177777D01*
X46805000Y-55822223D01*
X48195000Y-55822223D01*
X48195000Y-56177777D01*
X48264365Y-56526499D01*
X48400429Y-56854988D01*
X48597965Y-57150621D01*
X48849379Y-57402035D01*
X49145012Y-57599571D01*
X49473501Y-57735635D01*
X49822223Y-57805000D01*
X50177777Y-57805000D01*
X50526499Y-57735635D01*
X50854988Y-57599571D01*
X51150621Y-57402035D01*
X51402035Y-57150621D01*
X51599571Y-56854988D01*
X51735635Y-56526499D01*
X51805000Y-56177777D01*
X51805000Y-55822223D01*
X53195000Y-55822223D01*
X53195000Y-56177777D01*
X53264365Y-56526499D01*
X53400429Y-56854988D01*
X53597965Y-57150621D01*
X53849379Y-57402035D01*
X54145012Y-57599571D01*
X54473501Y-57735635D01*
X54822223Y-57805000D01*
X55177777Y-57805000D01*
X55526499Y-57735635D01*
X55854988Y-57599571D01*
X56150621Y-57402035D01*
X56402035Y-57150621D01*
X56599571Y-56854988D01*
X56735635Y-56526499D01*
X56805000Y-56177777D01*
X56805000Y-55822223D01*
X56735635Y-55473501D01*
X56599571Y-55145012D01*
X56402035Y-54849379D01*
X56150621Y-54597965D01*
X55854988Y-54400429D01*
X55526499Y-54264365D01*
X55177777Y-54195000D01*
X54822223Y-54195000D01*
X54473501Y-54264365D01*
X54145012Y-54400429D01*
X53849379Y-54597965D01*
X53597965Y-54849379D01*
X53400429Y-55145012D01*
X53264365Y-55473501D01*
X53195000Y-55822223D01*
X51805000Y-55822223D01*
X51735635Y-55473501D01*
X51599571Y-55145012D01*
X51402035Y-54849379D01*
X51150621Y-54597965D01*
X50854988Y-54400429D01*
X50526499Y-54264365D01*
X50177777Y-54195000D01*
X49822223Y-54195000D01*
X49473501Y-54264365D01*
X49145012Y-54400429D01*
X48849379Y-54597965D01*
X48597965Y-54849379D01*
X48400429Y-55145012D01*
X48264365Y-55473501D01*
X48195000Y-55822223D01*
X46805000Y-55822223D01*
X46735635Y-55473501D01*
X46599571Y-55145012D01*
X46402035Y-54849379D01*
X46150621Y-54597965D01*
X45854988Y-54400429D01*
X45526499Y-54264365D01*
X45177777Y-54195000D01*
X44822223Y-54195000D01*
X44473501Y-54264365D01*
X44145012Y-54400429D01*
X43849379Y-54597965D01*
X43597965Y-54849379D01*
X43400429Y-55145012D01*
X43264365Y-55473501D01*
X43195000Y-55822223D01*
X30260000Y-55822223D01*
X30260000Y-53738801D01*
X37398801Y-46600000D01*
X45961928Y-46600000D01*
X45961928Y-48400000D01*
X45974188Y-48524482D01*
X46010498Y-48644180D01*
X46069463Y-48754494D01*
X46148815Y-48851185D01*
X46245506Y-48930537D01*
X46355820Y-48989502D01*
X46475518Y-49025812D01*
X46600000Y-49038072D01*
X48400000Y-49038072D01*
X48524482Y-49025812D01*
X48644180Y-48989502D01*
X48754494Y-48930537D01*
X48851185Y-48851185D01*
X48930537Y-48754494D01*
X48983880Y-48654697D01*
X49021495Y-48692312D01*
X49272905Y-48860299D01*
X49552257Y-48976011D01*
X49848816Y-49035000D01*
X50151184Y-49035000D01*
X50447743Y-48976011D01*
X50727095Y-48860299D01*
X50978505Y-48692312D01*
X51192312Y-48478505D01*
X51250000Y-48392169D01*
X51307688Y-48478505D01*
X51521495Y-48692312D01*
X51772905Y-48860299D01*
X52052257Y-48976011D01*
X52348816Y-49035000D01*
X52651184Y-49035000D01*
X52947743Y-48976011D01*
X53227095Y-48860299D01*
X53478505Y-48692312D01*
X53692312Y-48478505D01*
X53860299Y-48227095D01*
X53976011Y-47947743D01*
X54035000Y-47651184D01*
X54035000Y-47348816D01*
X53976011Y-47052257D01*
X53860299Y-46772905D01*
X53692312Y-46521495D01*
X53478505Y-46307688D01*
X53227095Y-46139701D01*
X52947743Y-46023989D01*
X52651184Y-45965000D01*
X52348816Y-45965000D01*
X52052257Y-46023989D01*
X51772905Y-46139701D01*
X51521495Y-46307688D01*
X51307688Y-46521495D01*
X51250000Y-46607831D01*
X51192312Y-46521495D01*
X50978505Y-46307688D01*
X50727095Y-46139701D01*
X50447743Y-46023989D01*
X50151184Y-45965000D01*
X49848816Y-45965000D01*
X49552257Y-46023989D01*
X49272905Y-46139701D01*
X49021495Y-46307688D01*
X48983880Y-46345303D01*
X48930537Y-46245506D01*
X48851185Y-46148815D01*
X48754494Y-46069463D01*
X48644180Y-46010498D01*
X48524482Y-45974188D01*
X48400000Y-45961928D01*
X46600000Y-45961928D01*
X46475518Y-45974188D01*
X46355820Y-46010498D01*
X46245506Y-46069463D01*
X46148815Y-46148815D01*
X46069463Y-46245506D01*
X46010498Y-46355820D01*
X45974188Y-46475518D01*
X45961928Y-46600000D01*
X37398801Y-46600000D01*
X41751004Y-42247798D01*
X41780001Y-42224001D01*
X41874974Y-42108276D01*
X41945546Y-41976247D01*
X41989003Y-41832986D01*
X42000000Y-41721333D01*
X42000000Y-41721324D01*
X42003676Y-41684001D01*
X42000000Y-41646678D01*
X42000000Y-39777902D01*
X42945000Y-39777902D01*
X42945000Y-40222098D01*
X43031658Y-40657759D01*
X43201645Y-41068143D01*
X43448427Y-41437479D01*
X43762521Y-41751573D01*
X44131857Y-41998355D01*
X44542241Y-42168342D01*
X44977902Y-42255000D01*
X45422098Y-42255000D01*
X45857759Y-42168342D01*
X46268143Y-41998355D01*
X46637479Y-41751573D01*
X46951573Y-41437479D01*
X47198355Y-41068143D01*
X47368342Y-40657759D01*
X47455000Y-40222098D01*
X47455000Y-39777902D01*
X52545000Y-39777902D01*
X52545000Y-40222098D01*
X52631658Y-40657759D01*
X52801645Y-41068143D01*
X53048427Y-41437479D01*
X53362521Y-41751573D01*
X53731857Y-41998355D01*
X54142241Y-42168342D01*
X54577902Y-42255000D01*
X55022098Y-42255000D01*
X55457759Y-42168342D01*
X55868143Y-41998355D01*
X56237479Y-41751573D01*
X56551573Y-41437479D01*
X56798355Y-41068143D01*
X56968342Y-40657759D01*
X57055000Y-40222098D01*
X57055000Y-39777902D01*
X56968342Y-39342241D01*
X56798355Y-38931857D01*
X56551573Y-38562521D01*
X56237479Y-38248427D01*
X55868143Y-38001645D01*
X55457759Y-37831658D01*
X55022098Y-37745000D01*
X54577902Y-37745000D01*
X54142241Y-37831658D01*
X53731857Y-38001645D01*
X53362521Y-38248427D01*
X53048427Y-38562521D01*
X52801645Y-38931857D01*
X52631658Y-39342241D01*
X52545000Y-39777902D01*
X47455000Y-39777902D01*
X47368342Y-39342241D01*
X47198355Y-38931857D01*
X46951573Y-38562521D01*
X46637479Y-38248427D01*
X46268143Y-38001645D01*
X45857759Y-37831658D01*
X45422098Y-37745000D01*
X44977902Y-37745000D01*
X44542241Y-37831658D01*
X44131857Y-38001645D01*
X43762521Y-38248427D01*
X43448427Y-38562521D01*
X43201645Y-38931857D01*
X43031658Y-39342241D01*
X42945000Y-39777902D01*
X42000000Y-39777902D01*
X42000000Y-24278178D01*
X42186632Y-24153475D01*
X42393475Y-23946632D01*
X42510000Y-23772240D01*
X42626525Y-23946632D01*
X42833368Y-24153475D01*
X43076589Y-24315990D01*
X43346842Y-24427932D01*
X43633740Y-24485000D01*
X43926260Y-24485000D01*
X44213158Y-24427932D01*
X44483411Y-24315990D01*
X44726632Y-24153475D01*
X44933475Y-23946632D01*
X45050000Y-23772240D01*
X45166525Y-23946632D01*
X45373368Y-24153475D01*
X45616589Y-24315990D01*
X45886842Y-24427932D01*
X46173740Y-24485000D01*
X46466260Y-24485000D01*
X46753158Y-24427932D01*
X47023411Y-24315990D01*
X47266632Y-24153475D01*
X47473475Y-23946632D01*
X47635990Y-23703411D01*
X47747932Y-23433158D01*
X47805000Y-23146260D01*
X47805000Y-22853740D01*
X47790307Y-22779872D01*
X54765000Y-22779872D01*
X54765000Y-23220128D01*
X54850890Y-23651925D01*
X55019369Y-24058669D01*
X55263962Y-24424729D01*
X55575271Y-24736038D01*
X55941331Y-24980631D01*
X56348075Y-25149110D01*
X56779872Y-25235000D01*
X57220128Y-25235000D01*
X57651925Y-25149110D01*
X58058669Y-24980631D01*
X58424729Y-24736038D01*
X58736038Y-24424729D01*
X58980631Y-24058669D01*
X59149110Y-23651925D01*
X59235000Y-23220128D01*
X59235000Y-22779872D01*
X59149110Y-22348075D01*
X58980631Y-21941331D01*
X58736038Y-21575271D01*
X58424729Y-21263962D01*
X58058669Y-21019369D01*
X57651925Y-20850890D01*
X57220128Y-20765000D01*
X56779872Y-20765000D01*
X56348075Y-20850890D01*
X55941331Y-21019369D01*
X55575271Y-21263962D01*
X55263962Y-21575271D01*
X55019369Y-21941331D01*
X54850890Y-22348075D01*
X54765000Y-22779872D01*
X47790307Y-22779872D01*
X47747932Y-22566842D01*
X47635990Y-22296589D01*
X47473475Y-22053368D01*
X47266632Y-21846525D01*
X47023411Y-21684010D01*
X46753158Y-21572068D01*
X46466260Y-21515000D01*
X46173740Y-21515000D01*
X45886842Y-21572068D01*
X45616589Y-21684010D01*
X45373368Y-21846525D01*
X45166525Y-22053368D01*
X45050000Y-22227760D01*
X44933475Y-22053368D01*
X44726632Y-21846525D01*
X44483411Y-21684010D01*
X44213158Y-21572068D01*
X43926260Y-21515000D01*
X43633740Y-21515000D01*
X43346842Y-21572068D01*
X43076589Y-21684010D01*
X42833368Y-21846525D01*
X42626525Y-22053368D01*
X42510000Y-22227760D01*
X42393475Y-22053368D01*
X42186632Y-21846525D01*
X41943411Y-21684010D01*
X41673158Y-21572068D01*
X41386260Y-21515000D01*
X41093740Y-21515000D01*
X40806842Y-21572068D01*
X40536589Y-21684010D01*
X40293368Y-21846525D01*
X40086525Y-22053368D01*
X39970000Y-22227760D01*
X39853475Y-22053368D01*
X39646632Y-21846525D01*
X39403411Y-21684010D01*
X39133158Y-21572068D01*
X38846260Y-21515000D01*
X38553740Y-21515000D01*
X38266842Y-21572068D01*
X37996589Y-21684010D01*
X37753368Y-21846525D01*
X37546525Y-22053368D01*
X37430000Y-22227760D01*
X37313475Y-22053368D01*
X37106632Y-21846525D01*
X36863411Y-21684010D01*
X36593158Y-21572068D01*
X36306260Y-21515000D01*
X36013740Y-21515000D01*
X35726842Y-21572068D01*
X35456589Y-21684010D01*
X35213368Y-21846525D01*
X35006525Y-22053368D01*
X34890000Y-22227760D01*
X34773475Y-22053368D01*
X34566632Y-21846525D01*
X34323411Y-21684010D01*
X34053158Y-21572068D01*
X33766260Y-21515000D01*
X33473740Y-21515000D01*
X33186842Y-21572068D01*
X32916589Y-21684010D01*
X32673368Y-21846525D01*
X32466525Y-22053368D01*
X32350000Y-22227760D01*
X32233475Y-22053368D01*
X32026632Y-21846525D01*
X31783411Y-21684010D01*
X31513158Y-21572068D01*
X31226260Y-21515000D01*
X30933740Y-21515000D01*
X30646842Y-21572068D01*
X30376589Y-21684010D01*
X30133368Y-21846525D01*
X29926525Y-22053368D01*
X29810000Y-22227760D01*
X29693475Y-22053368D01*
X29486632Y-21846525D01*
X29243411Y-21684010D01*
X28973158Y-21572068D01*
X28686260Y-21515000D01*
X28393740Y-21515000D01*
X28106842Y-21572068D01*
X27836589Y-21684010D01*
X27593368Y-21846525D01*
X27386525Y-22053368D01*
X27270000Y-22227760D01*
X27153475Y-22053368D01*
X26946632Y-21846525D01*
X26703411Y-21684010D01*
X26433158Y-21572068D01*
X26146260Y-21515000D01*
X25853740Y-21515000D01*
X25566842Y-21572068D01*
X25296589Y-21684010D01*
X25053368Y-21846525D01*
X24921513Y-21978380D01*
X24899502Y-21905820D01*
X24840537Y-21795506D01*
X24761185Y-21698815D01*
X24664494Y-21619463D01*
X24554180Y-21560498D01*
X24434482Y-21524188D01*
X24310000Y-21511928D01*
X23745750Y-21515000D01*
X23587000Y-21673750D01*
X23587000Y-22873000D01*
X23607000Y-22873000D01*
X23607000Y-23127000D01*
X23587000Y-23127000D01*
X23587000Y-24326250D01*
X23745750Y-24485000D01*
X24310000Y-24488072D01*
X24434482Y-24475812D01*
X24554180Y-24439502D01*
X24664494Y-24380537D01*
X24761185Y-24301185D01*
X24840537Y-24204494D01*
X24899502Y-24094180D01*
X24921513Y-24021620D01*
X25053368Y-24153475D01*
X25296589Y-24315990D01*
X25566842Y-24427932D01*
X25853740Y-24485000D01*
X26146260Y-24485000D01*
X26433158Y-24427932D01*
X26703411Y-24315990D01*
X26946632Y-24153475D01*
X27153475Y-23946632D01*
X27270000Y-23772240D01*
X27386525Y-23946632D01*
X27593368Y-24153475D01*
X27836589Y-24315990D01*
X28106842Y-24427932D01*
X28393740Y-24485000D01*
X28686260Y-24485000D01*
X28973158Y-24427932D01*
X29243411Y-24315990D01*
X29486632Y-24153475D01*
X29693475Y-23946632D01*
X29810000Y-23772240D01*
X29926525Y-23946632D01*
X30133368Y-24153475D01*
X30376589Y-24315990D01*
X30646842Y-24427932D01*
X30933740Y-24485000D01*
X31226260Y-24485000D01*
X31513158Y-24427932D01*
X31783411Y-24315990D01*
X32026632Y-24153475D01*
X32233475Y-23946632D01*
X32350000Y-23772240D01*
X32466525Y-23946632D01*
X32673368Y-24153475D01*
X32860000Y-24278179D01*
X32860001Y-41115197D01*
X23074003Y-50901196D01*
X23044999Y-50924999D01*
X22989871Y-50992174D01*
X22950026Y-51040724D01*
X22879455Y-51172753D01*
X22879454Y-51172754D01*
X22835997Y-51316015D01*
X22825000Y-51427668D01*
X22825000Y-51427678D01*
X22821324Y-51465000D01*
X22825000Y-51502322D01*
X22825001Y-64700197D01*
X17889003Y-69636196D01*
X17859999Y-69659999D01*
X17804871Y-69727174D01*
X17765026Y-69775724D01*
X17711575Y-69875724D01*
X17694454Y-69907754D01*
X17650997Y-70051015D01*
X17640000Y-70162668D01*
X17640000Y-70162678D01*
X17636324Y-70200000D01*
X17640000Y-70237323D01*
X17640001Y-76892668D01*
X17636324Y-76930000D01*
X17650998Y-77078985D01*
X17694454Y-77222246D01*
X17765026Y-77354276D01*
X17836201Y-77441002D01*
X17860000Y-77470001D01*
X17888998Y-77493799D01*
X19182872Y-78787673D01*
X19068969Y-79062659D01*
X18985000Y-79484796D01*
X18985000Y-79915204D01*
X19068969Y-80337341D01*
X19233678Y-80734985D01*
X19472800Y-81092856D01*
X19777144Y-81397200D01*
X20135015Y-81636322D01*
X20532659Y-81801031D01*
X20954796Y-81885000D01*
X21385204Y-81885000D01*
X21807341Y-81801031D01*
X22204985Y-81636322D01*
X22562856Y-81397200D01*
X22867200Y-81092856D01*
X23106322Y-80734985D01*
X23271031Y-80337341D01*
X23355000Y-79915204D01*
X23355000Y-79484796D01*
X23271031Y-79062659D01*
X23106322Y-78665015D01*
X22867200Y-78307144D01*
X22562856Y-78002800D01*
X22204985Y-77763678D01*
X21807341Y-77598969D01*
X21385204Y-77515000D01*
X20954796Y-77515000D01*
X20532659Y-77598969D01*
X20257673Y-77712872D01*
X19160000Y-76615199D01*
X19160000Y-75857110D01*
X19233678Y-76034985D01*
X19472800Y-76392856D01*
X19777144Y-76697200D01*
X20135015Y-76936322D01*
X20532659Y-77101031D01*
X20954796Y-77185000D01*
X21385204Y-77185000D01*
X21807341Y-77101031D01*
X22204985Y-76936322D01*
X22562856Y-76697200D01*
X22867200Y-76392856D01*
X23106322Y-76034985D01*
X23271031Y-75637341D01*
X23340001Y-75290610D01*
X23340001Y-77762668D01*
X23336324Y-77800000D01*
X23350998Y-77948985D01*
X23394454Y-78092246D01*
X23465026Y-78224276D01*
X23533035Y-78307144D01*
X23560000Y-78340001D01*
X23588998Y-78363799D01*
X24012872Y-78787673D01*
X23898969Y-79062659D01*
X23815000Y-79484796D01*
X23815000Y-79915204D01*
X23898969Y-80337341D01*
X24063678Y-80734985D01*
X24302800Y-81092856D01*
X24607144Y-81397200D01*
X24965015Y-81636322D01*
X25362659Y-81801031D01*
X25784796Y-81885000D01*
X26215204Y-81885000D01*
X26637341Y-81801031D01*
X27034985Y-81636322D01*
X27392856Y-81397200D01*
X27697200Y-81092856D01*
X27936322Y-80734985D01*
X28101031Y-80337341D01*
X28185000Y-79915204D01*
X28185000Y-79484796D01*
X28101031Y-79062659D01*
X27936322Y-78665015D01*
X27697200Y-78307144D01*
X27392856Y-78002800D01*
X27034985Y-77763678D01*
X26637341Y-77598969D01*
X26215204Y-77515000D01*
X25784796Y-77515000D01*
X25362659Y-77598969D01*
X25087673Y-77712872D01*
X24860000Y-77485199D01*
X24860000Y-76866153D01*
X24965015Y-76936322D01*
X25362659Y-77101031D01*
X25784796Y-77185000D01*
X26215204Y-77185000D01*
X26637341Y-77101031D01*
X27034985Y-76936322D01*
X27392856Y-76697200D01*
X27697200Y-76392856D01*
X27936322Y-76034985D01*
X28101031Y-75637341D01*
X28185000Y-75215204D01*
X28185000Y-74784796D01*
X28101031Y-74362659D01*
X27987129Y-74087673D01*
X28411004Y-73663798D01*
X28440001Y-73640001D01*
X28534974Y-73524276D01*
X28605546Y-73392247D01*
X28649003Y-73248986D01*
X28660000Y-73137333D01*
X28660000Y-73137325D01*
X28663676Y-73100000D01*
X28660000Y-73062675D01*
X28660000Y-70590613D01*
X28728969Y-70937341D01*
X28893678Y-71334985D01*
X29132800Y-71692856D01*
X29437144Y-71997200D01*
X29795015Y-72236322D01*
X30192659Y-72401031D01*
X30614796Y-72485000D01*
X31045204Y-72485000D01*
X31467341Y-72401031D01*
X31742327Y-72287128D01*
X35640001Y-76184803D01*
X35640001Y-78729999D01*
X35611004Y-78706202D01*
X32817128Y-75912327D01*
X32931031Y-75637341D01*
X33015000Y-75215204D01*
X33015000Y-74784796D01*
X32931031Y-74362659D01*
X32766322Y-73965015D01*
X32527200Y-73607144D01*
X32222856Y-73302800D01*
X31864985Y-73063678D01*
X31467341Y-72898969D01*
X31045204Y-72815000D01*
X30614796Y-72815000D01*
X30192659Y-72898969D01*
X29795015Y-73063678D01*
X29437144Y-73302800D01*
X29132800Y-73607144D01*
X28893678Y-73965015D01*
X28728969Y-74362659D01*
X28645000Y-74784796D01*
X28645000Y-75215204D01*
X28728969Y-75637341D01*
X28893678Y-76034985D01*
X29132800Y-76392856D01*
X29437144Y-76697200D01*
X29795015Y-76936322D01*
X30192659Y-77101031D01*
X30614796Y-77185000D01*
X31045204Y-77185000D01*
X31467341Y-77101031D01*
X31742327Y-76987128D01*
X34340000Y-79584802D01*
X34340000Y-82291335D01*
X34305546Y-82177753D01*
X34234974Y-82045724D01*
X34163799Y-81958997D01*
X34140001Y-81929999D01*
X34111004Y-81906202D01*
X32817128Y-80612327D01*
X32931031Y-80337341D01*
X33015000Y-79915204D01*
X33015000Y-79484796D01*
X32931031Y-79062659D01*
X32766322Y-78665015D01*
X32527200Y-78307144D01*
X32222856Y-78002800D01*
X31864985Y-77763678D01*
X31467341Y-77598969D01*
X31045204Y-77515000D01*
X30614796Y-77515000D01*
X30192659Y-77598969D01*
X29795015Y-77763678D01*
X29437144Y-78002800D01*
X29132800Y-78307144D01*
X28893678Y-78665015D01*
X28728969Y-79062659D01*
X28645000Y-79484796D01*
X28645000Y-79915204D01*
X28728969Y-80337341D01*
X28893678Y-80734985D01*
X29132800Y-81092856D01*
X29437144Y-81397200D01*
X29795015Y-81636322D01*
X30192659Y-81801031D01*
X30614796Y-81885000D01*
X31045204Y-81885000D01*
X31467341Y-81801031D01*
X31742327Y-81687128D01*
X32840000Y-82784802D01*
X32840001Y-95032324D01*
X32836324Y-95069656D01*
X32850998Y-95218641D01*
X32894454Y-95361902D01*
X32965026Y-95493932D01*
X33023351Y-95565000D01*
X33060000Y-95609657D01*
X33088998Y-95633455D01*
X36770542Y-99315000D01*
X16685000Y-99315000D01*
X16685000Y-96779872D01*
X16765000Y-96779872D01*
X16765000Y-97220128D01*
X16850890Y-97651925D01*
X17019369Y-98058669D01*
X17263962Y-98424729D01*
X17575271Y-98736038D01*
X17941331Y-98980631D01*
X18348075Y-99149110D01*
X18779872Y-99235000D01*
X19220128Y-99235000D01*
X19651925Y-99149110D01*
X20058669Y-98980631D01*
X20424729Y-98736038D01*
X20736038Y-98424729D01*
X20980631Y-98058669D01*
X21149110Y-97651925D01*
X21235000Y-97220128D01*
X21235000Y-96779872D01*
X21149110Y-96348075D01*
X20980631Y-95941331D01*
X20736038Y-95575271D01*
X20424729Y-95263962D01*
X20058669Y-95019369D01*
X19651925Y-94850890D01*
X19220128Y-94765000D01*
X18779872Y-94765000D01*
X18348075Y-94850890D01*
X17941331Y-95019369D01*
X17575271Y-95263962D01*
X17263962Y-95575271D01*
X17019369Y-95941331D01*
X16850890Y-96348075D01*
X16765000Y-96779872D01*
X16685000Y-96779872D01*
X16685000Y-44484796D01*
X23815000Y-44484796D01*
X23815000Y-44915204D01*
X23898969Y-45337341D01*
X24063678Y-45734985D01*
X24302800Y-46092856D01*
X24607144Y-46397200D01*
X24965015Y-46636322D01*
X25362659Y-46801031D01*
X25784796Y-46885000D01*
X26215204Y-46885000D01*
X26637341Y-46801031D01*
X27034985Y-46636322D01*
X27392856Y-46397200D01*
X27697200Y-46092856D01*
X27936322Y-45734985D01*
X28101031Y-45337341D01*
X28185000Y-44915204D01*
X28185000Y-44484796D01*
X28101031Y-44062659D01*
X27936322Y-43665015D01*
X27697200Y-43307144D01*
X27392856Y-43002800D01*
X27034985Y-42763678D01*
X26637341Y-42598969D01*
X26215204Y-42515000D01*
X25784796Y-42515000D01*
X25362659Y-42598969D01*
X24965015Y-42763678D01*
X24607144Y-43002800D01*
X24302800Y-43307144D01*
X24063678Y-43665015D01*
X23898969Y-44062659D01*
X23815000Y-44484796D01*
X16685000Y-44484796D01*
X16685000Y-39784796D01*
X23815000Y-39784796D01*
X23815000Y-40215204D01*
X23898969Y-40637341D01*
X24063678Y-41034985D01*
X24302800Y-41392856D01*
X24607144Y-41697200D01*
X24965015Y-41936322D01*
X25362659Y-42101031D01*
X25784796Y-42185000D01*
X26215204Y-42185000D01*
X26637341Y-42101031D01*
X27034985Y-41936322D01*
X27392856Y-41697200D01*
X27697200Y-41392856D01*
X27936322Y-41034985D01*
X28101031Y-40637341D01*
X28185000Y-40215204D01*
X28185000Y-39784796D01*
X28101031Y-39362659D01*
X27936322Y-38965015D01*
X27697200Y-38607144D01*
X27392856Y-38302800D01*
X27034985Y-38063678D01*
X26637341Y-37898969D01*
X26215204Y-37815000D01*
X25784796Y-37815000D01*
X25362659Y-37898969D01*
X24965015Y-38063678D01*
X24607144Y-38302800D01*
X24302800Y-38607144D01*
X24063678Y-38965015D01*
X23898969Y-39362659D01*
X23815000Y-39784796D01*
X16685000Y-39784796D01*
X16685000Y-35084796D01*
X23815000Y-35084796D01*
X23815000Y-35515204D01*
X23898969Y-35937341D01*
X24063678Y-36334985D01*
X24302800Y-36692856D01*
X24607144Y-36997200D01*
X24965015Y-37236322D01*
X25362659Y-37401031D01*
X25784796Y-37485000D01*
X26215204Y-37485000D01*
X26637341Y-37401031D01*
X27034985Y-37236322D01*
X27392856Y-36997200D01*
X27697200Y-36692856D01*
X27936322Y-36334985D01*
X28101031Y-35937341D01*
X28185000Y-35515204D01*
X28185000Y-35084796D01*
X28101031Y-34662659D01*
X27936322Y-34265015D01*
X27697200Y-33907144D01*
X27392856Y-33602800D01*
X27034985Y-33363678D01*
X26637341Y-33198969D01*
X26215204Y-33115000D01*
X25784796Y-33115000D01*
X25362659Y-33198969D01*
X24965015Y-33363678D01*
X24607144Y-33602800D01*
X24302800Y-33907144D01*
X24063678Y-34265015D01*
X23898969Y-34662659D01*
X23815000Y-35084796D01*
X16685000Y-35084796D01*
X16685000Y-23850000D01*
X21971928Y-23850000D01*
X21984188Y-23974482D01*
X22020498Y-24094180D01*
X22079463Y-24204494D01*
X22158815Y-24301185D01*
X22255506Y-24380537D01*
X22365820Y-24439502D01*
X22485518Y-24475812D01*
X22610000Y-24488072D01*
X23174250Y-24485000D01*
X23333000Y-24326250D01*
X23333000Y-23127000D01*
X22133750Y-23127000D01*
X21975000Y-23285750D01*
X21971928Y-23850000D01*
X16685000Y-23850000D01*
X16685000Y-22150000D01*
X21971928Y-22150000D01*
X21975000Y-22714250D01*
X22133750Y-22873000D01*
X23333000Y-22873000D01*
X23333000Y-21673750D01*
X23174250Y-21515000D01*
X22610000Y-21511928D01*
X22485518Y-21524188D01*
X22365820Y-21560498D01*
X22255506Y-21619463D01*
X22158815Y-21698815D01*
X22079463Y-21795506D01*
X22020498Y-21905820D01*
X21984188Y-22025518D01*
X21971928Y-22150000D01*
X16685000Y-22150000D01*
X16685000Y-20685000D01*
X59315000Y-20685000D01*
X59315001Y-169315000D01*
G37*
%TD.AperFunction*%
D21*
X37546525Y-23946632D02*
X37753368Y-24153475D01*
X37940001Y-24278179D01*
X37940000Y-41369197D01*
X27903998Y-51405201D01*
X27875000Y-51428999D01*
X27851202Y-51457997D01*
X27851201Y-51457998D01*
X27780026Y-51544724D01*
X27709454Y-51676754D01*
X27665998Y-51820015D01*
X27651324Y-51969000D01*
X27655001Y-52006332D01*
X27655000Y-63970198D01*
X25437155Y-66188043D01*
X25449003Y-66148986D01*
X25460000Y-66037333D01*
X25460000Y-66037324D01*
X25463676Y-66000001D01*
X25460000Y-65962678D01*
X25460000Y-53333211D01*
X36671008Y-42122205D01*
X36700001Y-42098411D01*
X36723795Y-42069418D01*
X36723799Y-42069414D01*
X36794973Y-41982687D01*
X36794974Y-41982686D01*
X36865546Y-41850657D01*
X36909003Y-41707396D01*
X36920000Y-41595743D01*
X36920000Y-41595734D01*
X36923676Y-41558411D01*
X36920000Y-41521088D01*
X36920000Y-24278178D01*
X37106632Y-24153475D01*
X37313475Y-23946632D01*
X37430000Y-23772240D01*
X37546525Y-23946632D01*
%TA.AperFunction,Conductor*%
D22*
G36*
X37546525Y-23946632D02*
G01*
X37753368Y-24153475D01*
X37940001Y-24278179D01*
X37940000Y-41369197D01*
X27903998Y-51405201D01*
X27875000Y-51428999D01*
X27851202Y-51457997D01*
X27851201Y-51457998D01*
X27780026Y-51544724D01*
X27709454Y-51676754D01*
X27665998Y-51820015D01*
X27651324Y-51969000D01*
X27655001Y-52006332D01*
X27655000Y-63970198D01*
X25437155Y-66188043D01*
X25449003Y-66148986D01*
X25460000Y-66037333D01*
X25460000Y-66037324D01*
X25463676Y-66000001D01*
X25460000Y-65962678D01*
X25460000Y-53333211D01*
X36671008Y-42122205D01*
X36700001Y-42098411D01*
X36723795Y-42069418D01*
X36723799Y-42069414D01*
X36794973Y-41982687D01*
X36794974Y-41982686D01*
X36865546Y-41850657D01*
X36909003Y-41707396D01*
X36920000Y-41595743D01*
X36920000Y-41595734D01*
X36923676Y-41558411D01*
X36920000Y-41521088D01*
X36920000Y-24278178D01*
X37106632Y-24153475D01*
X37313475Y-23946632D01*
X37430000Y-23772240D01*
X37546525Y-23946632D01*
G37*
%TD.AperFunction*%
%TD*%
M02*
