%TF.GenerationSoftware,KiCad,Pcbnew,5.1.10-88a1d61d58~90~ubuntu20.04.1*%
%TF.CreationDate,2021-08-12T15:59:19-04:00*%
%TF.ProjectId,precadsr,70726563-6164-4737-922e-6b696361645f,rev?*%
%TF.SameCoordinates,Original*%
%TF.FileFunction,Soldermask,Bot*%
%TF.FilePolarity,Negative*%
%FSLAX46Y46*%
G04 Gerber Fmt 4.6, Leading zero omitted, Abs format (unit mm)*
G04 Created by KiCad (PCBNEW 5.1.10-88a1d61d58~90~ubuntu20.04.1) date 2021-08-12 15:59:19*
%MOMM*%
%LPD*%
G01*
G04 APERTURE LIST*
%ADD10C,3.200000*%
%ADD11C,3.240000*%
%ADD12C,1.800000*%
%ADD13R,1.800000X1.800000*%
%ADD14O,1.700000X1.700000*%
%ADD15R,1.700000X1.700000*%
%ADD16C,1.600000*%
%ADD17O,1.600000X1.600000*%
%ADD18C,2.340000*%
%ADD19C,3.100000*%
G04 APERTURE END LIST*
D10*
%TO.C,H2*%
X57000000Y-23000000D03*
%TD*%
D11*
%TO.C,R26*%
X45200000Y-75000000D03*
X54800000Y-75000000D03*
D12*
X52500000Y-82500000D03*
X50000000Y-82500000D03*
D13*
X47500000Y-82500000D03*
%TD*%
D14*
%TO.C,J11*%
X52620000Y-132000000D03*
X50080000Y-132000000D03*
X47540000Y-132000000D03*
D15*
X45000000Y-132000000D03*
%TD*%
D16*
%TO.C,R21*%
X45000000Y-61000000D03*
D17*
X55160000Y-61000000D03*
%TD*%
D14*
%TO.C,J10*%
X46320000Y-23000000D03*
X43780000Y-23000000D03*
X41240000Y-23000000D03*
X38700000Y-23000000D03*
X36160000Y-23000000D03*
X33620000Y-23000000D03*
X31080000Y-23000000D03*
X28540000Y-23000000D03*
X26000000Y-23000000D03*
D15*
X23460000Y-23000000D03*
%TD*%
D18*
%TO.C,R31*%
X55000000Y-126000000D03*
X50000000Y-126000000D03*
X45000000Y-126000000D03*
%TD*%
%TO.C,R27*%
X55000000Y-91000000D03*
X50000000Y-91000000D03*
X45000000Y-91000000D03*
%TD*%
D10*
%TO.C,H4*%
X19000000Y-97000000D03*
%TD*%
D11*
%TO.C,R24*%
X45200000Y-40000000D03*
X54800000Y-40000000D03*
D12*
X52500000Y-47500000D03*
X50000000Y-47500000D03*
D13*
X47500000Y-47500000D03*
%TD*%
D19*
%TO.C,S2*%
X26000000Y-44700000D03*
X26000000Y-35300000D03*
X26000000Y-40000000D03*
%TD*%
D18*
%TO.C,R25*%
X55000000Y-56000000D03*
X50000000Y-56000000D03*
X45000000Y-56000000D03*
%TD*%
%TO.C,R29*%
X55000000Y-161000000D03*
X50000000Y-161000000D03*
X45000000Y-161000000D03*
%TD*%
D11*
%TO.C,R28*%
X45200000Y-145000000D03*
X54800000Y-145000000D03*
D12*
X52500000Y-152500000D03*
X50000000Y-152500000D03*
D13*
X47500000Y-152500000D03*
%TD*%
D16*
%TO.C,R23*%
X45000000Y-166000000D03*
D17*
X55160000Y-166000000D03*
%TD*%
D19*
%TO.C,S1*%
X21170000Y-75000000D03*
X21170000Y-79700000D03*
X21170000Y-70300000D03*
X30830000Y-79700000D03*
X30830000Y-75000000D03*
X30830000Y-70300000D03*
X26000000Y-79700000D03*
X26000000Y-75000000D03*
X26000000Y-70300000D03*
%TD*%
D11*
%TO.C,R30*%
X45200000Y-110000000D03*
X54800000Y-110000000D03*
D12*
X52500000Y-117500000D03*
X50000000Y-117500000D03*
D13*
X47500000Y-117500000D03*
%TD*%
D16*
%TO.C,R22*%
X45000000Y-97000000D03*
D17*
X55160000Y-97000000D03*
%TD*%
M02*
