%TF.GenerationSoftware,KiCad,Pcbnew,5.1.10-88a1d61d58~90~ubuntu20.04.1*%
%TF.CreationDate,2021-08-07T13:39:56-04:00*%
%TF.ProjectId,precadsr,70726563-6164-4737-922e-6b696361645f,rev?*%
%TF.SameCoordinates,Original*%
%TF.FileFunction,Legend,Bot*%
%TF.FilePolarity,Positive*%
%FSLAX46Y46*%
G04 Gerber Fmt 4.6, Leading zero omitted, Abs format (unit mm)*
G04 Created by KiCad (PCBNEW 5.1.10-88a1d61d58~90~ubuntu20.04.1) date 2021-08-07 13:39:56*
%MOMM*%
%LPD*%
G01*
G04 APERTURE LIST*
%ADD10C,0.100000*%
%ADD11C,0.120000*%
%ADD12C,0.150000*%
G04 APERTURE END LIST*
D10*
X48819428Y-135177571D02*
X48712285Y-135213285D01*
X48533714Y-135213285D01*
X48462285Y-135177571D01*
X48426571Y-135141857D01*
X48390857Y-135070428D01*
X48390857Y-134999000D01*
X48426571Y-134927571D01*
X48462285Y-134891857D01*
X48533714Y-134856142D01*
X48676571Y-134820428D01*
X48748000Y-134784714D01*
X48783714Y-134749000D01*
X48819428Y-134677571D01*
X48819428Y-134606142D01*
X48783714Y-134534714D01*
X48748000Y-134499000D01*
X48676571Y-134463285D01*
X48498000Y-134463285D01*
X48390857Y-134499000D01*
X48069428Y-134463285D02*
X48069428Y-135070428D01*
X48033714Y-135141857D01*
X47998000Y-135177571D01*
X47926571Y-135213285D01*
X47783714Y-135213285D01*
X47712285Y-135177571D01*
X47676571Y-135141857D01*
X47640857Y-135070428D01*
X47640857Y-134463285D01*
X47319428Y-135177571D02*
X47212285Y-135213285D01*
X47033714Y-135213285D01*
X46962285Y-135177571D01*
X46926571Y-135141857D01*
X46890857Y-135070428D01*
X46890857Y-134999000D01*
X46926571Y-134927571D01*
X46962285Y-134891857D01*
X47033714Y-134856142D01*
X47176571Y-134820428D01*
X47248000Y-134784714D01*
X47283714Y-134749000D01*
X47319428Y-134677571D01*
X47319428Y-134606142D01*
X47283714Y-134534714D01*
X47248000Y-134499000D01*
X47176571Y-134463285D01*
X46998000Y-134463285D01*
X46890857Y-134499000D01*
X46605142Y-134534714D02*
X46569428Y-134499000D01*
X46498000Y-134463285D01*
X46319428Y-134463285D01*
X46248000Y-134499000D01*
X46212285Y-134534714D01*
X46176571Y-134606142D01*
X46176571Y-134677571D01*
X46212285Y-134784714D01*
X46640857Y-135213285D01*
X46176571Y-135213285D01*
X46279428Y-136447571D02*
X46172285Y-136483285D01*
X45993714Y-136483285D01*
X45922285Y-136447571D01*
X45886571Y-136411857D01*
X45850857Y-136340428D01*
X45850857Y-136269000D01*
X45886571Y-136197571D01*
X45922285Y-136161857D01*
X45993714Y-136126142D01*
X46136571Y-136090428D01*
X46208000Y-136054714D01*
X46243714Y-136019000D01*
X46279428Y-135947571D01*
X46279428Y-135876142D01*
X46243714Y-135804714D01*
X46208000Y-135769000D01*
X46136571Y-135733285D01*
X45958000Y-135733285D01*
X45850857Y-135769000D01*
X45529428Y-135733285D02*
X45529428Y-136340428D01*
X45493714Y-136411857D01*
X45458000Y-136447571D01*
X45386571Y-136483285D01*
X45243714Y-136483285D01*
X45172285Y-136447571D01*
X45136571Y-136411857D01*
X45100857Y-136340428D01*
X45100857Y-135733285D01*
X44779428Y-136447571D02*
X44672285Y-136483285D01*
X44493714Y-136483285D01*
X44422285Y-136447571D01*
X44386571Y-136411857D01*
X44350857Y-136340428D01*
X44350857Y-136269000D01*
X44386571Y-136197571D01*
X44422285Y-136161857D01*
X44493714Y-136126142D01*
X44636571Y-136090428D01*
X44708000Y-136054714D01*
X44743714Y-136019000D01*
X44779428Y-135947571D01*
X44779428Y-135876142D01*
X44743714Y-135804714D01*
X44708000Y-135769000D01*
X44636571Y-135733285D01*
X44458000Y-135733285D01*
X44350857Y-135769000D01*
X43636571Y-136483285D02*
X44065142Y-136483285D01*
X43850857Y-136483285D02*
X43850857Y-135733285D01*
X43922285Y-135840428D01*
X43993714Y-135911857D01*
X44065142Y-135947571D01*
X51359428Y-136447571D02*
X51252285Y-136483285D01*
X51073714Y-136483285D01*
X51002285Y-136447571D01*
X50966571Y-136411857D01*
X50930857Y-136340428D01*
X50930857Y-136269000D01*
X50966571Y-136197571D01*
X51002285Y-136161857D01*
X51073714Y-136126142D01*
X51216571Y-136090428D01*
X51288000Y-136054714D01*
X51323714Y-136019000D01*
X51359428Y-135947571D01*
X51359428Y-135876142D01*
X51323714Y-135804714D01*
X51288000Y-135769000D01*
X51216571Y-135733285D01*
X51038000Y-135733285D01*
X50930857Y-135769000D01*
X50609428Y-135733285D02*
X50609428Y-136340428D01*
X50573714Y-136411857D01*
X50538000Y-136447571D01*
X50466571Y-136483285D01*
X50323714Y-136483285D01*
X50252285Y-136447571D01*
X50216571Y-136411857D01*
X50180857Y-136340428D01*
X50180857Y-135733285D01*
X49859428Y-136447571D02*
X49752285Y-136483285D01*
X49573714Y-136483285D01*
X49502285Y-136447571D01*
X49466571Y-136411857D01*
X49430857Y-136340428D01*
X49430857Y-136269000D01*
X49466571Y-136197571D01*
X49502285Y-136161857D01*
X49573714Y-136126142D01*
X49716571Y-136090428D01*
X49788000Y-136054714D01*
X49823714Y-136019000D01*
X49859428Y-135947571D01*
X49859428Y-135876142D01*
X49823714Y-135804714D01*
X49788000Y-135769000D01*
X49716571Y-135733285D01*
X49538000Y-135733285D01*
X49430857Y-135769000D01*
X49180857Y-135733285D02*
X48716571Y-135733285D01*
X48966571Y-136019000D01*
X48859428Y-136019000D01*
X48788000Y-136054714D01*
X48752285Y-136090428D01*
X48716571Y-136161857D01*
X48716571Y-136340428D01*
X48752285Y-136411857D01*
X48788000Y-136447571D01*
X48859428Y-136483285D01*
X49073714Y-136483285D01*
X49145142Y-136447571D01*
X49180857Y-136411857D01*
X53345857Y-135213285D02*
X53595857Y-134856142D01*
X53774428Y-135213285D02*
X53774428Y-134463285D01*
X53488714Y-134463285D01*
X53417285Y-134499000D01*
X53381571Y-134534714D01*
X53345857Y-134606142D01*
X53345857Y-134713285D01*
X53381571Y-134784714D01*
X53417285Y-134820428D01*
X53488714Y-134856142D01*
X53774428Y-134856142D01*
X53024428Y-134820428D02*
X52774428Y-134820428D01*
X52667285Y-135213285D02*
X53024428Y-135213285D01*
X53024428Y-134463285D01*
X52667285Y-134463285D01*
X51988714Y-135213285D02*
X52345857Y-135213285D01*
X52345857Y-134463285D01*
X51345857Y-135213285D02*
X51774428Y-135213285D01*
X51560142Y-135213285D02*
X51560142Y-134463285D01*
X51631571Y-134570428D01*
X51703000Y-134641857D01*
X51774428Y-134677571D01*
X23685428Y-26549000D02*
X23756857Y-26513285D01*
X23864000Y-26513285D01*
X23971142Y-26549000D01*
X24042571Y-26620428D01*
X24078285Y-26691857D01*
X24114000Y-26834714D01*
X24114000Y-26941857D01*
X24078285Y-27084714D01*
X24042571Y-27156142D01*
X23971142Y-27227571D01*
X23864000Y-27263285D01*
X23792571Y-27263285D01*
X23685428Y-27227571D01*
X23649714Y-27191857D01*
X23649714Y-26941857D01*
X23792571Y-26941857D01*
X23328285Y-27263285D02*
X23328285Y-26513285D01*
X22899714Y-27263285D01*
X22899714Y-26513285D01*
X22542571Y-27263285D02*
X22542571Y-26513285D01*
X22364000Y-26513285D01*
X22256857Y-26549000D01*
X22185428Y-26620428D01*
X22149714Y-26691857D01*
X22114000Y-26834714D01*
X22114000Y-26941857D01*
X22149714Y-27084714D01*
X22185428Y-27156142D01*
X22256857Y-27227571D01*
X22364000Y-27263285D01*
X22542571Y-27263285D01*
X27654000Y-25957571D02*
X27546857Y-25993285D01*
X27368285Y-25993285D01*
X27296857Y-25957571D01*
X27261142Y-25921857D01*
X27225428Y-25850428D01*
X27225428Y-25779000D01*
X27261142Y-25707571D01*
X27296857Y-25671857D01*
X27368285Y-25636142D01*
X27511142Y-25600428D01*
X27582571Y-25564714D01*
X27618285Y-25529000D01*
X27654000Y-25457571D01*
X27654000Y-25386142D01*
X27618285Y-25314714D01*
X27582571Y-25279000D01*
X27511142Y-25243285D01*
X27332571Y-25243285D01*
X27225428Y-25279000D01*
X26904000Y-25993285D02*
X26904000Y-25243285D01*
X26618285Y-25243285D01*
X26546857Y-25279000D01*
X26511142Y-25314714D01*
X26475428Y-25386142D01*
X26475428Y-25493285D01*
X26511142Y-25564714D01*
X26546857Y-25600428D01*
X26618285Y-25636142D01*
X26904000Y-25636142D01*
X26154000Y-25600428D02*
X25904000Y-25600428D01*
X25796857Y-25993285D02*
X26154000Y-25993285D01*
X26154000Y-25243285D01*
X25796857Y-25243285D01*
X25475428Y-25600428D02*
X25225428Y-25600428D01*
X25118285Y-25993285D02*
X25475428Y-25993285D01*
X25475428Y-25243285D01*
X25118285Y-25243285D01*
X24796857Y-25993285D02*
X24796857Y-25243285D01*
X24618285Y-25243285D01*
X24511142Y-25279000D01*
X24439714Y-25350428D01*
X24404000Y-25421857D01*
X24368285Y-25564714D01*
X24368285Y-25671857D01*
X24404000Y-25814714D01*
X24439714Y-25886142D01*
X24511142Y-25957571D01*
X24618285Y-25993285D01*
X24796857Y-25993285D01*
X23654000Y-25993285D02*
X24082571Y-25993285D01*
X23868285Y-25993285D02*
X23868285Y-25243285D01*
X23939714Y-25350428D01*
X24011142Y-25421857D01*
X24082571Y-25457571D01*
X30194000Y-27227571D02*
X30086857Y-27263285D01*
X29908285Y-27263285D01*
X29836857Y-27227571D01*
X29801142Y-27191857D01*
X29765428Y-27120428D01*
X29765428Y-27049000D01*
X29801142Y-26977571D01*
X29836857Y-26941857D01*
X29908285Y-26906142D01*
X30051142Y-26870428D01*
X30122571Y-26834714D01*
X30158285Y-26799000D01*
X30194000Y-26727571D01*
X30194000Y-26656142D01*
X30158285Y-26584714D01*
X30122571Y-26549000D01*
X30051142Y-26513285D01*
X29872571Y-26513285D01*
X29765428Y-26549000D01*
X29444000Y-27263285D02*
X29444000Y-26513285D01*
X29158285Y-26513285D01*
X29086857Y-26549000D01*
X29051142Y-26584714D01*
X29015428Y-26656142D01*
X29015428Y-26763285D01*
X29051142Y-26834714D01*
X29086857Y-26870428D01*
X29158285Y-26906142D01*
X29444000Y-26906142D01*
X28694000Y-26870428D02*
X28444000Y-26870428D01*
X28336857Y-27263285D02*
X28694000Y-27263285D01*
X28694000Y-26513285D01*
X28336857Y-26513285D01*
X28015428Y-26870428D02*
X27765428Y-26870428D01*
X27658285Y-27263285D02*
X28015428Y-27263285D01*
X28015428Y-26513285D01*
X27658285Y-26513285D01*
X27336857Y-27263285D02*
X27336857Y-26513285D01*
X27158285Y-26513285D01*
X27051142Y-26549000D01*
X26979714Y-26620428D01*
X26944000Y-26691857D01*
X26908285Y-26834714D01*
X26908285Y-26941857D01*
X26944000Y-27084714D01*
X26979714Y-27156142D01*
X27051142Y-27227571D01*
X27158285Y-27263285D01*
X27336857Y-27263285D01*
X26622571Y-26584714D02*
X26586857Y-26549000D01*
X26515428Y-26513285D01*
X26336857Y-26513285D01*
X26265428Y-26549000D01*
X26229714Y-26584714D01*
X26194000Y-26656142D01*
X26194000Y-26727571D01*
X26229714Y-26834714D01*
X26658285Y-27263285D01*
X26194000Y-27263285D01*
X32734000Y-25957571D02*
X32626857Y-25993285D01*
X32448285Y-25993285D01*
X32376857Y-25957571D01*
X32341142Y-25921857D01*
X32305428Y-25850428D01*
X32305428Y-25779000D01*
X32341142Y-25707571D01*
X32376857Y-25671857D01*
X32448285Y-25636142D01*
X32591142Y-25600428D01*
X32662571Y-25564714D01*
X32698285Y-25529000D01*
X32734000Y-25457571D01*
X32734000Y-25386142D01*
X32698285Y-25314714D01*
X32662571Y-25279000D01*
X32591142Y-25243285D01*
X32412571Y-25243285D01*
X32305428Y-25279000D01*
X31984000Y-25993285D02*
X31984000Y-25243285D01*
X31698285Y-25243285D01*
X31626857Y-25279000D01*
X31591142Y-25314714D01*
X31555428Y-25386142D01*
X31555428Y-25493285D01*
X31591142Y-25564714D01*
X31626857Y-25600428D01*
X31698285Y-25636142D01*
X31984000Y-25636142D01*
X31234000Y-25600428D02*
X30984000Y-25600428D01*
X30876857Y-25993285D02*
X31234000Y-25993285D01*
X31234000Y-25243285D01*
X30876857Y-25243285D01*
X30555428Y-25600428D02*
X30305428Y-25600428D01*
X30198285Y-25993285D02*
X30555428Y-25993285D01*
X30555428Y-25243285D01*
X30198285Y-25243285D01*
X29876857Y-25993285D02*
X29876857Y-25243285D01*
X29698285Y-25243285D01*
X29591142Y-25279000D01*
X29519714Y-25350428D01*
X29484000Y-25421857D01*
X29448285Y-25564714D01*
X29448285Y-25671857D01*
X29484000Y-25814714D01*
X29519714Y-25886142D01*
X29591142Y-25957571D01*
X29698285Y-25993285D01*
X29876857Y-25993285D01*
X29198285Y-25243285D02*
X28734000Y-25243285D01*
X28984000Y-25529000D01*
X28876857Y-25529000D01*
X28805428Y-25564714D01*
X28769714Y-25600428D01*
X28734000Y-25671857D01*
X28734000Y-25850428D01*
X28769714Y-25921857D01*
X28805428Y-25957571D01*
X28876857Y-25993285D01*
X29091142Y-25993285D01*
X29162571Y-25957571D01*
X29198285Y-25921857D01*
X34595428Y-27263285D02*
X34952571Y-27263285D01*
X34952571Y-26513285D01*
X34345428Y-27263285D02*
X34345428Y-26513285D01*
X34059714Y-26513285D01*
X33988285Y-26549000D01*
X33952571Y-26584714D01*
X33916857Y-26656142D01*
X33916857Y-26763285D01*
X33952571Y-26834714D01*
X33988285Y-26870428D01*
X34059714Y-26906142D01*
X34345428Y-26906142D01*
X33595428Y-27263285D02*
X33595428Y-26513285D01*
X33166857Y-27263285D01*
X33166857Y-26513285D01*
X32809714Y-27263285D02*
X32809714Y-26513285D01*
X32559714Y-27049000D01*
X32309714Y-26513285D01*
X32309714Y-27263285D01*
X31559714Y-27263285D02*
X31988285Y-27263285D01*
X31774000Y-27263285D02*
X31774000Y-26513285D01*
X31845428Y-26620428D01*
X31916857Y-26691857D01*
X31988285Y-26727571D01*
X37135428Y-25993285D02*
X37492571Y-25993285D01*
X37492571Y-25243285D01*
X36885428Y-25993285D02*
X36885428Y-25243285D01*
X36599714Y-25243285D01*
X36528285Y-25279000D01*
X36492571Y-25314714D01*
X36456857Y-25386142D01*
X36456857Y-25493285D01*
X36492571Y-25564714D01*
X36528285Y-25600428D01*
X36599714Y-25636142D01*
X36885428Y-25636142D01*
X36135428Y-25993285D02*
X36135428Y-25243285D01*
X35706857Y-25993285D01*
X35706857Y-25243285D01*
X35349714Y-25993285D02*
X35349714Y-25243285D01*
X35099714Y-25779000D01*
X34849714Y-25243285D01*
X34849714Y-25993285D01*
X34528285Y-25314714D02*
X34492571Y-25279000D01*
X34421142Y-25243285D01*
X34242571Y-25243285D01*
X34171142Y-25279000D01*
X34135428Y-25314714D01*
X34099714Y-25386142D01*
X34099714Y-25457571D01*
X34135428Y-25564714D01*
X34564000Y-25993285D01*
X34099714Y-25993285D01*
X39621857Y-27263285D02*
X39979000Y-27263285D01*
X39979000Y-26513285D01*
X39371857Y-27263285D02*
X39371857Y-26513285D01*
X39086142Y-26513285D01*
X39014714Y-26549000D01*
X38979000Y-26584714D01*
X38943285Y-26656142D01*
X38943285Y-26763285D01*
X38979000Y-26834714D01*
X39014714Y-26870428D01*
X39086142Y-26906142D01*
X39371857Y-26906142D01*
X38193285Y-27191857D02*
X38229000Y-27227571D01*
X38336142Y-27263285D01*
X38407571Y-27263285D01*
X38514714Y-27227571D01*
X38586142Y-27156142D01*
X38621857Y-27084714D01*
X38657571Y-26941857D01*
X38657571Y-26834714D01*
X38621857Y-26691857D01*
X38586142Y-26620428D01*
X38514714Y-26549000D01*
X38407571Y-26513285D01*
X38336142Y-26513285D01*
X38229000Y-26549000D01*
X38193285Y-26584714D01*
X37871857Y-27263285D02*
X37871857Y-26513285D01*
X37443285Y-27263285D01*
X37443285Y-26513285D01*
X36693285Y-27263285D02*
X37121857Y-27263285D01*
X36907571Y-27263285D02*
X36907571Y-26513285D01*
X36979000Y-26620428D01*
X37050428Y-26691857D01*
X37121857Y-26727571D01*
X42161857Y-25993285D02*
X42519000Y-25993285D01*
X42519000Y-25243285D01*
X41911857Y-25993285D02*
X41911857Y-25243285D01*
X41626142Y-25243285D01*
X41554714Y-25279000D01*
X41519000Y-25314714D01*
X41483285Y-25386142D01*
X41483285Y-25493285D01*
X41519000Y-25564714D01*
X41554714Y-25600428D01*
X41626142Y-25636142D01*
X41911857Y-25636142D01*
X40733285Y-25921857D02*
X40769000Y-25957571D01*
X40876142Y-25993285D01*
X40947571Y-25993285D01*
X41054714Y-25957571D01*
X41126142Y-25886142D01*
X41161857Y-25814714D01*
X41197571Y-25671857D01*
X41197571Y-25564714D01*
X41161857Y-25421857D01*
X41126142Y-25350428D01*
X41054714Y-25279000D01*
X40947571Y-25243285D01*
X40876142Y-25243285D01*
X40769000Y-25279000D01*
X40733285Y-25314714D01*
X40411857Y-25993285D02*
X40411857Y-25243285D01*
X39983285Y-25993285D01*
X39983285Y-25243285D01*
X39661857Y-25314714D02*
X39626142Y-25279000D01*
X39554714Y-25243285D01*
X39376142Y-25243285D01*
X39304714Y-25279000D01*
X39269000Y-25314714D01*
X39233285Y-25386142D01*
X39233285Y-25457571D01*
X39269000Y-25564714D01*
X39697571Y-25993285D01*
X39233285Y-25993285D01*
X44541142Y-27049000D02*
X44184000Y-27049000D01*
X44612571Y-27263285D02*
X44362571Y-26513285D01*
X44112571Y-27263285D01*
X43969714Y-26513285D02*
X43541142Y-26513285D01*
X43755428Y-27263285D02*
X43755428Y-26513285D01*
X43398285Y-26513285D02*
X42969714Y-26513285D01*
X43184000Y-27263285D02*
X43184000Y-26513285D01*
X42326857Y-27263285D02*
X42755428Y-27263285D01*
X42541142Y-27263285D02*
X42541142Y-26513285D01*
X42612571Y-26620428D01*
X42684000Y-26691857D01*
X42755428Y-26727571D01*
X47241857Y-25993285D02*
X47241857Y-25243285D01*
X47063285Y-25243285D01*
X46956142Y-25279000D01*
X46884714Y-25350428D01*
X46849000Y-25421857D01*
X46813285Y-25564714D01*
X46813285Y-25671857D01*
X46849000Y-25814714D01*
X46884714Y-25886142D01*
X46956142Y-25957571D01*
X47063285Y-25993285D01*
X47241857Y-25993285D01*
X46491857Y-25600428D02*
X46241857Y-25600428D01*
X46134714Y-25993285D02*
X46491857Y-25993285D01*
X46491857Y-25243285D01*
X46134714Y-25243285D01*
X45384714Y-25921857D02*
X45420428Y-25957571D01*
X45527571Y-25993285D01*
X45599000Y-25993285D01*
X45706142Y-25957571D01*
X45777571Y-25886142D01*
X45813285Y-25814714D01*
X45849000Y-25671857D01*
X45849000Y-25564714D01*
X45813285Y-25421857D01*
X45777571Y-25350428D01*
X45706142Y-25279000D01*
X45599000Y-25243285D01*
X45527571Y-25243285D01*
X45420428Y-25279000D01*
X45384714Y-25314714D01*
X44670428Y-25993285D02*
X45099000Y-25993285D01*
X44884714Y-25993285D02*
X44884714Y-25243285D01*
X44956142Y-25350428D01*
X45027571Y-25421857D01*
X45099000Y-25457571D01*
D11*
%TO.C,J11*%
X53950000Y-130670000D02*
X53950000Y-133330000D01*
X46270000Y-130670000D02*
X53950000Y-130670000D01*
X46270000Y-133330000D02*
X53950000Y-133330000D01*
X46270000Y-130670000D02*
X46270000Y-133330000D01*
X45000000Y-130670000D02*
X43670000Y-130670000D01*
X43670000Y-130670000D02*
X43670000Y-132000000D01*
%TO.C,J10*%
X47650000Y-21670000D02*
X47650000Y-24330000D01*
X24730000Y-21670000D02*
X47650000Y-21670000D01*
X24730000Y-24330000D02*
X47650000Y-24330000D01*
X24730000Y-21670000D02*
X24730000Y-24330000D01*
X23460000Y-21670000D02*
X22130000Y-21670000D01*
X22130000Y-21670000D02*
X22130000Y-23000000D01*
%TO.C,R22*%
X54120000Y-97000000D02*
X53350000Y-97000000D01*
X46040000Y-97000000D02*
X46810000Y-97000000D01*
X53350000Y-98370000D02*
X46810000Y-98370000D01*
X53350000Y-95630000D02*
X53350000Y-98370000D01*
X46810000Y-95630000D02*
X53350000Y-95630000D01*
X46810000Y-98370000D02*
X46810000Y-95630000D01*
%TO.C,R23*%
X54120000Y-166000000D02*
X53350000Y-166000000D01*
X46040000Y-166000000D02*
X46810000Y-166000000D01*
X53350000Y-167370000D02*
X46810000Y-167370000D01*
X53350000Y-164630000D02*
X53350000Y-167370000D01*
X46810000Y-164630000D02*
X53350000Y-164630000D01*
X46810000Y-167370000D02*
X46810000Y-164630000D01*
%TO.C,R21*%
X54120000Y-61000000D02*
X53350000Y-61000000D01*
X46040000Y-61000000D02*
X46810000Y-61000000D01*
X53350000Y-62370000D02*
X46810000Y-62370000D01*
X53350000Y-59630000D02*
X53350000Y-62370000D01*
X46810000Y-59630000D02*
X53350000Y-59630000D01*
X46810000Y-62370000D02*
X46810000Y-59630000D01*
%TO.C,J11*%
D12*
X42122380Y-131190476D02*
X42836666Y-131190476D01*
X42979523Y-131142857D01*
X43074761Y-131047619D01*
X43122380Y-130904761D01*
X43122380Y-130809523D01*
X43122380Y-132190476D02*
X43122380Y-131619047D01*
X43122380Y-131904761D02*
X42122380Y-131904761D01*
X42265238Y-131809523D01*
X42360476Y-131714285D01*
X42408095Y-131619047D01*
X43122380Y-133142857D02*
X43122380Y-132571428D01*
X43122380Y-132857142D02*
X42122380Y-132857142D01*
X42265238Y-132761904D01*
X42360476Y-132666666D01*
X42408095Y-132571428D01*
%TO.C,J10*%
X20582380Y-22190476D02*
X21296666Y-22190476D01*
X21439523Y-22142857D01*
X21534761Y-22047619D01*
X21582380Y-21904761D01*
X21582380Y-21809523D01*
X21582380Y-23190476D02*
X21582380Y-22619047D01*
X21582380Y-22904761D02*
X20582380Y-22904761D01*
X20725238Y-22809523D01*
X20820476Y-22714285D01*
X20868095Y-22619047D01*
X20582380Y-23809523D02*
X20582380Y-23904761D01*
X20630000Y-24000000D01*
X20677619Y-24047619D01*
X20772857Y-24095238D01*
X20963333Y-24142857D01*
X21201428Y-24142857D01*
X21391904Y-24095238D01*
X21487142Y-24047619D01*
X21534761Y-24000000D01*
X21582380Y-23904761D01*
X21582380Y-23809523D01*
X21534761Y-23714285D01*
X21487142Y-23666666D01*
X21391904Y-23619047D01*
X21201428Y-23571428D01*
X20963333Y-23571428D01*
X20772857Y-23619047D01*
X20677619Y-23666666D01*
X20630000Y-23714285D01*
X20582380Y-23809523D01*
%TO.C,R22*%
X50562142Y-95081285D02*
X50812142Y-94724142D01*
X50990714Y-95081285D02*
X50990714Y-94331285D01*
X50705000Y-94331285D01*
X50633571Y-94367000D01*
X50597857Y-94402714D01*
X50562142Y-94474142D01*
X50562142Y-94581285D01*
X50597857Y-94652714D01*
X50633571Y-94688428D01*
X50705000Y-94724142D01*
X50990714Y-94724142D01*
X50276428Y-94402714D02*
X50240714Y-94367000D01*
X50169285Y-94331285D01*
X49990714Y-94331285D01*
X49919285Y-94367000D01*
X49883571Y-94402714D01*
X49847857Y-94474142D01*
X49847857Y-94545571D01*
X49883571Y-94652714D01*
X50312142Y-95081285D01*
X49847857Y-95081285D01*
X49562142Y-94402714D02*
X49526428Y-94367000D01*
X49455000Y-94331285D01*
X49276428Y-94331285D01*
X49205000Y-94367000D01*
X49169285Y-94402714D01*
X49133571Y-94474142D01*
X49133571Y-94545571D01*
X49169285Y-94652714D01*
X49597857Y-95081285D01*
X49133571Y-95081285D01*
X50955000Y-97339285D02*
X51383571Y-97339285D01*
X51169285Y-97339285D02*
X51169285Y-96589285D01*
X51240714Y-96696428D01*
X51312142Y-96767857D01*
X51383571Y-96803571D01*
X50490714Y-96589285D02*
X50419285Y-96589285D01*
X50347857Y-96625000D01*
X50312142Y-96660714D01*
X50276428Y-96732142D01*
X50240714Y-96875000D01*
X50240714Y-97053571D01*
X50276428Y-97196428D01*
X50312142Y-97267857D01*
X50347857Y-97303571D01*
X50419285Y-97339285D01*
X50490714Y-97339285D01*
X50562142Y-97303571D01*
X50597857Y-97267857D01*
X50633571Y-97196428D01*
X50669285Y-97053571D01*
X50669285Y-96875000D01*
X50633571Y-96732142D01*
X50597857Y-96660714D01*
X50562142Y-96625000D01*
X50490714Y-96589285D01*
X49776428Y-96589285D02*
X49705000Y-96589285D01*
X49633571Y-96625000D01*
X49597857Y-96660714D01*
X49562142Y-96732142D01*
X49526428Y-96875000D01*
X49526428Y-97053571D01*
X49562142Y-97196428D01*
X49597857Y-97267857D01*
X49633571Y-97303571D01*
X49705000Y-97339285D01*
X49776428Y-97339285D01*
X49847857Y-97303571D01*
X49883571Y-97267857D01*
X49919285Y-97196428D01*
X49955000Y-97053571D01*
X49955000Y-96875000D01*
X49919285Y-96732142D01*
X49883571Y-96660714D01*
X49847857Y-96625000D01*
X49776428Y-96589285D01*
X48776428Y-97339285D02*
X49026428Y-96982142D01*
X49205000Y-97339285D02*
X49205000Y-96589285D01*
X48919285Y-96589285D01*
X48847857Y-96625000D01*
X48812142Y-96660714D01*
X48776428Y-96732142D01*
X48776428Y-96839285D01*
X48812142Y-96910714D01*
X48847857Y-96946428D01*
X48919285Y-96982142D01*
X49205000Y-96982142D01*
%TO.C,R23*%
X50562142Y-164169285D02*
X50812142Y-163812142D01*
X50990714Y-164169285D02*
X50990714Y-163419285D01*
X50705000Y-163419285D01*
X50633571Y-163455000D01*
X50597857Y-163490714D01*
X50562142Y-163562142D01*
X50562142Y-163669285D01*
X50597857Y-163740714D01*
X50633571Y-163776428D01*
X50705000Y-163812142D01*
X50990714Y-163812142D01*
X50276428Y-163490714D02*
X50240714Y-163455000D01*
X50169285Y-163419285D01*
X49990714Y-163419285D01*
X49919285Y-163455000D01*
X49883571Y-163490714D01*
X49847857Y-163562142D01*
X49847857Y-163633571D01*
X49883571Y-163740714D01*
X50312142Y-164169285D01*
X49847857Y-164169285D01*
X49597857Y-163419285D02*
X49133571Y-163419285D01*
X49383571Y-163705000D01*
X49276428Y-163705000D01*
X49205000Y-163740714D01*
X49169285Y-163776428D01*
X49133571Y-163847857D01*
X49133571Y-164026428D01*
X49169285Y-164097857D01*
X49205000Y-164133571D01*
X49276428Y-164169285D01*
X49490714Y-164169285D01*
X49562142Y-164133571D01*
X49597857Y-164097857D01*
X50955000Y-166339285D02*
X51383571Y-166339285D01*
X51169285Y-166339285D02*
X51169285Y-165589285D01*
X51240714Y-165696428D01*
X51312142Y-165767857D01*
X51383571Y-165803571D01*
X50490714Y-165589285D02*
X50419285Y-165589285D01*
X50347857Y-165625000D01*
X50312142Y-165660714D01*
X50276428Y-165732142D01*
X50240714Y-165875000D01*
X50240714Y-166053571D01*
X50276428Y-166196428D01*
X50312142Y-166267857D01*
X50347857Y-166303571D01*
X50419285Y-166339285D01*
X50490714Y-166339285D01*
X50562142Y-166303571D01*
X50597857Y-166267857D01*
X50633571Y-166196428D01*
X50669285Y-166053571D01*
X50669285Y-165875000D01*
X50633571Y-165732142D01*
X50597857Y-165660714D01*
X50562142Y-165625000D01*
X50490714Y-165589285D01*
X49776428Y-165589285D02*
X49705000Y-165589285D01*
X49633571Y-165625000D01*
X49597857Y-165660714D01*
X49562142Y-165732142D01*
X49526428Y-165875000D01*
X49526428Y-166053571D01*
X49562142Y-166196428D01*
X49597857Y-166267857D01*
X49633571Y-166303571D01*
X49705000Y-166339285D01*
X49776428Y-166339285D01*
X49847857Y-166303571D01*
X49883571Y-166267857D01*
X49919285Y-166196428D01*
X49955000Y-166053571D01*
X49955000Y-165875000D01*
X49919285Y-165732142D01*
X49883571Y-165660714D01*
X49847857Y-165625000D01*
X49776428Y-165589285D01*
X48776428Y-166339285D02*
X49026428Y-165982142D01*
X49205000Y-166339285D02*
X49205000Y-165589285D01*
X48919285Y-165589285D01*
X48847857Y-165625000D01*
X48812142Y-165660714D01*
X48776428Y-165732142D01*
X48776428Y-165839285D01*
X48812142Y-165910714D01*
X48847857Y-165946428D01*
X48919285Y-165982142D01*
X49205000Y-165982142D01*
%TO.C,R21*%
X50562142Y-59140285D02*
X50812142Y-58783142D01*
X50990714Y-59140285D02*
X50990714Y-58390285D01*
X50705000Y-58390285D01*
X50633571Y-58426000D01*
X50597857Y-58461714D01*
X50562142Y-58533142D01*
X50562142Y-58640285D01*
X50597857Y-58711714D01*
X50633571Y-58747428D01*
X50705000Y-58783142D01*
X50990714Y-58783142D01*
X50276428Y-58461714D02*
X50240714Y-58426000D01*
X50169285Y-58390285D01*
X49990714Y-58390285D01*
X49919285Y-58426000D01*
X49883571Y-58461714D01*
X49847857Y-58533142D01*
X49847857Y-58604571D01*
X49883571Y-58711714D01*
X50312142Y-59140285D01*
X49847857Y-59140285D01*
X49133571Y-59140285D02*
X49562142Y-59140285D01*
X49347857Y-59140285D02*
X49347857Y-58390285D01*
X49419285Y-58497428D01*
X49490714Y-58568857D01*
X49562142Y-58604571D01*
X50955000Y-61339285D02*
X51383571Y-61339285D01*
X51169285Y-61339285D02*
X51169285Y-60589285D01*
X51240714Y-60696428D01*
X51312142Y-60767857D01*
X51383571Y-60803571D01*
X50490714Y-60589285D02*
X50419285Y-60589285D01*
X50347857Y-60625000D01*
X50312142Y-60660714D01*
X50276428Y-60732142D01*
X50240714Y-60875000D01*
X50240714Y-61053571D01*
X50276428Y-61196428D01*
X50312142Y-61267857D01*
X50347857Y-61303571D01*
X50419285Y-61339285D01*
X50490714Y-61339285D01*
X50562142Y-61303571D01*
X50597857Y-61267857D01*
X50633571Y-61196428D01*
X50669285Y-61053571D01*
X50669285Y-60875000D01*
X50633571Y-60732142D01*
X50597857Y-60660714D01*
X50562142Y-60625000D01*
X50490714Y-60589285D01*
X49776428Y-60589285D02*
X49705000Y-60589285D01*
X49633571Y-60625000D01*
X49597857Y-60660714D01*
X49562142Y-60732142D01*
X49526428Y-60875000D01*
X49526428Y-61053571D01*
X49562142Y-61196428D01*
X49597857Y-61267857D01*
X49633571Y-61303571D01*
X49705000Y-61339285D01*
X49776428Y-61339285D01*
X49847857Y-61303571D01*
X49883571Y-61267857D01*
X49919285Y-61196428D01*
X49955000Y-61053571D01*
X49955000Y-60875000D01*
X49919285Y-60732142D01*
X49883571Y-60660714D01*
X49847857Y-60625000D01*
X49776428Y-60589285D01*
X48776428Y-61339285D02*
X49026428Y-60982142D01*
X49205000Y-61339285D02*
X49205000Y-60589285D01*
X48919285Y-60589285D01*
X48847857Y-60625000D01*
X48812142Y-60660714D01*
X48776428Y-60732142D01*
X48776428Y-60839285D01*
X48812142Y-60910714D01*
X48847857Y-60946428D01*
X48919285Y-60982142D01*
X49205000Y-60982142D01*
%TD*%
M02*
