%TF.GenerationSoftware,KiCad,Pcbnew,5.1.10-88a1d61d58~90~ubuntu20.04.1*%
%TF.CreationDate,2021-08-12T15:59:19-04:00*%
%TF.ProjectId,precadsr,70726563-6164-4737-922e-6b696361645f,rev?*%
%TF.SameCoordinates,Original*%
%TF.FileFunction,Legend,Top*%
%TF.FilePolarity,Positive*%
%FSLAX46Y46*%
G04 Gerber Fmt 4.6, Leading zero omitted, Abs format (unit mm)*
G04 Created by KiCad (PCBNEW 5.1.10-88a1d61d58~90~ubuntu20.04.1) date 2021-08-12 15:59:19*
%MOMM*%
%LPD*%
G01*
G04 APERTURE LIST*
%ADD10C,0.150000*%
%ADD11C,0.120000*%
G04 APERTURE END LIST*
D10*
X46371333Y-85157571D02*
X46038000Y-85157571D01*
X46038000Y-85681380D02*
X46038000Y-84681380D01*
X46514190Y-84681380D01*
X46895142Y-85681380D02*
X46895142Y-85014714D01*
X46895142Y-84681380D02*
X46847523Y-84729000D01*
X46895142Y-84776619D01*
X46942761Y-84729000D01*
X46895142Y-84681380D01*
X46895142Y-84776619D01*
X47228476Y-85014714D02*
X47609428Y-85014714D01*
X47371333Y-84681380D02*
X47371333Y-85538523D01*
X47418952Y-85633761D01*
X47514190Y-85681380D01*
X47609428Y-85681380D01*
X48847523Y-85681380D02*
X48752285Y-85633761D01*
X48704666Y-85586142D01*
X48657047Y-85490904D01*
X48657047Y-85205190D01*
X48704666Y-85109952D01*
X48752285Y-85062333D01*
X48847523Y-85014714D01*
X48990380Y-85014714D01*
X49085619Y-85062333D01*
X49133238Y-85109952D01*
X49180857Y-85205190D01*
X49180857Y-85490904D01*
X49133238Y-85586142D01*
X49085619Y-85633761D01*
X48990380Y-85681380D01*
X48847523Y-85681380D01*
X49609428Y-85014714D02*
X49609428Y-85681380D01*
X49609428Y-85109952D02*
X49657047Y-85062333D01*
X49752285Y-85014714D01*
X49895142Y-85014714D01*
X49990380Y-85062333D01*
X50038000Y-85157571D01*
X50038000Y-85681380D01*
X50895142Y-85633761D02*
X50799904Y-85681380D01*
X50609428Y-85681380D01*
X50514190Y-85633761D01*
X50466571Y-85538523D01*
X50466571Y-85157571D01*
X50514190Y-85062333D01*
X50609428Y-85014714D01*
X50799904Y-85014714D01*
X50895142Y-85062333D01*
X50942761Y-85157571D01*
X50942761Y-85252809D01*
X50466571Y-85348047D01*
X52133238Y-85014714D02*
X52133238Y-86014714D01*
X52133238Y-85062333D02*
X52228476Y-85014714D01*
X52418952Y-85014714D01*
X52514190Y-85062333D01*
X52561809Y-85109952D01*
X52609428Y-85205190D01*
X52609428Y-85490904D01*
X52561809Y-85586142D01*
X52514190Y-85633761D01*
X52418952Y-85681380D01*
X52228476Y-85681380D01*
X52133238Y-85633761D01*
X53180857Y-85681380D02*
X53085619Y-85633761D01*
X53038000Y-85586142D01*
X52990380Y-85490904D01*
X52990380Y-85205190D01*
X53038000Y-85109952D01*
X53085619Y-85062333D01*
X53180857Y-85014714D01*
X53323714Y-85014714D01*
X53418952Y-85062333D01*
X53466571Y-85109952D01*
X53514190Y-85205190D01*
X53514190Y-85490904D01*
X53466571Y-85586142D01*
X53418952Y-85633761D01*
X53323714Y-85681380D01*
X53180857Y-85681380D01*
X53799904Y-85014714D02*
X54180857Y-85014714D01*
X53942761Y-84681380D02*
X53942761Y-85538523D01*
X53990380Y-85633761D01*
X54085619Y-85681380D01*
X54180857Y-85681380D01*
X43514190Y-87712333D02*
X43466571Y-87664714D01*
X43371333Y-87521857D01*
X43323714Y-87426619D01*
X43276095Y-87283761D01*
X43228476Y-87045666D01*
X43228476Y-86855190D01*
X43276095Y-86617095D01*
X43323714Y-86474238D01*
X43371333Y-86379000D01*
X43466571Y-86236142D01*
X43514190Y-86188523D01*
X43942761Y-87331380D02*
X44133238Y-87331380D01*
X44228476Y-87283761D01*
X44276095Y-87236142D01*
X44371333Y-87093285D01*
X44418952Y-86902809D01*
X44418952Y-86521857D01*
X44371333Y-86426619D01*
X44323714Y-86379000D01*
X44228476Y-86331380D01*
X44038000Y-86331380D01*
X43942761Y-86379000D01*
X43895142Y-86426619D01*
X43847523Y-86521857D01*
X43847523Y-86759952D01*
X43895142Y-86855190D01*
X43942761Y-86902809D01*
X44038000Y-86950428D01*
X44228476Y-86950428D01*
X44323714Y-86902809D01*
X44371333Y-86855190D01*
X44418952Y-86759952D01*
X45609428Y-87331380D02*
X45609428Y-86664714D01*
X45609428Y-86759952D02*
X45657047Y-86712333D01*
X45752285Y-86664714D01*
X45895142Y-86664714D01*
X45990380Y-86712333D01*
X46038000Y-86807571D01*
X46038000Y-87331380D01*
X46038000Y-86807571D02*
X46085619Y-86712333D01*
X46180857Y-86664714D01*
X46323714Y-86664714D01*
X46418952Y-86712333D01*
X46466571Y-86807571D01*
X46466571Y-87331380D01*
X46942761Y-87331380D02*
X46942761Y-86664714D01*
X46942761Y-86759952D02*
X46990380Y-86712333D01*
X47085619Y-86664714D01*
X47228476Y-86664714D01*
X47323714Y-86712333D01*
X47371333Y-86807571D01*
X47371333Y-87331380D01*
X47371333Y-86807571D02*
X47418952Y-86712333D01*
X47514190Y-86664714D01*
X47657047Y-86664714D01*
X47752285Y-86712333D01*
X47799904Y-86807571D01*
X47799904Y-87331380D01*
X49180857Y-87331380D02*
X49085619Y-87283761D01*
X49038000Y-87236142D01*
X48990380Y-87140904D01*
X48990380Y-86855190D01*
X49038000Y-86759952D01*
X49085619Y-86712333D01*
X49180857Y-86664714D01*
X49323714Y-86664714D01*
X49418952Y-86712333D01*
X49466571Y-86759952D01*
X49514190Y-86855190D01*
X49514190Y-87140904D01*
X49466571Y-87236142D01*
X49418952Y-87283761D01*
X49323714Y-87331380D01*
X49180857Y-87331380D01*
X49942761Y-87331380D02*
X49942761Y-86664714D01*
X49942761Y-86855190D02*
X49990380Y-86759952D01*
X50038000Y-86712333D01*
X50133238Y-86664714D01*
X50228476Y-86664714D01*
X51847523Y-87331380D02*
X51276095Y-87331380D01*
X51561809Y-87331380D02*
X51561809Y-86331380D01*
X51466571Y-86474238D01*
X51371333Y-86569476D01*
X51276095Y-86617095D01*
X52704666Y-86331380D02*
X52514190Y-86331380D01*
X52418952Y-86379000D01*
X52371333Y-86426619D01*
X52276095Y-86569476D01*
X52228476Y-86759952D01*
X52228476Y-87140904D01*
X52276095Y-87236142D01*
X52323714Y-87283761D01*
X52418952Y-87331380D01*
X52609428Y-87331380D01*
X52704666Y-87283761D01*
X52752285Y-87236142D01*
X52799904Y-87140904D01*
X52799904Y-86902809D01*
X52752285Y-86807571D01*
X52704666Y-86759952D01*
X52609428Y-86712333D01*
X52418952Y-86712333D01*
X52323714Y-86759952D01*
X52276095Y-86807571D01*
X52228476Y-86902809D01*
X53990380Y-87331380D02*
X53990380Y-86664714D01*
X53990380Y-86759952D02*
X54038000Y-86712333D01*
X54133238Y-86664714D01*
X54276095Y-86664714D01*
X54371333Y-86712333D01*
X54418952Y-86807571D01*
X54418952Y-87331380D01*
X54418952Y-86807571D02*
X54466571Y-86712333D01*
X54561809Y-86664714D01*
X54704666Y-86664714D01*
X54799904Y-86712333D01*
X54847523Y-86807571D01*
X54847523Y-87331380D01*
X55323714Y-87331380D02*
X55323714Y-86664714D01*
X55323714Y-86759952D02*
X55371333Y-86712333D01*
X55466571Y-86664714D01*
X55609428Y-86664714D01*
X55704666Y-86712333D01*
X55752285Y-86807571D01*
X55752285Y-87331380D01*
X55752285Y-86807571D02*
X55799904Y-86712333D01*
X55895142Y-86664714D01*
X56038000Y-86664714D01*
X56133238Y-86712333D01*
X56180857Y-86807571D01*
X56180857Y-87331380D01*
X56561809Y-87712333D02*
X56609428Y-87664714D01*
X56704666Y-87521857D01*
X56752285Y-87426619D01*
X56799904Y-87283761D01*
X56847523Y-87045666D01*
X56847523Y-86855190D01*
X56799904Y-86617095D01*
X56752285Y-86474238D01*
X56704666Y-86379000D01*
X56609428Y-86236142D01*
X56561809Y-86188523D01*
X46371333Y-50157571D02*
X46038000Y-50157571D01*
X46038000Y-50681380D02*
X46038000Y-49681380D01*
X46514190Y-49681380D01*
X46895142Y-50681380D02*
X46895142Y-50014714D01*
X46895142Y-49681380D02*
X46847523Y-49729000D01*
X46895142Y-49776619D01*
X46942761Y-49729000D01*
X46895142Y-49681380D01*
X46895142Y-49776619D01*
X47228476Y-50014714D02*
X47609428Y-50014714D01*
X47371333Y-49681380D02*
X47371333Y-50538523D01*
X47418952Y-50633761D01*
X47514190Y-50681380D01*
X47609428Y-50681380D01*
X48847523Y-50681380D02*
X48752285Y-50633761D01*
X48704666Y-50586142D01*
X48657047Y-50490904D01*
X48657047Y-50205190D01*
X48704666Y-50109952D01*
X48752285Y-50062333D01*
X48847523Y-50014714D01*
X48990380Y-50014714D01*
X49085619Y-50062333D01*
X49133238Y-50109952D01*
X49180857Y-50205190D01*
X49180857Y-50490904D01*
X49133238Y-50586142D01*
X49085619Y-50633761D01*
X48990380Y-50681380D01*
X48847523Y-50681380D01*
X49609428Y-50014714D02*
X49609428Y-50681380D01*
X49609428Y-50109952D02*
X49657047Y-50062333D01*
X49752285Y-50014714D01*
X49895142Y-50014714D01*
X49990380Y-50062333D01*
X50038000Y-50157571D01*
X50038000Y-50681380D01*
X50895142Y-50633761D02*
X50799904Y-50681380D01*
X50609428Y-50681380D01*
X50514190Y-50633761D01*
X50466571Y-50538523D01*
X50466571Y-50157571D01*
X50514190Y-50062333D01*
X50609428Y-50014714D01*
X50799904Y-50014714D01*
X50895142Y-50062333D01*
X50942761Y-50157571D01*
X50942761Y-50252809D01*
X50466571Y-50348047D01*
X52133238Y-50014714D02*
X52133238Y-51014714D01*
X52133238Y-50062333D02*
X52228476Y-50014714D01*
X52418952Y-50014714D01*
X52514190Y-50062333D01*
X52561809Y-50109952D01*
X52609428Y-50205190D01*
X52609428Y-50490904D01*
X52561809Y-50586142D01*
X52514190Y-50633761D01*
X52418952Y-50681380D01*
X52228476Y-50681380D01*
X52133238Y-50633761D01*
X53180857Y-50681380D02*
X53085619Y-50633761D01*
X53038000Y-50586142D01*
X52990380Y-50490904D01*
X52990380Y-50205190D01*
X53038000Y-50109952D01*
X53085619Y-50062333D01*
X53180857Y-50014714D01*
X53323714Y-50014714D01*
X53418952Y-50062333D01*
X53466571Y-50109952D01*
X53514190Y-50205190D01*
X53514190Y-50490904D01*
X53466571Y-50586142D01*
X53418952Y-50633761D01*
X53323714Y-50681380D01*
X53180857Y-50681380D01*
X53799904Y-50014714D02*
X54180857Y-50014714D01*
X53942761Y-49681380D02*
X53942761Y-50538523D01*
X53990380Y-50633761D01*
X54085619Y-50681380D01*
X54180857Y-50681380D01*
X43514190Y-52712333D02*
X43466571Y-52664714D01*
X43371333Y-52521857D01*
X43323714Y-52426619D01*
X43276095Y-52283761D01*
X43228476Y-52045666D01*
X43228476Y-51855190D01*
X43276095Y-51617095D01*
X43323714Y-51474238D01*
X43371333Y-51379000D01*
X43466571Y-51236142D01*
X43514190Y-51188523D01*
X43942761Y-52331380D02*
X44133238Y-52331380D01*
X44228476Y-52283761D01*
X44276095Y-52236142D01*
X44371333Y-52093285D01*
X44418952Y-51902809D01*
X44418952Y-51521857D01*
X44371333Y-51426619D01*
X44323714Y-51379000D01*
X44228476Y-51331380D01*
X44038000Y-51331380D01*
X43942761Y-51379000D01*
X43895142Y-51426619D01*
X43847523Y-51521857D01*
X43847523Y-51759952D01*
X43895142Y-51855190D01*
X43942761Y-51902809D01*
X44038000Y-51950428D01*
X44228476Y-51950428D01*
X44323714Y-51902809D01*
X44371333Y-51855190D01*
X44418952Y-51759952D01*
X45609428Y-52331380D02*
X45609428Y-51664714D01*
X45609428Y-51759952D02*
X45657047Y-51712333D01*
X45752285Y-51664714D01*
X45895142Y-51664714D01*
X45990380Y-51712333D01*
X46038000Y-51807571D01*
X46038000Y-52331380D01*
X46038000Y-51807571D02*
X46085619Y-51712333D01*
X46180857Y-51664714D01*
X46323714Y-51664714D01*
X46418952Y-51712333D01*
X46466571Y-51807571D01*
X46466571Y-52331380D01*
X46942761Y-52331380D02*
X46942761Y-51664714D01*
X46942761Y-51759952D02*
X46990380Y-51712333D01*
X47085619Y-51664714D01*
X47228476Y-51664714D01*
X47323714Y-51712333D01*
X47371333Y-51807571D01*
X47371333Y-52331380D01*
X47371333Y-51807571D02*
X47418952Y-51712333D01*
X47514190Y-51664714D01*
X47657047Y-51664714D01*
X47752285Y-51712333D01*
X47799904Y-51807571D01*
X47799904Y-52331380D01*
X49180857Y-52331380D02*
X49085619Y-52283761D01*
X49038000Y-52236142D01*
X48990380Y-52140904D01*
X48990380Y-51855190D01*
X49038000Y-51759952D01*
X49085619Y-51712333D01*
X49180857Y-51664714D01*
X49323714Y-51664714D01*
X49418952Y-51712333D01*
X49466571Y-51759952D01*
X49514190Y-51855190D01*
X49514190Y-52140904D01*
X49466571Y-52236142D01*
X49418952Y-52283761D01*
X49323714Y-52331380D01*
X49180857Y-52331380D01*
X49942761Y-52331380D02*
X49942761Y-51664714D01*
X49942761Y-51855190D02*
X49990380Y-51759952D01*
X50038000Y-51712333D01*
X50133238Y-51664714D01*
X50228476Y-51664714D01*
X51847523Y-52331380D02*
X51276095Y-52331380D01*
X51561809Y-52331380D02*
X51561809Y-51331380D01*
X51466571Y-51474238D01*
X51371333Y-51569476D01*
X51276095Y-51617095D01*
X52704666Y-51331380D02*
X52514190Y-51331380D01*
X52418952Y-51379000D01*
X52371333Y-51426619D01*
X52276095Y-51569476D01*
X52228476Y-51759952D01*
X52228476Y-52140904D01*
X52276095Y-52236142D01*
X52323714Y-52283761D01*
X52418952Y-52331380D01*
X52609428Y-52331380D01*
X52704666Y-52283761D01*
X52752285Y-52236142D01*
X52799904Y-52140904D01*
X52799904Y-51902809D01*
X52752285Y-51807571D01*
X52704666Y-51759952D01*
X52609428Y-51712333D01*
X52418952Y-51712333D01*
X52323714Y-51759952D01*
X52276095Y-51807571D01*
X52228476Y-51902809D01*
X53990380Y-52331380D02*
X53990380Y-51664714D01*
X53990380Y-51759952D02*
X54038000Y-51712333D01*
X54133238Y-51664714D01*
X54276095Y-51664714D01*
X54371333Y-51712333D01*
X54418952Y-51807571D01*
X54418952Y-52331380D01*
X54418952Y-51807571D02*
X54466571Y-51712333D01*
X54561809Y-51664714D01*
X54704666Y-51664714D01*
X54799904Y-51712333D01*
X54847523Y-51807571D01*
X54847523Y-52331380D01*
X55323714Y-52331380D02*
X55323714Y-51664714D01*
X55323714Y-51759952D02*
X55371333Y-51712333D01*
X55466571Y-51664714D01*
X55609428Y-51664714D01*
X55704666Y-51712333D01*
X55752285Y-51807571D01*
X55752285Y-52331380D01*
X55752285Y-51807571D02*
X55799904Y-51712333D01*
X55895142Y-51664714D01*
X56038000Y-51664714D01*
X56133238Y-51712333D01*
X56180857Y-51807571D01*
X56180857Y-52331380D01*
X56561809Y-52712333D02*
X56609428Y-52664714D01*
X56704666Y-52521857D01*
X56752285Y-52426619D01*
X56799904Y-52283761D01*
X56847523Y-52045666D01*
X56847523Y-51855190D01*
X56799904Y-51617095D01*
X56752285Y-51474238D01*
X56704666Y-51379000D01*
X56609428Y-51236142D01*
X56561809Y-51188523D01*
X46371333Y-120157571D02*
X46038000Y-120157571D01*
X46038000Y-120681380D02*
X46038000Y-119681380D01*
X46514190Y-119681380D01*
X46895142Y-120681380D02*
X46895142Y-120014714D01*
X46895142Y-119681380D02*
X46847523Y-119729000D01*
X46895142Y-119776619D01*
X46942761Y-119729000D01*
X46895142Y-119681380D01*
X46895142Y-119776619D01*
X47228476Y-120014714D02*
X47609428Y-120014714D01*
X47371333Y-119681380D02*
X47371333Y-120538523D01*
X47418952Y-120633761D01*
X47514190Y-120681380D01*
X47609428Y-120681380D01*
X48847523Y-120681380D02*
X48752285Y-120633761D01*
X48704666Y-120586142D01*
X48657047Y-120490904D01*
X48657047Y-120205190D01*
X48704666Y-120109952D01*
X48752285Y-120062333D01*
X48847523Y-120014714D01*
X48990380Y-120014714D01*
X49085619Y-120062333D01*
X49133238Y-120109952D01*
X49180857Y-120205190D01*
X49180857Y-120490904D01*
X49133238Y-120586142D01*
X49085619Y-120633761D01*
X48990380Y-120681380D01*
X48847523Y-120681380D01*
X49609428Y-120014714D02*
X49609428Y-120681380D01*
X49609428Y-120109952D02*
X49657047Y-120062333D01*
X49752285Y-120014714D01*
X49895142Y-120014714D01*
X49990380Y-120062333D01*
X50038000Y-120157571D01*
X50038000Y-120681380D01*
X50895142Y-120633761D02*
X50799904Y-120681380D01*
X50609428Y-120681380D01*
X50514190Y-120633761D01*
X50466571Y-120538523D01*
X50466571Y-120157571D01*
X50514190Y-120062333D01*
X50609428Y-120014714D01*
X50799904Y-120014714D01*
X50895142Y-120062333D01*
X50942761Y-120157571D01*
X50942761Y-120252809D01*
X50466571Y-120348047D01*
X52133238Y-120014714D02*
X52133238Y-121014714D01*
X52133238Y-120062333D02*
X52228476Y-120014714D01*
X52418952Y-120014714D01*
X52514190Y-120062333D01*
X52561809Y-120109952D01*
X52609428Y-120205190D01*
X52609428Y-120490904D01*
X52561809Y-120586142D01*
X52514190Y-120633761D01*
X52418952Y-120681380D01*
X52228476Y-120681380D01*
X52133238Y-120633761D01*
X53180857Y-120681380D02*
X53085619Y-120633761D01*
X53038000Y-120586142D01*
X52990380Y-120490904D01*
X52990380Y-120205190D01*
X53038000Y-120109952D01*
X53085619Y-120062333D01*
X53180857Y-120014714D01*
X53323714Y-120014714D01*
X53418952Y-120062333D01*
X53466571Y-120109952D01*
X53514190Y-120205190D01*
X53514190Y-120490904D01*
X53466571Y-120586142D01*
X53418952Y-120633761D01*
X53323714Y-120681380D01*
X53180857Y-120681380D01*
X53799904Y-120014714D02*
X54180857Y-120014714D01*
X53942761Y-119681380D02*
X53942761Y-120538523D01*
X53990380Y-120633761D01*
X54085619Y-120681380D01*
X54180857Y-120681380D01*
X43514190Y-122712333D02*
X43466571Y-122664714D01*
X43371333Y-122521857D01*
X43323714Y-122426619D01*
X43276095Y-122283761D01*
X43228476Y-122045666D01*
X43228476Y-121855190D01*
X43276095Y-121617095D01*
X43323714Y-121474238D01*
X43371333Y-121379000D01*
X43466571Y-121236142D01*
X43514190Y-121188523D01*
X43942761Y-122331380D02*
X44133238Y-122331380D01*
X44228476Y-122283761D01*
X44276095Y-122236142D01*
X44371333Y-122093285D01*
X44418952Y-121902809D01*
X44418952Y-121521857D01*
X44371333Y-121426619D01*
X44323714Y-121379000D01*
X44228476Y-121331380D01*
X44038000Y-121331380D01*
X43942761Y-121379000D01*
X43895142Y-121426619D01*
X43847523Y-121521857D01*
X43847523Y-121759952D01*
X43895142Y-121855190D01*
X43942761Y-121902809D01*
X44038000Y-121950428D01*
X44228476Y-121950428D01*
X44323714Y-121902809D01*
X44371333Y-121855190D01*
X44418952Y-121759952D01*
X45609428Y-122331380D02*
X45609428Y-121664714D01*
X45609428Y-121759952D02*
X45657047Y-121712333D01*
X45752285Y-121664714D01*
X45895142Y-121664714D01*
X45990380Y-121712333D01*
X46038000Y-121807571D01*
X46038000Y-122331380D01*
X46038000Y-121807571D02*
X46085619Y-121712333D01*
X46180857Y-121664714D01*
X46323714Y-121664714D01*
X46418952Y-121712333D01*
X46466571Y-121807571D01*
X46466571Y-122331380D01*
X46942761Y-122331380D02*
X46942761Y-121664714D01*
X46942761Y-121759952D02*
X46990380Y-121712333D01*
X47085619Y-121664714D01*
X47228476Y-121664714D01*
X47323714Y-121712333D01*
X47371333Y-121807571D01*
X47371333Y-122331380D01*
X47371333Y-121807571D02*
X47418952Y-121712333D01*
X47514190Y-121664714D01*
X47657047Y-121664714D01*
X47752285Y-121712333D01*
X47799904Y-121807571D01*
X47799904Y-122331380D01*
X49180857Y-122331380D02*
X49085619Y-122283761D01*
X49038000Y-122236142D01*
X48990380Y-122140904D01*
X48990380Y-121855190D01*
X49038000Y-121759952D01*
X49085619Y-121712333D01*
X49180857Y-121664714D01*
X49323714Y-121664714D01*
X49418952Y-121712333D01*
X49466571Y-121759952D01*
X49514190Y-121855190D01*
X49514190Y-122140904D01*
X49466571Y-122236142D01*
X49418952Y-122283761D01*
X49323714Y-122331380D01*
X49180857Y-122331380D01*
X49942761Y-122331380D02*
X49942761Y-121664714D01*
X49942761Y-121855190D02*
X49990380Y-121759952D01*
X50038000Y-121712333D01*
X50133238Y-121664714D01*
X50228476Y-121664714D01*
X51847523Y-122331380D02*
X51276095Y-122331380D01*
X51561809Y-122331380D02*
X51561809Y-121331380D01*
X51466571Y-121474238D01*
X51371333Y-121569476D01*
X51276095Y-121617095D01*
X52704666Y-121331380D02*
X52514190Y-121331380D01*
X52418952Y-121379000D01*
X52371333Y-121426619D01*
X52276095Y-121569476D01*
X52228476Y-121759952D01*
X52228476Y-122140904D01*
X52276095Y-122236142D01*
X52323714Y-122283761D01*
X52418952Y-122331380D01*
X52609428Y-122331380D01*
X52704666Y-122283761D01*
X52752285Y-122236142D01*
X52799904Y-122140904D01*
X52799904Y-121902809D01*
X52752285Y-121807571D01*
X52704666Y-121759952D01*
X52609428Y-121712333D01*
X52418952Y-121712333D01*
X52323714Y-121759952D01*
X52276095Y-121807571D01*
X52228476Y-121902809D01*
X53990380Y-122331380D02*
X53990380Y-121664714D01*
X53990380Y-121759952D02*
X54038000Y-121712333D01*
X54133238Y-121664714D01*
X54276095Y-121664714D01*
X54371333Y-121712333D01*
X54418952Y-121807571D01*
X54418952Y-122331380D01*
X54418952Y-121807571D02*
X54466571Y-121712333D01*
X54561809Y-121664714D01*
X54704666Y-121664714D01*
X54799904Y-121712333D01*
X54847523Y-121807571D01*
X54847523Y-122331380D01*
X55323714Y-122331380D02*
X55323714Y-121664714D01*
X55323714Y-121759952D02*
X55371333Y-121712333D01*
X55466571Y-121664714D01*
X55609428Y-121664714D01*
X55704666Y-121712333D01*
X55752285Y-121807571D01*
X55752285Y-122331380D01*
X55752285Y-121807571D02*
X55799904Y-121712333D01*
X55895142Y-121664714D01*
X56038000Y-121664714D01*
X56133238Y-121712333D01*
X56180857Y-121807571D01*
X56180857Y-122331380D01*
X56561809Y-122712333D02*
X56609428Y-122664714D01*
X56704666Y-122521857D01*
X56752285Y-122426619D01*
X56799904Y-122283761D01*
X56847523Y-122045666D01*
X56847523Y-121855190D01*
X56799904Y-121617095D01*
X56752285Y-121474238D01*
X56704666Y-121379000D01*
X56609428Y-121236142D01*
X56561809Y-121188523D01*
X17851380Y-49187571D02*
X16851380Y-49187571D01*
X16851380Y-48806619D01*
X16899000Y-48711380D01*
X16946619Y-48663761D01*
X17041857Y-48616142D01*
X17184714Y-48616142D01*
X17279952Y-48663761D01*
X17327571Y-48711380D01*
X17375190Y-48806619D01*
X17375190Y-49187571D01*
X17851380Y-48187571D02*
X17184714Y-48187571D01*
X17375190Y-48187571D02*
X17279952Y-48139952D01*
X17232333Y-48092333D01*
X17184714Y-47997095D01*
X17184714Y-47901857D01*
X17803761Y-47187571D02*
X17851380Y-47282809D01*
X17851380Y-47473285D01*
X17803761Y-47568523D01*
X17708523Y-47616142D01*
X17327571Y-47616142D01*
X17232333Y-47568523D01*
X17184714Y-47473285D01*
X17184714Y-47282809D01*
X17232333Y-47187571D01*
X17327571Y-47139952D01*
X17422809Y-47139952D01*
X17518047Y-47616142D01*
X17803761Y-46282809D02*
X17851380Y-46378047D01*
X17851380Y-46568523D01*
X17803761Y-46663761D01*
X17756142Y-46711380D01*
X17660904Y-46759000D01*
X17375190Y-46759000D01*
X17279952Y-46711380D01*
X17232333Y-46663761D01*
X17184714Y-46568523D01*
X17184714Y-46378047D01*
X17232333Y-46282809D01*
X17851380Y-45854238D02*
X17184714Y-45854238D01*
X16851380Y-45854238D02*
X16899000Y-45901857D01*
X16946619Y-45854238D01*
X16899000Y-45806619D01*
X16851380Y-45854238D01*
X16946619Y-45854238D01*
X17803761Y-45425666D02*
X17851380Y-45330428D01*
X17851380Y-45139952D01*
X17803761Y-45044714D01*
X17708523Y-44997095D01*
X17660904Y-44997095D01*
X17565666Y-45044714D01*
X17518047Y-45139952D01*
X17518047Y-45282809D01*
X17470428Y-45378047D01*
X17375190Y-45425666D01*
X17327571Y-45425666D01*
X17232333Y-45378047D01*
X17184714Y-45282809D01*
X17184714Y-45139952D01*
X17232333Y-45044714D01*
X17851380Y-44568523D02*
X17184714Y-44568523D01*
X16851380Y-44568523D02*
X16899000Y-44616142D01*
X16946619Y-44568523D01*
X16899000Y-44520904D01*
X16851380Y-44568523D01*
X16946619Y-44568523D01*
X17851380Y-43949476D02*
X17803761Y-44044714D01*
X17756142Y-44092333D01*
X17660904Y-44139952D01*
X17375190Y-44139952D01*
X17279952Y-44092333D01*
X17232333Y-44044714D01*
X17184714Y-43949476D01*
X17184714Y-43806619D01*
X17232333Y-43711380D01*
X17279952Y-43663761D01*
X17375190Y-43616142D01*
X17660904Y-43616142D01*
X17756142Y-43663761D01*
X17803761Y-43711380D01*
X17851380Y-43806619D01*
X17851380Y-43949476D01*
X17184714Y-43187571D02*
X17851380Y-43187571D01*
X17279952Y-43187571D02*
X17232333Y-43139952D01*
X17184714Y-43044714D01*
X17184714Y-42901857D01*
X17232333Y-42806619D01*
X17327571Y-42759000D01*
X17851380Y-42759000D01*
X17565666Y-41568523D02*
X17565666Y-41092333D01*
X17851380Y-41663761D02*
X16851380Y-41330428D01*
X17851380Y-40997095D01*
X17851380Y-40663761D02*
X16851380Y-40663761D01*
X16851380Y-40425666D01*
X16899000Y-40282809D01*
X16994238Y-40187571D01*
X17089476Y-40139952D01*
X17279952Y-40092333D01*
X17422809Y-40092333D01*
X17613285Y-40139952D01*
X17708523Y-40187571D01*
X17803761Y-40282809D01*
X17851380Y-40425666D01*
X17851380Y-40663761D01*
X17803761Y-39711380D02*
X17851380Y-39568523D01*
X17851380Y-39330428D01*
X17803761Y-39235190D01*
X17756142Y-39187571D01*
X17660904Y-39139952D01*
X17565666Y-39139952D01*
X17470428Y-39187571D01*
X17422809Y-39235190D01*
X17375190Y-39330428D01*
X17327571Y-39520904D01*
X17279952Y-39616142D01*
X17232333Y-39663761D01*
X17137095Y-39711380D01*
X17041857Y-39711380D01*
X16946619Y-39663761D01*
X16899000Y-39616142D01*
X16851380Y-39520904D01*
X16851380Y-39282809D01*
X16899000Y-39139952D01*
X17851380Y-38139952D02*
X17375190Y-38473285D01*
X17851380Y-38711380D02*
X16851380Y-38711380D01*
X16851380Y-38330428D01*
X16899000Y-38235190D01*
X16946619Y-38187571D01*
X17041857Y-38139952D01*
X17184714Y-38139952D01*
X17279952Y-38187571D01*
X17327571Y-38235190D01*
X17375190Y-38330428D01*
X17375190Y-38711380D01*
X17327571Y-36616142D02*
X17375190Y-36473285D01*
X17422809Y-36425666D01*
X17518047Y-36378047D01*
X17660904Y-36378047D01*
X17756142Y-36425666D01*
X17803761Y-36473285D01*
X17851380Y-36568523D01*
X17851380Y-36949476D01*
X16851380Y-36949476D01*
X16851380Y-36616142D01*
X16899000Y-36520904D01*
X16946619Y-36473285D01*
X17041857Y-36425666D01*
X17137095Y-36425666D01*
X17232333Y-36473285D01*
X17279952Y-36520904D01*
X17327571Y-36616142D01*
X17327571Y-36949476D01*
X17851380Y-35806619D02*
X17803761Y-35901857D01*
X17756142Y-35949476D01*
X17660904Y-35997095D01*
X17375190Y-35997095D01*
X17279952Y-35949476D01*
X17232333Y-35901857D01*
X17184714Y-35806619D01*
X17184714Y-35663761D01*
X17232333Y-35568523D01*
X17279952Y-35520904D01*
X17375190Y-35473285D01*
X17660904Y-35473285D01*
X17756142Y-35520904D01*
X17803761Y-35568523D01*
X17851380Y-35663761D01*
X17851380Y-35806619D01*
X17851380Y-34616142D02*
X17327571Y-34616142D01*
X17232333Y-34663761D01*
X17184714Y-34759000D01*
X17184714Y-34949476D01*
X17232333Y-35044714D01*
X17803761Y-34616142D02*
X17851380Y-34711380D01*
X17851380Y-34949476D01*
X17803761Y-35044714D01*
X17708523Y-35092333D01*
X17613285Y-35092333D01*
X17518047Y-35044714D01*
X17470428Y-34949476D01*
X17470428Y-34711380D01*
X17422809Y-34616142D01*
X17851380Y-34139952D02*
X17184714Y-34139952D01*
X17375190Y-34139952D02*
X17279952Y-34092333D01*
X17232333Y-34044714D01*
X17184714Y-33949476D01*
X17184714Y-33854238D01*
X17851380Y-33092333D02*
X16851380Y-33092333D01*
X17803761Y-33092333D02*
X17851380Y-33187571D01*
X17851380Y-33378047D01*
X17803761Y-33473285D01*
X17756142Y-33520904D01*
X17660904Y-33568523D01*
X17375190Y-33568523D01*
X17279952Y-33520904D01*
X17232333Y-33473285D01*
X17184714Y-33378047D01*
X17184714Y-33187571D01*
X17232333Y-33092333D01*
X17327571Y-31520904D02*
X17375190Y-31378047D01*
X17422809Y-31330428D01*
X17518047Y-31282809D01*
X17660904Y-31282809D01*
X17756142Y-31330428D01*
X17803761Y-31378047D01*
X17851380Y-31473285D01*
X17851380Y-31854238D01*
X16851380Y-31854238D01*
X16851380Y-31520904D01*
X16899000Y-31425666D01*
X16946619Y-31378047D01*
X17041857Y-31330428D01*
X17137095Y-31330428D01*
X17232333Y-31378047D01*
X17279952Y-31425666D01*
X17327571Y-31520904D01*
X17327571Y-31854238D01*
X46371333Y-155157571D02*
X46038000Y-155157571D01*
X46038000Y-155681380D02*
X46038000Y-154681380D01*
X46514190Y-154681380D01*
X46895142Y-155681380D02*
X46895142Y-155014714D01*
X46895142Y-154681380D02*
X46847523Y-154729000D01*
X46895142Y-154776619D01*
X46942761Y-154729000D01*
X46895142Y-154681380D01*
X46895142Y-154776619D01*
X47228476Y-155014714D02*
X47609428Y-155014714D01*
X47371333Y-154681380D02*
X47371333Y-155538523D01*
X47418952Y-155633761D01*
X47514190Y-155681380D01*
X47609428Y-155681380D01*
X48847523Y-155681380D02*
X48752285Y-155633761D01*
X48704666Y-155586142D01*
X48657047Y-155490904D01*
X48657047Y-155205190D01*
X48704666Y-155109952D01*
X48752285Y-155062333D01*
X48847523Y-155014714D01*
X48990380Y-155014714D01*
X49085619Y-155062333D01*
X49133238Y-155109952D01*
X49180857Y-155205190D01*
X49180857Y-155490904D01*
X49133238Y-155586142D01*
X49085619Y-155633761D01*
X48990380Y-155681380D01*
X48847523Y-155681380D01*
X49609428Y-155014714D02*
X49609428Y-155681380D01*
X49609428Y-155109952D02*
X49657047Y-155062333D01*
X49752285Y-155014714D01*
X49895142Y-155014714D01*
X49990380Y-155062333D01*
X50038000Y-155157571D01*
X50038000Y-155681380D01*
X50895142Y-155633761D02*
X50799904Y-155681380D01*
X50609428Y-155681380D01*
X50514190Y-155633761D01*
X50466571Y-155538523D01*
X50466571Y-155157571D01*
X50514190Y-155062333D01*
X50609428Y-155014714D01*
X50799904Y-155014714D01*
X50895142Y-155062333D01*
X50942761Y-155157571D01*
X50942761Y-155252809D01*
X50466571Y-155348047D01*
X52133238Y-155014714D02*
X52133238Y-156014714D01*
X52133238Y-155062333D02*
X52228476Y-155014714D01*
X52418952Y-155014714D01*
X52514190Y-155062333D01*
X52561809Y-155109952D01*
X52609428Y-155205190D01*
X52609428Y-155490904D01*
X52561809Y-155586142D01*
X52514190Y-155633761D01*
X52418952Y-155681380D01*
X52228476Y-155681380D01*
X52133238Y-155633761D01*
X53180857Y-155681380D02*
X53085619Y-155633761D01*
X53038000Y-155586142D01*
X52990380Y-155490904D01*
X52990380Y-155205190D01*
X53038000Y-155109952D01*
X53085619Y-155062333D01*
X53180857Y-155014714D01*
X53323714Y-155014714D01*
X53418952Y-155062333D01*
X53466571Y-155109952D01*
X53514190Y-155205190D01*
X53514190Y-155490904D01*
X53466571Y-155586142D01*
X53418952Y-155633761D01*
X53323714Y-155681380D01*
X53180857Y-155681380D01*
X53799904Y-155014714D02*
X54180857Y-155014714D01*
X53942761Y-154681380D02*
X53942761Y-155538523D01*
X53990380Y-155633761D01*
X54085619Y-155681380D01*
X54180857Y-155681380D01*
X43514190Y-157712333D02*
X43466571Y-157664714D01*
X43371333Y-157521857D01*
X43323714Y-157426619D01*
X43276095Y-157283761D01*
X43228476Y-157045666D01*
X43228476Y-156855190D01*
X43276095Y-156617095D01*
X43323714Y-156474238D01*
X43371333Y-156379000D01*
X43466571Y-156236142D01*
X43514190Y-156188523D01*
X43942761Y-157331380D02*
X44133238Y-157331380D01*
X44228476Y-157283761D01*
X44276095Y-157236142D01*
X44371333Y-157093285D01*
X44418952Y-156902809D01*
X44418952Y-156521857D01*
X44371333Y-156426619D01*
X44323714Y-156379000D01*
X44228476Y-156331380D01*
X44038000Y-156331380D01*
X43942761Y-156379000D01*
X43895142Y-156426619D01*
X43847523Y-156521857D01*
X43847523Y-156759952D01*
X43895142Y-156855190D01*
X43942761Y-156902809D01*
X44038000Y-156950428D01*
X44228476Y-156950428D01*
X44323714Y-156902809D01*
X44371333Y-156855190D01*
X44418952Y-156759952D01*
X45609428Y-157331380D02*
X45609428Y-156664714D01*
X45609428Y-156759952D02*
X45657047Y-156712333D01*
X45752285Y-156664714D01*
X45895142Y-156664714D01*
X45990380Y-156712333D01*
X46038000Y-156807571D01*
X46038000Y-157331380D01*
X46038000Y-156807571D02*
X46085619Y-156712333D01*
X46180857Y-156664714D01*
X46323714Y-156664714D01*
X46418952Y-156712333D01*
X46466571Y-156807571D01*
X46466571Y-157331380D01*
X46942761Y-157331380D02*
X46942761Y-156664714D01*
X46942761Y-156759952D02*
X46990380Y-156712333D01*
X47085619Y-156664714D01*
X47228476Y-156664714D01*
X47323714Y-156712333D01*
X47371333Y-156807571D01*
X47371333Y-157331380D01*
X47371333Y-156807571D02*
X47418952Y-156712333D01*
X47514190Y-156664714D01*
X47657047Y-156664714D01*
X47752285Y-156712333D01*
X47799904Y-156807571D01*
X47799904Y-157331380D01*
X49180857Y-157331380D02*
X49085619Y-157283761D01*
X49038000Y-157236142D01*
X48990380Y-157140904D01*
X48990380Y-156855190D01*
X49038000Y-156759952D01*
X49085619Y-156712333D01*
X49180857Y-156664714D01*
X49323714Y-156664714D01*
X49418952Y-156712333D01*
X49466571Y-156759952D01*
X49514190Y-156855190D01*
X49514190Y-157140904D01*
X49466571Y-157236142D01*
X49418952Y-157283761D01*
X49323714Y-157331380D01*
X49180857Y-157331380D01*
X49942761Y-157331380D02*
X49942761Y-156664714D01*
X49942761Y-156855190D02*
X49990380Y-156759952D01*
X50038000Y-156712333D01*
X50133238Y-156664714D01*
X50228476Y-156664714D01*
X51847523Y-157331380D02*
X51276095Y-157331380D01*
X51561809Y-157331380D02*
X51561809Y-156331380D01*
X51466571Y-156474238D01*
X51371333Y-156569476D01*
X51276095Y-156617095D01*
X52704666Y-156331380D02*
X52514190Y-156331380D01*
X52418952Y-156379000D01*
X52371333Y-156426619D01*
X52276095Y-156569476D01*
X52228476Y-156759952D01*
X52228476Y-157140904D01*
X52276095Y-157236142D01*
X52323714Y-157283761D01*
X52418952Y-157331380D01*
X52609428Y-157331380D01*
X52704666Y-157283761D01*
X52752285Y-157236142D01*
X52799904Y-157140904D01*
X52799904Y-156902809D01*
X52752285Y-156807571D01*
X52704666Y-156759952D01*
X52609428Y-156712333D01*
X52418952Y-156712333D01*
X52323714Y-156759952D01*
X52276095Y-156807571D01*
X52228476Y-156902809D01*
X53990380Y-157331380D02*
X53990380Y-156664714D01*
X53990380Y-156759952D02*
X54038000Y-156712333D01*
X54133238Y-156664714D01*
X54276095Y-156664714D01*
X54371333Y-156712333D01*
X54418952Y-156807571D01*
X54418952Y-157331380D01*
X54418952Y-156807571D02*
X54466571Y-156712333D01*
X54561809Y-156664714D01*
X54704666Y-156664714D01*
X54799904Y-156712333D01*
X54847523Y-156807571D01*
X54847523Y-157331380D01*
X55323714Y-157331380D02*
X55323714Y-156664714D01*
X55323714Y-156759952D02*
X55371333Y-156712333D01*
X55466571Y-156664714D01*
X55609428Y-156664714D01*
X55704666Y-156712333D01*
X55752285Y-156807571D01*
X55752285Y-157331380D01*
X55752285Y-156807571D02*
X55799904Y-156712333D01*
X55895142Y-156664714D01*
X56038000Y-156664714D01*
X56133238Y-156712333D01*
X56180857Y-156807571D01*
X56180857Y-157331380D01*
X56561809Y-157712333D02*
X56609428Y-157664714D01*
X56704666Y-157521857D01*
X56752285Y-157426619D01*
X56799904Y-157283761D01*
X56847523Y-157045666D01*
X56847523Y-156855190D01*
X56799904Y-156617095D01*
X56752285Y-156474238D01*
X56704666Y-156379000D01*
X56609428Y-156236142D01*
X56561809Y-156188523D01*
D11*
%TO.C,R26*%
X51660000Y-81620000D02*
X50830000Y-81620000D01*
X49210000Y-81620000D02*
X48680000Y-81620000D01*
X46310000Y-81620000D02*
X45130000Y-81620000D01*
X54870000Y-81620000D02*
X54870000Y-76900000D01*
X45130000Y-73090000D02*
X45130000Y-70030000D01*
X45120000Y-81620000D02*
X45120000Y-76900000D01*
X54870000Y-73090000D02*
X54870000Y-70030000D01*
X54870000Y-81620000D02*
X53380000Y-81620000D01*
X54870000Y-70030000D02*
X45130000Y-70030000D01*
%TO.C,R31*%
X44000000Y-125000000D02*
X41000000Y-125000000D01*
X49000000Y-125000000D02*
X46000000Y-125000000D01*
X54000000Y-125000000D02*
X51000000Y-125000000D01*
X59000000Y-125000000D02*
X56000000Y-125000000D01*
X59000000Y-101000000D02*
X59000000Y-125000000D01*
X41000000Y-101000000D02*
X59000000Y-101000000D01*
X41000000Y-125000000D02*
X41000000Y-101000000D01*
%TO.C,R27*%
X44000000Y-90000000D02*
X41000000Y-90000000D01*
X49000000Y-90000000D02*
X46000000Y-90000000D01*
X54000000Y-90000000D02*
X51000000Y-90000000D01*
X59000000Y-90000000D02*
X56000000Y-90000000D01*
X59000000Y-66000000D02*
X59000000Y-90000000D01*
X41000000Y-66000000D02*
X59000000Y-66000000D01*
X41000000Y-90000000D02*
X41000000Y-66000000D01*
%TO.C,R24*%
X51660000Y-46620000D02*
X50830000Y-46620000D01*
X49210000Y-46620000D02*
X48680000Y-46620000D01*
X46310000Y-46620000D02*
X45130000Y-46620000D01*
X54870000Y-46620000D02*
X54870000Y-41900000D01*
X45130000Y-38090000D02*
X45130000Y-35030000D01*
X45120000Y-46620000D02*
X45120000Y-41900000D01*
X54870000Y-38090000D02*
X54870000Y-35030000D01*
X54870000Y-46620000D02*
X53380000Y-46620000D01*
X54870000Y-35030000D02*
X45130000Y-35030000D01*
%TO.C,S2*%
X29430000Y-33650000D02*
X29430000Y-46350000D01*
X29430000Y-46350000D02*
X22570000Y-46350000D01*
X22570000Y-46340000D02*
X22570000Y-33650000D01*
X22570000Y-33650000D02*
X29420000Y-33650000D01*
X29420000Y-33650000D02*
X29420000Y-33660000D01*
%TO.C,R25*%
X44000000Y-55000000D02*
X41000000Y-55000000D01*
X49000000Y-55000000D02*
X46000000Y-55000000D01*
X54000000Y-55000000D02*
X51000000Y-55000000D01*
X59000000Y-55000000D02*
X56000000Y-55000000D01*
X59000000Y-31000000D02*
X59000000Y-55000000D01*
X41000000Y-31000000D02*
X59000000Y-31000000D01*
X41000000Y-55000000D02*
X41000000Y-31000000D01*
%TO.C,R29*%
X44000000Y-160000000D02*
X41000000Y-160000000D01*
X49000000Y-160000000D02*
X46000000Y-160000000D01*
X54000000Y-160000000D02*
X51000000Y-160000000D01*
X59000000Y-160000000D02*
X56000000Y-160000000D01*
X59000000Y-136000000D02*
X59000000Y-160000000D01*
X41000000Y-136000000D02*
X59000000Y-136000000D01*
X41000000Y-160000000D02*
X41000000Y-136000000D01*
%TO.C,R28*%
X51660000Y-151620000D02*
X50830000Y-151620000D01*
X49210000Y-151620000D02*
X48680000Y-151620000D01*
X46310000Y-151620000D02*
X45130000Y-151620000D01*
X54870000Y-151620000D02*
X54870000Y-146900000D01*
X45130000Y-143090000D02*
X45130000Y-140030000D01*
X45120000Y-151620000D02*
X45120000Y-146900000D01*
X54870000Y-143090000D02*
X54870000Y-140030000D01*
X54870000Y-151620000D02*
X53380000Y-151620000D01*
X54870000Y-140030000D02*
X45130000Y-140030000D01*
%TO.C,S1*%
X17870000Y-81350000D02*
X17870000Y-68650000D01*
X17870000Y-68650000D02*
X34130000Y-68660000D01*
X34130000Y-68660000D02*
X34130000Y-81350000D01*
X34130000Y-81350000D02*
X17870000Y-81350000D01*
X20165000Y-81350000D02*
X20165000Y-81340000D01*
%TO.C,R30*%
X51660000Y-116620000D02*
X50830000Y-116620000D01*
X49210000Y-116620000D02*
X48680000Y-116620000D01*
X46310000Y-116620000D02*
X45130000Y-116620000D01*
X54870000Y-116620000D02*
X54870000Y-111900000D01*
X45130000Y-108090000D02*
X45130000Y-105030000D01*
X45120000Y-116620000D02*
X45120000Y-111900000D01*
X54870000Y-108090000D02*
X54870000Y-105030000D01*
X54870000Y-116620000D02*
X53380000Y-116620000D01*
X54870000Y-105030000D02*
X45130000Y-105030000D01*
%TO.C,R26*%
D10*
X43039285Y-76532142D02*
X42682142Y-76782142D01*
X43039285Y-76960714D02*
X42289285Y-76960714D01*
X42289285Y-76675000D01*
X42325000Y-76603571D01*
X42360714Y-76567857D01*
X42432142Y-76532142D01*
X42539285Y-76532142D01*
X42610714Y-76567857D01*
X42646428Y-76603571D01*
X42682142Y-76675000D01*
X42682142Y-76960714D01*
X42360714Y-76246428D02*
X42325000Y-76210714D01*
X42289285Y-76139285D01*
X42289285Y-75960714D01*
X42325000Y-75889285D01*
X42360714Y-75853571D01*
X42432142Y-75817857D01*
X42503571Y-75817857D01*
X42610714Y-75853571D01*
X43039285Y-76282142D01*
X43039285Y-75817857D01*
X42289285Y-75175000D02*
X42289285Y-75317857D01*
X42325000Y-75389285D01*
X42360714Y-75425000D01*
X42467857Y-75496428D01*
X42610714Y-75532142D01*
X42896428Y-75532142D01*
X42967857Y-75496428D01*
X43003571Y-75460714D01*
X43039285Y-75389285D01*
X43039285Y-75246428D01*
X43003571Y-75175000D01*
X42967857Y-75139285D01*
X42896428Y-75103571D01*
X42717857Y-75103571D01*
X42646428Y-75139285D01*
X42610714Y-75175000D01*
X42575000Y-75246428D01*
X42575000Y-75389285D01*
X42610714Y-75460714D01*
X42646428Y-75496428D01*
X42717857Y-75532142D01*
%TO.C,R31*%
X39839285Y-109982142D02*
X39482142Y-110232142D01*
X39839285Y-110410714D02*
X39089285Y-110410714D01*
X39089285Y-110125000D01*
X39125000Y-110053571D01*
X39160714Y-110017857D01*
X39232142Y-109982142D01*
X39339285Y-109982142D01*
X39410714Y-110017857D01*
X39446428Y-110053571D01*
X39482142Y-110125000D01*
X39482142Y-110410714D01*
X39089285Y-109732142D02*
X39089285Y-109267857D01*
X39375000Y-109517857D01*
X39375000Y-109410714D01*
X39410714Y-109339285D01*
X39446428Y-109303571D01*
X39517857Y-109267857D01*
X39696428Y-109267857D01*
X39767857Y-109303571D01*
X39803571Y-109339285D01*
X39839285Y-109410714D01*
X39839285Y-109625000D01*
X39803571Y-109696428D01*
X39767857Y-109732142D01*
X39839285Y-108553571D02*
X39839285Y-108982142D01*
X39839285Y-108767857D02*
X39089285Y-108767857D01*
X39196428Y-108839285D01*
X39267857Y-108910714D01*
X39303571Y-108982142D01*
X49946428Y-110964285D02*
X49982142Y-110857142D01*
X50017857Y-110821428D01*
X50089285Y-110785714D01*
X50196428Y-110785714D01*
X50267857Y-110821428D01*
X50303571Y-110857142D01*
X50339285Y-110928571D01*
X50339285Y-111214285D01*
X49589285Y-111214285D01*
X49589285Y-110964285D01*
X49625000Y-110892857D01*
X49660714Y-110857142D01*
X49732142Y-110821428D01*
X49803571Y-110821428D01*
X49875000Y-110857142D01*
X49910714Y-110892857D01*
X49946428Y-110964285D01*
X49946428Y-111214285D01*
X50339285Y-110071428D02*
X50339285Y-110500000D01*
X50339285Y-110285714D02*
X49589285Y-110285714D01*
X49696428Y-110357142D01*
X49767857Y-110428571D01*
X49803571Y-110500000D01*
X49589285Y-109607142D02*
X49589285Y-109535714D01*
X49625000Y-109464285D01*
X49660714Y-109428571D01*
X49732142Y-109392857D01*
X49875000Y-109357142D01*
X50053571Y-109357142D01*
X50196428Y-109392857D01*
X50267857Y-109428571D01*
X50303571Y-109464285D01*
X50339285Y-109535714D01*
X50339285Y-109607142D01*
X50303571Y-109678571D01*
X50267857Y-109714285D01*
X50196428Y-109750000D01*
X50053571Y-109785714D01*
X49875000Y-109785714D01*
X49732142Y-109750000D01*
X49660714Y-109714285D01*
X49625000Y-109678571D01*
X49589285Y-109607142D01*
X50339285Y-109035714D02*
X49589285Y-109035714D01*
X50053571Y-108964285D02*
X50339285Y-108750000D01*
X49839285Y-108750000D02*
X50125000Y-109035714D01*
%TO.C,R27*%
X39839285Y-74982142D02*
X39482142Y-75232142D01*
X39839285Y-75410714D02*
X39089285Y-75410714D01*
X39089285Y-75125000D01*
X39125000Y-75053571D01*
X39160714Y-75017857D01*
X39232142Y-74982142D01*
X39339285Y-74982142D01*
X39410714Y-75017857D01*
X39446428Y-75053571D01*
X39482142Y-75125000D01*
X39482142Y-75410714D01*
X39160714Y-74696428D02*
X39125000Y-74660714D01*
X39089285Y-74589285D01*
X39089285Y-74410714D01*
X39125000Y-74339285D01*
X39160714Y-74303571D01*
X39232142Y-74267857D01*
X39303571Y-74267857D01*
X39410714Y-74303571D01*
X39839285Y-74732142D01*
X39839285Y-74267857D01*
X39089285Y-74017857D02*
X39089285Y-73517857D01*
X39839285Y-73839285D01*
X50125000Y-75964285D02*
X50125000Y-75607142D01*
X50339285Y-76035714D02*
X49589285Y-75785714D01*
X50339285Y-75535714D01*
X50339285Y-74892857D02*
X50339285Y-75321428D01*
X50339285Y-75107142D02*
X49589285Y-75107142D01*
X49696428Y-75178571D01*
X49767857Y-75250000D01*
X49803571Y-75321428D01*
X50339285Y-74571428D02*
X49589285Y-74571428D01*
X50125000Y-74321428D01*
X49589285Y-74071428D01*
X50339285Y-74071428D01*
%TO.C,R24*%
X43039285Y-41532142D02*
X42682142Y-41782142D01*
X43039285Y-41960714D02*
X42289285Y-41960714D01*
X42289285Y-41675000D01*
X42325000Y-41603571D01*
X42360714Y-41567857D01*
X42432142Y-41532142D01*
X42539285Y-41532142D01*
X42610714Y-41567857D01*
X42646428Y-41603571D01*
X42682142Y-41675000D01*
X42682142Y-41960714D01*
X42360714Y-41246428D02*
X42325000Y-41210714D01*
X42289285Y-41139285D01*
X42289285Y-40960714D01*
X42325000Y-40889285D01*
X42360714Y-40853571D01*
X42432142Y-40817857D01*
X42503571Y-40817857D01*
X42610714Y-40853571D01*
X43039285Y-41282142D01*
X43039285Y-40817857D01*
X42539285Y-40175000D02*
X43039285Y-40175000D01*
X42253571Y-40353571D02*
X42789285Y-40532142D01*
X42789285Y-40067857D01*
%TO.C,S2*%
X25428571Y-32903571D02*
X25535714Y-32939285D01*
X25714285Y-32939285D01*
X25785714Y-32903571D01*
X25821428Y-32867857D01*
X25857142Y-32796428D01*
X25857142Y-32725000D01*
X25821428Y-32653571D01*
X25785714Y-32617857D01*
X25714285Y-32582142D01*
X25571428Y-32546428D01*
X25500000Y-32510714D01*
X25464285Y-32475000D01*
X25428571Y-32403571D01*
X25428571Y-32332142D01*
X25464285Y-32260714D01*
X25500000Y-32225000D01*
X25571428Y-32189285D01*
X25750000Y-32189285D01*
X25857142Y-32225000D01*
X26142857Y-32260714D02*
X26178571Y-32225000D01*
X26250000Y-32189285D01*
X26428571Y-32189285D01*
X26500000Y-32225000D01*
X26535714Y-32260714D01*
X26571428Y-32332142D01*
X26571428Y-32403571D01*
X26535714Y-32510714D01*
X26107142Y-32939285D01*
X26571428Y-32939285D01*
%TO.C,R25*%
X39839285Y-39982142D02*
X39482142Y-40232142D01*
X39839285Y-40410714D02*
X39089285Y-40410714D01*
X39089285Y-40125000D01*
X39125000Y-40053571D01*
X39160714Y-40017857D01*
X39232142Y-39982142D01*
X39339285Y-39982142D01*
X39410714Y-40017857D01*
X39446428Y-40053571D01*
X39482142Y-40125000D01*
X39482142Y-40410714D01*
X39160714Y-39696428D02*
X39125000Y-39660714D01*
X39089285Y-39589285D01*
X39089285Y-39410714D01*
X39125000Y-39339285D01*
X39160714Y-39303571D01*
X39232142Y-39267857D01*
X39303571Y-39267857D01*
X39410714Y-39303571D01*
X39839285Y-39732142D01*
X39839285Y-39267857D01*
X39089285Y-38589285D02*
X39089285Y-38946428D01*
X39446428Y-38982142D01*
X39410714Y-38946428D01*
X39375000Y-38875000D01*
X39375000Y-38696428D01*
X39410714Y-38625000D01*
X39446428Y-38589285D01*
X39517857Y-38553571D01*
X39696428Y-38553571D01*
X39767857Y-38589285D01*
X39803571Y-38625000D01*
X39839285Y-38696428D01*
X39839285Y-38875000D01*
X39803571Y-38946428D01*
X39767857Y-38982142D01*
X50125000Y-40964285D02*
X50125000Y-40607142D01*
X50339285Y-41035714D02*
X49589285Y-40785714D01*
X50339285Y-40535714D01*
X50339285Y-39892857D02*
X50339285Y-40321428D01*
X50339285Y-40107142D02*
X49589285Y-40107142D01*
X49696428Y-40178571D01*
X49767857Y-40250000D01*
X49803571Y-40321428D01*
X50339285Y-39571428D02*
X49589285Y-39571428D01*
X50125000Y-39321428D01*
X49589285Y-39071428D01*
X50339285Y-39071428D01*
%TO.C,R29*%
X39839285Y-144982142D02*
X39482142Y-145232142D01*
X39839285Y-145410714D02*
X39089285Y-145410714D01*
X39089285Y-145125000D01*
X39125000Y-145053571D01*
X39160714Y-145017857D01*
X39232142Y-144982142D01*
X39339285Y-144982142D01*
X39410714Y-145017857D01*
X39446428Y-145053571D01*
X39482142Y-145125000D01*
X39482142Y-145410714D01*
X39160714Y-144696428D02*
X39125000Y-144660714D01*
X39089285Y-144589285D01*
X39089285Y-144410714D01*
X39125000Y-144339285D01*
X39160714Y-144303571D01*
X39232142Y-144267857D01*
X39303571Y-144267857D01*
X39410714Y-144303571D01*
X39839285Y-144732142D01*
X39839285Y-144267857D01*
X39839285Y-143910714D02*
X39839285Y-143767857D01*
X39803571Y-143696428D01*
X39767857Y-143660714D01*
X39660714Y-143589285D01*
X39517857Y-143553571D01*
X39232142Y-143553571D01*
X39160714Y-143589285D01*
X39125000Y-143625000D01*
X39089285Y-143696428D01*
X39089285Y-143839285D01*
X39125000Y-143910714D01*
X39160714Y-143946428D01*
X39232142Y-143982142D01*
X39410714Y-143982142D01*
X39482142Y-143946428D01*
X39517857Y-143910714D01*
X39553571Y-143839285D01*
X39553571Y-143696428D01*
X39517857Y-143625000D01*
X39482142Y-143589285D01*
X39410714Y-143553571D01*
X50125000Y-145964285D02*
X50125000Y-145607142D01*
X50339285Y-146035714D02*
X49589285Y-145785714D01*
X50339285Y-145535714D01*
X50339285Y-144892857D02*
X50339285Y-145321428D01*
X50339285Y-145107142D02*
X49589285Y-145107142D01*
X49696428Y-145178571D01*
X49767857Y-145250000D01*
X49803571Y-145321428D01*
X50339285Y-144571428D02*
X49589285Y-144571428D01*
X50125000Y-144321428D01*
X49589285Y-144071428D01*
X50339285Y-144071428D01*
%TO.C,R28*%
X43039285Y-146532142D02*
X42682142Y-146782142D01*
X43039285Y-146960714D02*
X42289285Y-146960714D01*
X42289285Y-146675000D01*
X42325000Y-146603571D01*
X42360714Y-146567857D01*
X42432142Y-146532142D01*
X42539285Y-146532142D01*
X42610714Y-146567857D01*
X42646428Y-146603571D01*
X42682142Y-146675000D01*
X42682142Y-146960714D01*
X42360714Y-146246428D02*
X42325000Y-146210714D01*
X42289285Y-146139285D01*
X42289285Y-145960714D01*
X42325000Y-145889285D01*
X42360714Y-145853571D01*
X42432142Y-145817857D01*
X42503571Y-145817857D01*
X42610714Y-145853571D01*
X43039285Y-146282142D01*
X43039285Y-145817857D01*
X42610714Y-145389285D02*
X42575000Y-145460714D01*
X42539285Y-145496428D01*
X42467857Y-145532142D01*
X42432142Y-145532142D01*
X42360714Y-145496428D01*
X42325000Y-145460714D01*
X42289285Y-145389285D01*
X42289285Y-145246428D01*
X42325000Y-145175000D01*
X42360714Y-145139285D01*
X42432142Y-145103571D01*
X42467857Y-145103571D01*
X42539285Y-145139285D01*
X42575000Y-145175000D01*
X42610714Y-145246428D01*
X42610714Y-145389285D01*
X42646428Y-145460714D01*
X42682142Y-145496428D01*
X42753571Y-145532142D01*
X42896428Y-145532142D01*
X42967857Y-145496428D01*
X43003571Y-145460714D01*
X43039285Y-145389285D01*
X43039285Y-145246428D01*
X43003571Y-145175000D01*
X42967857Y-145139285D01*
X42896428Y-145103571D01*
X42753571Y-145103571D01*
X42682142Y-145139285D01*
X42646428Y-145175000D01*
X42610714Y-145246428D01*
%TO.C,S1*%
X25428571Y-83103571D02*
X25535714Y-83139285D01*
X25714285Y-83139285D01*
X25785714Y-83103571D01*
X25821428Y-83067857D01*
X25857142Y-82996428D01*
X25857142Y-82925000D01*
X25821428Y-82853571D01*
X25785714Y-82817857D01*
X25714285Y-82782142D01*
X25571428Y-82746428D01*
X25500000Y-82710714D01*
X25464285Y-82675000D01*
X25428571Y-82603571D01*
X25428571Y-82532142D01*
X25464285Y-82460714D01*
X25500000Y-82425000D01*
X25571428Y-82389285D01*
X25750000Y-82389285D01*
X25857142Y-82425000D01*
X26571428Y-83139285D02*
X26142857Y-83139285D01*
X26357142Y-83139285D02*
X26357142Y-82389285D01*
X26285714Y-82496428D01*
X26214285Y-82567857D01*
X26142857Y-82603571D01*
%TO.C,R30*%
X43039285Y-111532142D02*
X42682142Y-111782142D01*
X43039285Y-111960714D02*
X42289285Y-111960714D01*
X42289285Y-111675000D01*
X42325000Y-111603571D01*
X42360714Y-111567857D01*
X42432142Y-111532142D01*
X42539285Y-111532142D01*
X42610714Y-111567857D01*
X42646428Y-111603571D01*
X42682142Y-111675000D01*
X42682142Y-111960714D01*
X42289285Y-111282142D02*
X42289285Y-110817857D01*
X42575000Y-111067857D01*
X42575000Y-110960714D01*
X42610714Y-110889285D01*
X42646428Y-110853571D01*
X42717857Y-110817857D01*
X42896428Y-110817857D01*
X42967857Y-110853571D01*
X43003571Y-110889285D01*
X43039285Y-110960714D01*
X43039285Y-111175000D01*
X43003571Y-111246428D01*
X42967857Y-111282142D01*
X42289285Y-110353571D02*
X42289285Y-110282142D01*
X42325000Y-110210714D01*
X42360714Y-110175000D01*
X42432142Y-110139285D01*
X42575000Y-110103571D01*
X42753571Y-110103571D01*
X42896428Y-110139285D01*
X42967857Y-110175000D01*
X43003571Y-110210714D01*
X43039285Y-110282142D01*
X43039285Y-110353571D01*
X43003571Y-110425000D01*
X42967857Y-110460714D01*
X42896428Y-110496428D01*
X42753571Y-110532142D01*
X42575000Y-110532142D01*
X42432142Y-110496428D01*
X42360714Y-110460714D01*
X42325000Y-110425000D01*
X42289285Y-110353571D01*
%TD*%
M02*
