G04 #@! TF.GenerationSoftware,KiCad,Pcbnew,5.1.10-88a1d61d58~90~ubuntu20.04.1*
G04 #@! TF.CreationDate,2021-08-07T10:22:08-04:00*
G04 #@! TF.ProjectId,precadsr_panel_al,70726563-6164-4737-925f-70616e656c5f,rev?*
G04 #@! TF.SameCoordinates,Original*
G04 #@! TF.FileFunction,Legend,Bot*
G04 #@! TF.FilePolarity,Positive*
%FSLAX46Y46*%
G04 Gerber Fmt 4.6, Leading zero omitted, Abs format (unit mm)*
G04 Created by KiCad (PCBNEW 5.1.10-88a1d61d58~90~ubuntu20.04.1) date 2021-08-07 10:22:08*
%MOMM*%
%LPD*%
G01*
G04 APERTURE LIST*
%ADD10C,0.150000*%
G04 APERTURE END LIST*
D10*
X36000000Y-190627380D02*
X36000000Y-189627380D01*
X35619047Y-189627380D01*
X35523809Y-189675000D01*
X35476190Y-189722619D01*
X35428571Y-189817857D01*
X35428571Y-189960714D01*
X35476190Y-190055952D01*
X35523809Y-190103571D01*
X35619047Y-190151190D01*
X36000000Y-190151190D01*
X34571428Y-190627380D02*
X34571428Y-190103571D01*
X34619047Y-190008333D01*
X34714285Y-189960714D01*
X34904761Y-189960714D01*
X35000000Y-190008333D01*
X34571428Y-190579761D02*
X34666666Y-190627380D01*
X34904761Y-190627380D01*
X35000000Y-190579761D01*
X35047619Y-190484523D01*
X35047619Y-190389285D01*
X35000000Y-190294047D01*
X34904761Y-190246428D01*
X34666666Y-190246428D01*
X34571428Y-190198809D01*
X34095238Y-189960714D02*
X34095238Y-190627380D01*
X34095238Y-190055952D02*
X34047619Y-190008333D01*
X33952380Y-189960714D01*
X33809523Y-189960714D01*
X33714285Y-190008333D01*
X33666666Y-190103571D01*
X33666666Y-190627380D01*
X32809523Y-190579761D02*
X32904761Y-190627380D01*
X33095238Y-190627380D01*
X33190476Y-190579761D01*
X33238095Y-190484523D01*
X33238095Y-190103571D01*
X33190476Y-190008333D01*
X33095238Y-189960714D01*
X32904761Y-189960714D01*
X32809523Y-190008333D01*
X32761904Y-190103571D01*
X32761904Y-190198809D01*
X33238095Y-190294047D01*
X32190476Y-190627380D02*
X32285714Y-190579761D01*
X32333333Y-190484523D01*
X32333333Y-189627380D01*
X30619047Y-190627380D02*
X30619047Y-189627380D01*
X30619047Y-190579761D02*
X30714285Y-190627380D01*
X30904761Y-190627380D01*
X31000000Y-190579761D01*
X31047619Y-190532142D01*
X31095238Y-190436904D01*
X31095238Y-190151190D01*
X31047619Y-190055952D01*
X31000000Y-190008333D01*
X30904761Y-189960714D01*
X30714285Y-189960714D01*
X30619047Y-190008333D01*
X29761904Y-190579761D02*
X29857142Y-190627380D01*
X30047619Y-190627380D01*
X30142857Y-190579761D01*
X30190476Y-190484523D01*
X30190476Y-190103571D01*
X30142857Y-190008333D01*
X30047619Y-189960714D01*
X29857142Y-189960714D01*
X29761904Y-190008333D01*
X29714285Y-190103571D01*
X29714285Y-190198809D01*
X30190476Y-190294047D01*
X29333333Y-190579761D02*
X29238095Y-190627380D01*
X29047619Y-190627380D01*
X28952380Y-190579761D01*
X28904761Y-190484523D01*
X28904761Y-190436904D01*
X28952380Y-190341666D01*
X29047619Y-190294047D01*
X29190476Y-190294047D01*
X29285714Y-190246428D01*
X29333333Y-190151190D01*
X29333333Y-190103571D01*
X29285714Y-190008333D01*
X29190476Y-189960714D01*
X29047619Y-189960714D01*
X28952380Y-190008333D01*
X28476190Y-190627380D02*
X28476190Y-189960714D01*
X28476190Y-189627380D02*
X28523809Y-189675000D01*
X28476190Y-189722619D01*
X28428571Y-189675000D01*
X28476190Y-189627380D01*
X28476190Y-189722619D01*
X27571428Y-189960714D02*
X27571428Y-190770238D01*
X27619047Y-190865476D01*
X27666666Y-190913095D01*
X27761904Y-190960714D01*
X27904761Y-190960714D01*
X28000000Y-190913095D01*
X27571428Y-190579761D02*
X27666666Y-190627380D01*
X27857142Y-190627380D01*
X27952380Y-190579761D01*
X28000000Y-190532142D01*
X28047619Y-190436904D01*
X28047619Y-190151190D01*
X28000000Y-190055952D01*
X27952380Y-190008333D01*
X27857142Y-189960714D01*
X27666666Y-189960714D01*
X27571428Y-190008333D01*
X27095238Y-189960714D02*
X27095238Y-190627380D01*
X27095238Y-190055952D02*
X27047619Y-190008333D01*
X26952380Y-189960714D01*
X26809523Y-189960714D01*
X26714285Y-190008333D01*
X26666666Y-190103571D01*
X26666666Y-190627380D01*
X25428571Y-190627380D02*
X25428571Y-189627380D01*
X25428571Y-190008333D02*
X25333333Y-189960714D01*
X25142857Y-189960714D01*
X25047619Y-190008333D01*
X25000000Y-190055952D01*
X24952380Y-190151190D01*
X24952380Y-190436904D01*
X25000000Y-190532142D01*
X25047619Y-190579761D01*
X25142857Y-190627380D01*
X25333333Y-190627380D01*
X25428571Y-190579761D01*
X24619047Y-189960714D02*
X24380952Y-190627380D01*
X24142857Y-189960714D02*
X24380952Y-190627380D01*
X24476190Y-190865476D01*
X24523809Y-190913095D01*
X24619047Y-190960714D01*
X22428571Y-190627380D02*
X22761904Y-190151190D01*
X23000000Y-190627380D02*
X23000000Y-189627380D01*
X22619047Y-189627380D01*
X22523809Y-189675000D01*
X22476190Y-189722619D01*
X22428571Y-189817857D01*
X22428571Y-189960714D01*
X22476190Y-190055952D01*
X22523809Y-190103571D01*
X22619047Y-190151190D01*
X23000000Y-190151190D01*
X22000000Y-190627380D02*
X22000000Y-189960714D01*
X22000000Y-189627380D02*
X22047619Y-189675000D01*
X22000000Y-189722619D01*
X21952380Y-189675000D01*
X22000000Y-189627380D01*
X22000000Y-189722619D01*
X21095238Y-190579761D02*
X21190476Y-190627380D01*
X21380952Y-190627380D01*
X21476190Y-190579761D01*
X21523809Y-190532142D01*
X21571428Y-190436904D01*
X21571428Y-190151190D01*
X21523809Y-190055952D01*
X21476190Y-190008333D01*
X21380952Y-189960714D01*
X21190476Y-189960714D01*
X21095238Y-190008333D01*
X20666666Y-190627380D02*
X20666666Y-189627380D01*
X20238095Y-190627380D02*
X20238095Y-190103571D01*
X20285714Y-190008333D01*
X20380952Y-189960714D01*
X20523809Y-189960714D01*
X20619047Y-190008333D01*
X20666666Y-190055952D01*
X19000000Y-190627380D02*
X19000000Y-189627380D01*
X19000000Y-190103571D02*
X18428571Y-190103571D01*
X18428571Y-190627380D02*
X18428571Y-189627380D01*
X17809523Y-190627380D02*
X17904761Y-190579761D01*
X17952380Y-190532142D01*
X18000000Y-190436904D01*
X18000000Y-190151190D01*
X17952380Y-190055952D01*
X17904761Y-190008333D01*
X17809523Y-189960714D01*
X17666666Y-189960714D01*
X17571428Y-190008333D01*
X17523809Y-190055952D01*
X17476190Y-190151190D01*
X17476190Y-190436904D01*
X17523809Y-190532142D01*
X17571428Y-190579761D01*
X17666666Y-190627380D01*
X17809523Y-190627380D01*
X16904761Y-190627380D02*
X17000000Y-190579761D01*
X17047619Y-190484523D01*
X17047619Y-189627380D01*
X16523809Y-190627380D02*
X16523809Y-189960714D01*
X16523809Y-190055952D02*
X16476190Y-190008333D01*
X16380952Y-189960714D01*
X16238095Y-189960714D01*
X16142857Y-190008333D01*
X16095238Y-190103571D01*
X16095238Y-190627380D01*
X16095238Y-190103571D02*
X16047619Y-190008333D01*
X15952380Y-189960714D01*
X15809523Y-189960714D01*
X15714285Y-190008333D01*
X15666666Y-190103571D01*
X15666666Y-190627380D01*
X14809523Y-190579761D02*
X14904761Y-190627380D01*
X15095238Y-190627380D01*
X15190476Y-190579761D01*
X15238095Y-190484523D01*
X15238095Y-190103571D01*
X15190476Y-190008333D01*
X15095238Y-189960714D01*
X14904761Y-189960714D01*
X14809523Y-190008333D01*
X14761904Y-190103571D01*
X14761904Y-190198809D01*
X15238095Y-190294047D01*
X14380952Y-190579761D02*
X14285714Y-190627380D01*
X14095238Y-190627380D01*
X14000000Y-190579761D01*
X13952380Y-190484523D01*
X13952380Y-190436904D01*
X14000000Y-190341666D01*
X14095238Y-190294047D01*
X14238095Y-190294047D01*
X14333333Y-190246428D01*
X14380952Y-190151190D01*
X14380952Y-190103571D01*
X14333333Y-190008333D01*
X14238095Y-189960714D01*
X14095238Y-189960714D01*
X14000000Y-190008333D01*
X28785714Y-191991666D02*
X28309523Y-191991666D01*
X28880952Y-192277380D02*
X28547619Y-191277380D01*
X28214285Y-192277380D01*
X27880952Y-191610714D02*
X27880952Y-192610714D01*
X27880952Y-191658333D02*
X27785714Y-191610714D01*
X27595238Y-191610714D01*
X27500000Y-191658333D01*
X27452380Y-191705952D01*
X27404761Y-191801190D01*
X27404761Y-192086904D01*
X27452380Y-192182142D01*
X27500000Y-192229761D01*
X27595238Y-192277380D01*
X27785714Y-192277380D01*
X27880952Y-192229761D01*
X26976190Y-192277380D02*
X26976190Y-191610714D01*
X26976190Y-191801190D02*
X26928571Y-191705952D01*
X26880952Y-191658333D01*
X26785714Y-191610714D01*
X26690476Y-191610714D01*
X26357142Y-192277380D02*
X26357142Y-191610714D01*
X26357142Y-191277380D02*
X26404761Y-191325000D01*
X26357142Y-191372619D01*
X26309523Y-191325000D01*
X26357142Y-191277380D01*
X26357142Y-191372619D01*
X25738095Y-192277380D02*
X25833333Y-192229761D01*
X25880952Y-192134523D01*
X25880952Y-191277380D01*
X24642857Y-191372619D02*
X24595238Y-191325000D01*
X24500000Y-191277380D01*
X24261904Y-191277380D01*
X24166666Y-191325000D01*
X24119047Y-191372619D01*
X24071428Y-191467857D01*
X24071428Y-191563095D01*
X24119047Y-191705952D01*
X24690476Y-192277380D01*
X24071428Y-192277380D01*
X23452380Y-191277380D02*
X23357142Y-191277380D01*
X23261904Y-191325000D01*
X23214285Y-191372619D01*
X23166666Y-191467857D01*
X23119047Y-191658333D01*
X23119047Y-191896428D01*
X23166666Y-192086904D01*
X23214285Y-192182142D01*
X23261904Y-192229761D01*
X23357142Y-192277380D01*
X23452380Y-192277380D01*
X23547619Y-192229761D01*
X23595238Y-192182142D01*
X23642857Y-192086904D01*
X23690476Y-191896428D01*
X23690476Y-191658333D01*
X23642857Y-191467857D01*
X23595238Y-191372619D01*
X23547619Y-191325000D01*
X23452380Y-191277380D01*
X22738095Y-191372619D02*
X22690476Y-191325000D01*
X22595238Y-191277380D01*
X22357142Y-191277380D01*
X22261904Y-191325000D01*
X22214285Y-191372619D01*
X22166666Y-191467857D01*
X22166666Y-191563095D01*
X22214285Y-191705952D01*
X22785714Y-192277380D01*
X22166666Y-192277380D01*
X21214285Y-192277380D02*
X21785714Y-192277380D01*
X21500000Y-192277380D02*
X21500000Y-191277380D01*
X21595238Y-191420238D01*
X21690476Y-191515476D01*
X21785714Y-191563095D01*
X29619047Y-194452380D02*
X29619047Y-195166666D01*
X29666666Y-195309523D01*
X29761904Y-195404761D01*
X29904761Y-195452380D01*
X30000000Y-195452380D01*
X28666666Y-195452380D02*
X29142857Y-195452380D01*
X29142857Y-194452380D01*
X27761904Y-195357142D02*
X27809523Y-195404761D01*
X27952380Y-195452380D01*
X28047619Y-195452380D01*
X28190476Y-195404761D01*
X28285714Y-195309523D01*
X28333333Y-195214285D01*
X28380952Y-195023809D01*
X28380952Y-194880952D01*
X28333333Y-194690476D01*
X28285714Y-194595238D01*
X28190476Y-194500000D01*
X28047619Y-194452380D01*
X27952380Y-194452380D01*
X27809523Y-194500000D01*
X27761904Y-194547619D01*
X27047619Y-194452380D02*
X27047619Y-195166666D01*
X27095238Y-195309523D01*
X27190476Y-195404761D01*
X27333333Y-195452380D01*
X27428571Y-195452380D01*
X26095238Y-195452380D02*
X26571428Y-195452380D01*
X26571428Y-194452380D01*
X25190476Y-195357142D02*
X25238095Y-195404761D01*
X25380952Y-195452380D01*
X25476190Y-195452380D01*
X25619047Y-195404761D01*
X25714285Y-195309523D01*
X25761904Y-195214285D01*
X25809523Y-195023809D01*
X25809523Y-194880952D01*
X25761904Y-194690476D01*
X25714285Y-194595238D01*
X25619047Y-194500000D01*
X25476190Y-194452380D01*
X25380952Y-194452380D01*
X25238095Y-194500000D01*
X25190476Y-194547619D01*
X24476190Y-194452380D02*
X24476190Y-195166666D01*
X24523809Y-195309523D01*
X24619047Y-195404761D01*
X24761904Y-195452380D01*
X24857142Y-195452380D01*
X23523809Y-195452380D02*
X24000000Y-195452380D01*
X24000000Y-194452380D01*
X22619047Y-195357142D02*
X22666666Y-195404761D01*
X22809523Y-195452380D01*
X22904761Y-195452380D01*
X23047619Y-195404761D01*
X23142857Y-195309523D01*
X23190476Y-195214285D01*
X23238095Y-195023809D01*
X23238095Y-194880952D01*
X23190476Y-194690476D01*
X23142857Y-194595238D01*
X23047619Y-194500000D01*
X22904761Y-194452380D01*
X22809523Y-194452380D01*
X22666666Y-194500000D01*
X22619047Y-194547619D01*
X21904761Y-194452380D02*
X21904761Y-195166666D01*
X21952380Y-195309523D01*
X22047619Y-195404761D01*
X22190476Y-195452380D01*
X22285714Y-195452380D01*
X20952380Y-195452380D02*
X21428571Y-195452380D01*
X21428571Y-194452380D01*
X20047619Y-195357142D02*
X20095238Y-195404761D01*
X20238095Y-195452380D01*
X20333333Y-195452380D01*
X20476190Y-195404761D01*
X20571428Y-195309523D01*
X20619047Y-195214285D01*
X20666666Y-195023809D01*
X20666666Y-194880952D01*
X20619047Y-194690476D01*
X20571428Y-194595238D01*
X20476190Y-194500000D01*
X20333333Y-194452380D01*
X20238095Y-194452380D01*
X20095238Y-194500000D01*
X20047619Y-194547619D01*
M02*
