M48
; DRILL file {KiCad 5.1.10-88a1d61d58~90~ubuntu20.04.1} date Sat Aug  7 10:22:31 2021
; FORMAT={-:-/ absolute / inch / decimal}
; #@! TF.CreationDate,2021-08-07T10:22:31-04:00
; #@! TF.GenerationSoftware,Kicad,Pcbnew,5.1.10-88a1d61d58~90~ubuntu20.04.1
; #@! TF.FileFunction,NonPlated,1,2,NPTH
FMAT,2
INCH
T1C0.1260
T2C0.1969
T3C0.2756
T4C0.3937
T5C0.5984
%
G90
G05
T2
X0.9843Y-6.8898
T3
X0.5118Y-1.1811
X0.5118Y-2.5591
X1.4567Y-1.1811
X1.4567Y-2.5591
X1.4567Y-3.937
X1.4567Y-5.315
T4
X0.5118Y-4.9213
X0.5118Y-5.9055
X0.5118Y-6.8898
X1.4567Y-6.8898
T5
X0.5118Y-3.937
T1
G00X0.1181Y-0.1181
M15
G01X0.2283Y-0.1181
M16
G05
G00X0.1181Y-7.7559
M15
G01X0.2283Y-7.7559
M16
G05
G00X1.7402Y-0.1181
M15
G01X1.8504Y-0.1181
M16
G05
G00X1.7402Y-7.7559
M15
G01X1.8504Y-7.7559
M16
G05
T0
M30
