%TF.GenerationSoftware,KiCad,Pcbnew,5.1.10-88a1d61d58~90~ubuntu20.04.1*%
%TF.CreationDate,2021-08-12T11:11:01-04:00*%
%TF.ProjectId,precadsr,70726563-6164-4737-922e-6b696361645f,rev?*%
%TF.SameCoordinates,Original*%
%TF.FileFunction,Soldermask,Top*%
%TF.FilePolarity,Negative*%
%FSLAX46Y46*%
G04 Gerber Fmt 4.6, Leading zero omitted, Abs format (unit mm)*
G04 Created by KiCad (PCBNEW 5.1.10-88a1d61d58~90~ubuntu20.04.1) date 2021-08-12 11:11:01*
%MOMM*%
%LPD*%
G01*
G04 APERTURE LIST*
%ADD10C,1.600000*%
%ADD11R,1.500000X1.500000*%
%ADD12C,1.500000*%
%ADD13O,1.600000X1.600000*%
%ADD14C,4.500001*%
%ADD15C,4.500000*%
%ADD16R,4.500001X4.500001*%
%ADD17C,3.200000*%
%ADD18O,1.600000X2.400000*%
%ADD19R,1.600000X2.400000*%
%ADD20O,2.200000X1.740000*%
%ADD21R,1.600000X1.600000*%
%ADD22O,1.700000X1.700000*%
%ADD23R,1.700000X1.700000*%
%ADD24C,1.800000*%
%ADD25R,1.800000X1.800000*%
%ADD26O,2.200000X2.200000*%
%ADD27R,2.200000X2.200000*%
%ADD28O,1.727200X1.727200*%
%ADD29R,1.727200X1.727200*%
%ADD30O,2.400000X1.600000*%
%ADD31R,2.400000X1.600000*%
G04 APERTURE END LIST*
D10*
%TO.C,C13*%
X99140000Y-61595000D03*
X104140000Y-61595000D03*
%TD*%
D11*
%TO.C,Q1*%
X99060000Y-83820000D03*
D12*
X104140000Y-83820000D03*
X101600000Y-83820000D03*
%TD*%
D10*
%TO.C,R1*%
X93980000Y-78740000D03*
D13*
X104140000Y-78740000D03*
%TD*%
D14*
%TO.C,J4*%
X98500000Y-191400000D03*
D15*
X89600000Y-182500000D03*
D14*
X102400000Y-185500000D03*
D16*
X91260000Y-189740000D03*
D15*
X95500000Y-178600000D03*
%TD*%
D17*
%TO.C,H3*%
X89000000Y-97000000D03*
%TD*%
D18*
%TO.C,U1*%
X97280000Y-96520000D03*
X104900000Y-88900000D03*
X99820000Y-96520000D03*
X102360000Y-88900000D03*
X102360000Y-96520000D03*
X99820000Y-88900000D03*
X104900000Y-96520000D03*
D19*
X97280000Y-88900000D03*
%TD*%
D20*
%TO.C,J7*%
X127000000Y-35560000D03*
G36*
G01*
X126149999Y-32150000D02*
X127850001Y-32150000D01*
G75*
G02*
X128100000Y-32399999I0J-249999D01*
G01*
X128100000Y-33640001D01*
G75*
G02*
X127850001Y-33890000I-249999J0D01*
G01*
X126149999Y-33890000D01*
G75*
G02*
X125900000Y-33640001I0J249999D01*
G01*
X125900000Y-32399999D01*
G75*
G02*
X126149999Y-32150000I249999J0D01*
G01*
G37*
%TD*%
D17*
%TO.C,H1*%
X127000000Y-23000000D03*
%TD*%
D13*
%TO.C,D7*%
X119380000Y-86360000D03*
D21*
X111760000Y-86360000D03*
%TD*%
D10*
%TO.C,C6*%
X125220000Y-148470000D03*
X125220000Y-150970000D03*
%TD*%
%TO.C,R7*%
X121920000Y-50800000D03*
D13*
X111760000Y-50800000D03*
%TD*%
D22*
%TO.C,J9*%
X122620000Y-132000000D03*
X120080000Y-132000000D03*
X117540000Y-132000000D03*
D23*
X115000000Y-132000000D03*
%TD*%
D10*
%TO.C,R19*%
X104140000Y-50800000D03*
D13*
X93980000Y-50800000D03*
%TD*%
D10*
%TO.C,C4*%
X125730000Y-141010000D03*
D21*
X125730000Y-143510000D03*
%TD*%
D10*
%TO.C,R16*%
X104140000Y-40640000D03*
D13*
X93980000Y-40640000D03*
%TD*%
%TO.C,D3*%
X111760000Y-55880000D03*
D21*
X119380000Y-55880000D03*
%TD*%
D10*
%TO.C,C7*%
X116760000Y-76200000D03*
X111760000Y-76200000D03*
%TD*%
D11*
%TO.C,Q2*%
X127000000Y-60960000D03*
D12*
X127000000Y-66040000D03*
X127000000Y-63500000D03*
%TD*%
D10*
%TO.C,R17*%
X121920000Y-91440000D03*
D13*
X111760000Y-91440000D03*
%TD*%
D22*
%TO.C,J6*%
X104140000Y-35000000D03*
X101600000Y-35000000D03*
X99060000Y-35000000D03*
X96520000Y-35000000D03*
X93980000Y-35000000D03*
X91440000Y-35000000D03*
D23*
X88900000Y-35000000D03*
%TD*%
D22*
%TO.C,J8*%
X116320000Y-23000000D03*
X113780000Y-23000000D03*
X111240000Y-23000000D03*
X108700000Y-23000000D03*
X106160000Y-23000000D03*
X103620000Y-23000000D03*
X101080000Y-23000000D03*
X98540000Y-23000000D03*
X96000000Y-23000000D03*
D23*
X93460000Y-23000000D03*
%TD*%
D10*
%TO.C,R10*%
X121920000Y-71120000D03*
D13*
X111760000Y-71120000D03*
%TD*%
D10*
%TO.C,R20*%
X93980000Y-66040000D03*
D13*
X104140000Y-66040000D03*
%TD*%
D10*
%TO.C,C9*%
X114340000Y-101600000D03*
X116840000Y-101600000D03*
%TD*%
D19*
%TO.C,U3*%
X106680000Y-106680000D03*
D18*
X114300000Y-114300000D03*
X109220000Y-106680000D03*
X111760000Y-114300000D03*
X111760000Y-106680000D03*
X109220000Y-114300000D03*
X114300000Y-106680000D03*
X106680000Y-114300000D03*
%TD*%
D10*
%TO.C,C12*%
X104060000Y-45720000D03*
X99060000Y-45720000D03*
%TD*%
D13*
%TO.C,D9*%
X96520000Y-55880000D03*
D21*
X104140000Y-55880000D03*
%TD*%
D13*
%TO.C,D8*%
X102360000Y-172560000D03*
D21*
X109980000Y-172560000D03*
%TD*%
D10*
%TO.C,R11*%
X111760000Y-81280000D03*
D13*
X121920000Y-81280000D03*
%TD*%
D10*
%TO.C,C8*%
X114300000Y-119380000D03*
X111800000Y-119380000D03*
%TD*%
%TO.C,C3*%
X107061000Y-121960000D03*
D21*
X107061000Y-124460000D03*
%TD*%
D10*
%TO.C,C11*%
X99100000Y-27940000D03*
D21*
X101600000Y-27940000D03*
%TD*%
D13*
%TO.C,D10*%
X104140000Y-70485000D03*
D21*
X96520000Y-70485000D03*
%TD*%
D10*
%TO.C,R18*%
X111760000Y-96520000D03*
D13*
X121920000Y-96520000D03*
%TD*%
D10*
%TO.C,C2*%
X102322000Y-101600000D03*
X99822000Y-101600000D03*
%TD*%
D13*
%TO.C,D4*%
X104140000Y-74295000D03*
D21*
X96520000Y-74295000D03*
%TD*%
D24*
%TO.C,L1*%
X109340000Y-185000000D03*
D25*
X106800000Y-185000000D03*
%TD*%
D14*
%TO.C,J2*%
X98500000Y-141400000D03*
D15*
X89600000Y-132500000D03*
D14*
X102400000Y-135500000D03*
D16*
X91260000Y-139740000D03*
D15*
X95500000Y-128600000D03*
%TD*%
D10*
%TO.C,R15*%
X127760000Y-180180000D03*
D13*
X127760000Y-170020000D03*
%TD*%
D10*
%TO.C,R5*%
X111760000Y-35560000D03*
D13*
X121920000Y-35560000D03*
%TD*%
D14*
%TO.C,J5*%
X122500000Y-191400000D03*
D15*
X113600000Y-182500000D03*
D14*
X126400000Y-185500000D03*
D16*
X115260000Y-189740000D03*
D15*
X119500000Y-178600000D03*
%TD*%
D10*
%TO.C,C1*%
X109180000Y-101600000D03*
X106680000Y-101600000D03*
%TD*%
D14*
%TO.C,J3*%
X98500000Y-166400000D03*
D15*
X89600000Y-157500000D03*
D14*
X102400000Y-160500000D03*
D16*
X91260000Y-164740000D03*
D15*
X95500000Y-153600000D03*
%TD*%
D10*
%TO.C,R12*%
X125220000Y-154780000D03*
D13*
X125220000Y-164940000D03*
%TD*%
D10*
%TO.C,R4*%
X99820000Y-117602000D03*
D13*
X99820000Y-107442000D03*
%TD*%
D10*
%TO.C,R6*%
X121920000Y-40640000D03*
D13*
X111760000Y-40640000D03*
%TD*%
D10*
%TO.C,C10*%
X93980000Y-27940000D03*
X88980000Y-27940000D03*
%TD*%
%TO.C,R14*%
X88390000Y-172560000D03*
D13*
X98550000Y-172560000D03*
%TD*%
D10*
%TO.C,R2*%
X111760000Y-30480000D03*
D13*
X121920000Y-30480000D03*
%TD*%
D26*
%TO.C,D1*%
X119380000Y-127000000D03*
D27*
X111760000Y-127000000D03*
%TD*%
D10*
%TO.C,R13*%
X122680000Y-172560000D03*
D13*
X112520000Y-172560000D03*
%TD*%
D11*
%TO.C,Q3*%
X127000000Y-71120000D03*
D12*
X127000000Y-76200000D03*
X127000000Y-73660000D03*
%TD*%
D13*
%TO.C,D5*%
X107440000Y-147160000D03*
D21*
X107440000Y-139540000D03*
%TD*%
D10*
%TO.C,R9*%
X111760000Y-60960000D03*
D13*
X121920000Y-60960000D03*
%TD*%
D10*
%TO.C,R8*%
X121920000Y-66040000D03*
D13*
X111760000Y-66040000D03*
%TD*%
D28*
%TO.C,J1*%
X124460000Y-109220000D03*
X121920000Y-109220000D03*
X124460000Y-111760000D03*
X121920000Y-111760000D03*
X124460000Y-114300000D03*
X121920000Y-114300000D03*
X124460000Y-116840000D03*
X121920000Y-116840000D03*
X124460000Y-119380000D03*
D29*
X121920000Y-119380000D03*
%TD*%
D26*
%TO.C,D2*%
X127000000Y-137160000D03*
D27*
X127000000Y-129540000D03*
%TD*%
D13*
%TO.C,D6*%
X120140000Y-161130000D03*
D21*
X112520000Y-161130000D03*
%TD*%
D10*
%TO.C,R3*%
X121920000Y-45720000D03*
D13*
X111760000Y-45720000D03*
%TD*%
D10*
%TO.C,C5*%
X107440000Y-154740000D03*
X107440000Y-152240000D03*
%TD*%
D30*
%TO.C,U2*%
X120140000Y-156050000D03*
X112520000Y-140810000D03*
X120140000Y-153510000D03*
X112520000Y-143350000D03*
X120140000Y-150970000D03*
X112520000Y-145890000D03*
X120140000Y-148430000D03*
X112520000Y-148430000D03*
X120140000Y-145890000D03*
X112520000Y-150970000D03*
X120140000Y-143350000D03*
X112520000Y-153510000D03*
X120140000Y-140810000D03*
D31*
X112520000Y-156050000D03*
%TD*%
M02*
