M48
; DRILL file {KiCad 5.1.10-88a1d61d58~90~ubuntu20.04.1} date Thu Aug 12 11:11:04 2021
; FORMAT={-:-/ absolute / inch / decimal}
; #@! TF.CreationDate,2021-08-12T11:11:04-04:00
; #@! TF.GenerationSoftware,Kicad,Pcbnew,5.1.10-88a1d61d58~90~ubuntu20.04.1
; #@! TF.FileFunction,Plated,1,2,PTH
FMAT,2
INCH
T1C0.0315
T2C0.0354
T3C0.0394
T4C0.0400
T5C0.0433
T6C0.0472
T7C0.1063
%
G90
G05
T1
X3.4799Y-6.7937
X3.5031Y-1.1
X3.7Y-1.1
X3.7Y-1.6
X3.7Y-2.0
X3.7Y-2.6
X3.7Y-3.1
X3.8Y-2.2
X3.8Y-2.775
X3.8Y-2.925
X3.8299Y-3.5
X3.8299Y-3.8
X3.8799Y-6.7937
X3.9Y-1.8
X3.9Y-3.3
X3.9016Y-1.1
X3.9031Y-2.425
X3.9299Y-3.5
X3.9299Y-3.8
X3.9299Y-4.23
X3.9299Y-4.63
X3.93Y-4.0
X4.0Y-1.1
X4.0Y-3.3
X4.0284Y-4.0
X4.0299Y-3.5
X4.0299Y-3.8
X4.0299Y-6.7937
X4.0969Y-1.8
X4.1Y-1.6
X4.1Y-2.0
X4.1Y-2.2
X4.1Y-2.425
X4.1Y-2.6
X4.1Y-2.775
X4.1Y-2.925
X4.1Y-3.1
X4.1Y-3.3
X4.1299Y-3.5
X4.1299Y-3.8
X4.2Y-4.0
X4.2Y-4.2
X4.2Y-4.5
X4.215Y-4.8016
X4.215Y-4.9
X4.2299Y-5.4937
X4.2299Y-5.7937
X4.2299Y-5.9937
X4.2299Y-6.0921
X4.2984Y-4.0
X4.3Y-4.2
X4.3Y-4.5
X4.3299Y-6.7937
X4.4Y-1.2
X4.4Y-1.4
X4.4Y-1.6
X4.4Y-1.8
X4.4Y-2.0
X4.4Y-2.2
X4.4Y-2.4
X4.4Y-2.6
X4.4Y-2.8
X4.4Y-3.0
X4.4Y-3.2
X4.4Y-3.4
X4.4Y-3.6
X4.4Y-3.8
X4.4Y-4.2
X4.4Y-4.5
X4.4016Y-4.7
X4.4299Y-5.5437
X4.4299Y-5.6437
X4.4299Y-5.7437
X4.4299Y-5.8437
X4.4299Y-5.9437
X4.4299Y-6.0437
X4.4299Y-6.1437
X4.4299Y-6.3437
X4.4299Y-6.7937
X4.5Y-4.2
X4.5Y-4.5
X4.5Y-4.7
X4.5016Y-4.0
X4.5969Y-3.0
X4.6Y-4.0
X4.7Y-2.2
X4.7Y-3.4
X4.7299Y-5.5437
X4.7299Y-5.6437
X4.7299Y-5.7437
X4.7299Y-5.8437
X4.7299Y-5.9437
X4.7299Y-6.0437
X4.7299Y-6.1437
X4.7299Y-6.3437
X4.8Y-1.2
X4.8Y-1.4
X4.8Y-1.6
X4.8Y-1.8
X4.8Y-2.0
X4.8Y-2.4
X4.8Y-2.6
X4.8Y-2.8
X4.8Y-3.2
X4.8Y-3.6
X4.8Y-3.8
X4.8299Y-6.7937
X4.9299Y-5.8453
X4.9299Y-5.9437
X4.9299Y-6.0937
X4.9299Y-6.4937
X4.95Y-5.5516
X4.95Y-5.65
X5.0Y-2.4
X5.0Y-2.5
X5.0Y-2.6
X5.0Y-2.8
X5.0Y-2.9
X5.0Y-3.0
X5.0299Y-6.6937
X5.0299Y-7.0937
T2
X4.2047Y-7.2835
X4.3047Y-7.2835
T3
X3.5Y-1.378
X3.6Y-1.378
X3.6795Y-0.9055
X3.7Y-1.378
X3.7795Y-0.9055
X3.8Y-1.378
X3.8795Y-0.9055
X3.9Y-1.378
X3.9795Y-0.9055
X4.0Y-1.378
X4.0795Y-0.9055
X4.1Y-1.378
X4.1795Y-0.9055
X4.2795Y-0.9055
X4.3795Y-0.9055
X4.4795Y-0.9055
X4.5276Y-5.1969
X4.5795Y-0.9055
X4.6276Y-5.1969
X4.7276Y-5.1969
X4.8276Y-5.1969
T4
X4.8Y-4.3
X4.8Y-4.4
X4.8Y-4.5
X4.8Y-4.6
X4.8Y-4.7
X4.9Y-4.3
X4.9Y-4.4
X4.9Y-4.5
X4.9Y-4.6
X4.9Y-4.7
T5
X4.4Y-5.0
X4.7Y-5.0
X5.0Y-5.1
X5.0Y-5.4
T6
X5.0Y-1.3
X5.0Y-1.4
T7
X3.5276Y-5.2165
X3.5276Y-6.2008
X3.5276Y-7.185
X3.5929Y-5.5016
X3.5929Y-6.4858
X3.5929Y-7.4701
X3.7598Y-5.063
X3.7598Y-6.0472
X3.7598Y-7.0315
X3.878Y-5.5669
X3.878Y-6.5512
X3.878Y-7.5354
X4.0315Y-5.3346
X4.0315Y-6.3189
X4.0315Y-7.3031
X4.4724Y-7.185
X4.5378Y-7.4701
X4.7047Y-7.0315
X4.8228Y-7.5354
X4.9764Y-7.3031
T0
M30
