%TF.GenerationSoftware,KiCad,Pcbnew,5.1.10-88a1d61d58~90~ubuntu20.04.1*%
%TF.CreationDate,2021-08-12T11:11:01-04:00*%
%TF.ProjectId,precadsr,70726563-6164-4737-922e-6b696361645f,rev?*%
%TF.SameCoordinates,Original*%
%TF.FileFunction,Legend,Top*%
%TF.FilePolarity,Positive*%
%FSLAX46Y46*%
G04 Gerber Fmt 4.6, Leading zero omitted, Abs format (unit mm)*
G04 Created by KiCad (PCBNEW 5.1.10-88a1d61d58~90~ubuntu20.04.1) date 2021-08-12 11:11:01*
%MOMM*%
%LPD*%
G01*
G04 APERTURE LIST*
%ADD10C,0.100000*%
%ADD11C,0.150000*%
%ADD12C,0.120000*%
G04 APERTURE END LIST*
D10*
X102056571Y-25739285D02*
X101699428Y-25739285D01*
X101699428Y-24989285D01*
X102306571Y-25739285D02*
X102306571Y-24989285D01*
X102592285Y-24989285D01*
X102663714Y-25025000D01*
X102699428Y-25060714D01*
X102735142Y-25132142D01*
X102735142Y-25239285D01*
X102699428Y-25310714D01*
X102663714Y-25346428D01*
X102592285Y-25382142D01*
X102306571Y-25382142D01*
X103056571Y-25739285D02*
X103056571Y-24989285D01*
X103485142Y-25739285D01*
X103485142Y-24989285D01*
X103842285Y-25739285D02*
X103842285Y-24989285D01*
X104092285Y-25525000D01*
X104342285Y-24989285D01*
X104342285Y-25739285D01*
X105092285Y-25739285D02*
X104663714Y-25739285D01*
X104878000Y-25739285D02*
X104878000Y-24989285D01*
X104806571Y-25096428D01*
X104735142Y-25167857D01*
X104663714Y-25203571D01*
X114810142Y-27009285D02*
X114810142Y-26259285D01*
X114988714Y-26259285D01*
X115095857Y-26295000D01*
X115167285Y-26366428D01*
X115203000Y-26437857D01*
X115238714Y-26580714D01*
X115238714Y-26687857D01*
X115203000Y-26830714D01*
X115167285Y-26902142D01*
X115095857Y-26973571D01*
X114988714Y-27009285D01*
X114810142Y-27009285D01*
X115560142Y-26616428D02*
X115810142Y-26616428D01*
X115917285Y-27009285D02*
X115560142Y-27009285D01*
X115560142Y-26259285D01*
X115917285Y-26259285D01*
X116667285Y-26937857D02*
X116631571Y-26973571D01*
X116524428Y-27009285D01*
X116453000Y-27009285D01*
X116345857Y-26973571D01*
X116274428Y-26902142D01*
X116238714Y-26830714D01*
X116203000Y-26687857D01*
X116203000Y-26580714D01*
X116238714Y-26437857D01*
X116274428Y-26366428D01*
X116345857Y-26295000D01*
X116453000Y-26259285D01*
X116524428Y-26259285D01*
X116631571Y-26295000D01*
X116667285Y-26330714D01*
X117381571Y-27009285D02*
X116953000Y-27009285D01*
X117167285Y-27009285D02*
X117167285Y-26259285D01*
X117095857Y-26366428D01*
X117024428Y-26437857D01*
X116953000Y-26473571D01*
X92646571Y-25025000D02*
X92575142Y-24989285D01*
X92468000Y-24989285D01*
X92360857Y-25025000D01*
X92289428Y-25096428D01*
X92253714Y-25167857D01*
X92218000Y-25310714D01*
X92218000Y-25417857D01*
X92253714Y-25560714D01*
X92289428Y-25632142D01*
X92360857Y-25703571D01*
X92468000Y-25739285D01*
X92539428Y-25739285D01*
X92646571Y-25703571D01*
X92682285Y-25667857D01*
X92682285Y-25417857D01*
X92539428Y-25417857D01*
X93003714Y-25739285D02*
X93003714Y-24989285D01*
X93432285Y-25739285D01*
X93432285Y-24989285D01*
X93789428Y-25739285D02*
X93789428Y-24989285D01*
X93968000Y-24989285D01*
X94075142Y-25025000D01*
X94146571Y-25096428D01*
X94182285Y-25167857D01*
X94218000Y-25310714D01*
X94218000Y-25417857D01*
X94182285Y-25560714D01*
X94146571Y-25632142D01*
X94075142Y-25703571D01*
X93968000Y-25739285D01*
X93789428Y-25739285D01*
X122295142Y-135975285D02*
X122045142Y-135618142D01*
X121866571Y-135975285D02*
X121866571Y-135225285D01*
X122152285Y-135225285D01*
X122223714Y-135261000D01*
X122259428Y-135296714D01*
X122295142Y-135368142D01*
X122295142Y-135475285D01*
X122259428Y-135546714D01*
X122223714Y-135582428D01*
X122152285Y-135618142D01*
X121866571Y-135618142D01*
X122616571Y-135582428D02*
X122866571Y-135582428D01*
X122973714Y-135975285D02*
X122616571Y-135975285D01*
X122616571Y-135225285D01*
X122973714Y-135225285D01*
X123652285Y-135975285D02*
X123295142Y-135975285D01*
X123295142Y-135225285D01*
X124295142Y-135975285D02*
X123866571Y-135975285D01*
X124080857Y-135975285D02*
X124080857Y-135225285D01*
X124009428Y-135332428D01*
X123938000Y-135403857D01*
X123866571Y-135439571D01*
X116661571Y-135939571D02*
X116768714Y-135975285D01*
X116947285Y-135975285D01*
X117018714Y-135939571D01*
X117054428Y-135903857D01*
X117090142Y-135832428D01*
X117090142Y-135761000D01*
X117054428Y-135689571D01*
X117018714Y-135653857D01*
X116947285Y-135618142D01*
X116804428Y-135582428D01*
X116733000Y-135546714D01*
X116697285Y-135511000D01*
X116661571Y-135439571D01*
X116661571Y-135368142D01*
X116697285Y-135296714D01*
X116733000Y-135261000D01*
X116804428Y-135225285D01*
X116983000Y-135225285D01*
X117090142Y-135261000D01*
X117411571Y-135225285D02*
X117411571Y-135832428D01*
X117447285Y-135903857D01*
X117483000Y-135939571D01*
X117554428Y-135975285D01*
X117697285Y-135975285D01*
X117768714Y-135939571D01*
X117804428Y-135903857D01*
X117840142Y-135832428D01*
X117840142Y-135225285D01*
X118161571Y-135939571D02*
X118268714Y-135975285D01*
X118447285Y-135975285D01*
X118518714Y-135939571D01*
X118554428Y-135903857D01*
X118590142Y-135832428D01*
X118590142Y-135761000D01*
X118554428Y-135689571D01*
X118518714Y-135653857D01*
X118447285Y-135618142D01*
X118304428Y-135582428D01*
X118233000Y-135546714D01*
X118197285Y-135511000D01*
X118161571Y-135439571D01*
X118161571Y-135368142D01*
X118197285Y-135296714D01*
X118233000Y-135261000D01*
X118304428Y-135225285D01*
X118483000Y-135225285D01*
X118590142Y-135261000D01*
X118875857Y-135296714D02*
X118911571Y-135261000D01*
X118983000Y-135225285D01*
X119161571Y-135225285D01*
X119233000Y-135261000D01*
X119268714Y-135296714D01*
X119304428Y-135368142D01*
X119304428Y-135439571D01*
X119268714Y-135546714D01*
X118840142Y-135975285D01*
X119304428Y-135975285D01*
X107190142Y-25739285D02*
X106833000Y-25739285D01*
X106833000Y-24989285D01*
X107440142Y-25739285D02*
X107440142Y-24989285D01*
X107725857Y-24989285D01*
X107797285Y-25025000D01*
X107833000Y-25060714D01*
X107868714Y-25132142D01*
X107868714Y-25239285D01*
X107833000Y-25310714D01*
X107797285Y-25346428D01*
X107725857Y-25382142D01*
X107440142Y-25382142D01*
X108618714Y-25667857D02*
X108583000Y-25703571D01*
X108475857Y-25739285D01*
X108404428Y-25739285D01*
X108297285Y-25703571D01*
X108225857Y-25632142D01*
X108190142Y-25560714D01*
X108154428Y-25417857D01*
X108154428Y-25310714D01*
X108190142Y-25167857D01*
X108225857Y-25096428D01*
X108297285Y-25025000D01*
X108404428Y-24989285D01*
X108475857Y-24989285D01*
X108583000Y-25025000D01*
X108618714Y-25060714D01*
X108940142Y-25739285D02*
X108940142Y-24989285D01*
X109368714Y-25739285D01*
X109368714Y-24989285D01*
X110118714Y-25739285D02*
X109690142Y-25739285D01*
X109904428Y-25739285D02*
X109904428Y-24989285D01*
X109833000Y-25096428D01*
X109761571Y-25167857D01*
X109690142Y-25203571D01*
X119201571Y-134669571D02*
X119308714Y-134705285D01*
X119487285Y-134705285D01*
X119558714Y-134669571D01*
X119594428Y-134633857D01*
X119630142Y-134562428D01*
X119630142Y-134491000D01*
X119594428Y-134419571D01*
X119558714Y-134383857D01*
X119487285Y-134348142D01*
X119344428Y-134312428D01*
X119273000Y-134276714D01*
X119237285Y-134241000D01*
X119201571Y-134169571D01*
X119201571Y-134098142D01*
X119237285Y-134026714D01*
X119273000Y-133991000D01*
X119344428Y-133955285D01*
X119523000Y-133955285D01*
X119630142Y-133991000D01*
X119951571Y-133955285D02*
X119951571Y-134562428D01*
X119987285Y-134633857D01*
X120023000Y-134669571D01*
X120094428Y-134705285D01*
X120237285Y-134705285D01*
X120308714Y-134669571D01*
X120344428Y-134633857D01*
X120380142Y-134562428D01*
X120380142Y-133955285D01*
X120701571Y-134669571D02*
X120808714Y-134705285D01*
X120987285Y-134705285D01*
X121058714Y-134669571D01*
X121094428Y-134633857D01*
X121130142Y-134562428D01*
X121130142Y-134491000D01*
X121094428Y-134419571D01*
X121058714Y-134383857D01*
X120987285Y-134348142D01*
X120844428Y-134312428D01*
X120773000Y-134276714D01*
X120737285Y-134241000D01*
X120701571Y-134169571D01*
X120701571Y-134098142D01*
X120737285Y-134026714D01*
X120773000Y-133991000D01*
X120844428Y-133955285D01*
X121023000Y-133955285D01*
X121130142Y-133991000D01*
X121380142Y-133955285D02*
X121844428Y-133955285D01*
X121594428Y-134241000D01*
X121701571Y-134241000D01*
X121773000Y-134276714D01*
X121808714Y-134312428D01*
X121844428Y-134383857D01*
X121844428Y-134562428D01*
X121808714Y-134633857D01*
X121773000Y-134669571D01*
X121701571Y-134705285D01*
X121487285Y-134705285D01*
X121415857Y-134669571D01*
X121380142Y-134633857D01*
D11*
X89352380Y-57117142D02*
X88352380Y-57117142D01*
X88352380Y-56736190D01*
X88400000Y-56640952D01*
X88447619Y-56593333D01*
X88542857Y-56545714D01*
X88685714Y-56545714D01*
X88780952Y-56593333D01*
X88828571Y-56640952D01*
X88876190Y-56736190D01*
X88876190Y-57117142D01*
X89352380Y-56117142D02*
X88685714Y-56117142D01*
X88876190Y-56117142D02*
X88780952Y-56069523D01*
X88733333Y-56021904D01*
X88685714Y-55926666D01*
X88685714Y-55831428D01*
X89304761Y-55117142D02*
X89352380Y-55212380D01*
X89352380Y-55402857D01*
X89304761Y-55498095D01*
X89209523Y-55545714D01*
X88828571Y-55545714D01*
X88733333Y-55498095D01*
X88685714Y-55402857D01*
X88685714Y-55212380D01*
X88733333Y-55117142D01*
X88828571Y-55069523D01*
X88923809Y-55069523D01*
X89019047Y-55545714D01*
X89304761Y-54212380D02*
X89352380Y-54307619D01*
X89352380Y-54498095D01*
X89304761Y-54593333D01*
X89257142Y-54640952D01*
X89161904Y-54688571D01*
X88876190Y-54688571D01*
X88780952Y-54640952D01*
X88733333Y-54593333D01*
X88685714Y-54498095D01*
X88685714Y-54307619D01*
X88733333Y-54212380D01*
X89352380Y-53783809D02*
X88685714Y-53783809D01*
X88352380Y-53783809D02*
X88400000Y-53831428D01*
X88447619Y-53783809D01*
X88400000Y-53736190D01*
X88352380Y-53783809D01*
X88447619Y-53783809D01*
X89304761Y-53355238D02*
X89352380Y-53260000D01*
X89352380Y-53069523D01*
X89304761Y-52974285D01*
X89209523Y-52926666D01*
X89161904Y-52926666D01*
X89066666Y-52974285D01*
X89019047Y-53069523D01*
X89019047Y-53212380D01*
X88971428Y-53307619D01*
X88876190Y-53355238D01*
X88828571Y-53355238D01*
X88733333Y-53307619D01*
X88685714Y-53212380D01*
X88685714Y-53069523D01*
X88733333Y-52974285D01*
X89352380Y-52498095D02*
X88685714Y-52498095D01*
X88352380Y-52498095D02*
X88400000Y-52545714D01*
X88447619Y-52498095D01*
X88400000Y-52450476D01*
X88352380Y-52498095D01*
X88447619Y-52498095D01*
X89352380Y-51879047D02*
X89304761Y-51974285D01*
X89257142Y-52021904D01*
X89161904Y-52069523D01*
X88876190Y-52069523D01*
X88780952Y-52021904D01*
X88733333Y-51974285D01*
X88685714Y-51879047D01*
X88685714Y-51736190D01*
X88733333Y-51640952D01*
X88780952Y-51593333D01*
X88876190Y-51545714D01*
X89161904Y-51545714D01*
X89257142Y-51593333D01*
X89304761Y-51640952D01*
X89352380Y-51736190D01*
X89352380Y-51879047D01*
X88685714Y-51117142D02*
X89352380Y-51117142D01*
X88780952Y-51117142D02*
X88733333Y-51069523D01*
X88685714Y-50974285D01*
X88685714Y-50831428D01*
X88733333Y-50736190D01*
X88828571Y-50688571D01*
X89352380Y-50688571D01*
X89066666Y-49498095D02*
X89066666Y-49021904D01*
X89352380Y-49593333D02*
X88352380Y-49260000D01*
X89352380Y-48926666D01*
X89352380Y-48593333D02*
X88352380Y-48593333D01*
X88352380Y-48355238D01*
X88400000Y-48212380D01*
X88495238Y-48117142D01*
X88590476Y-48069523D01*
X88780952Y-48021904D01*
X88923809Y-48021904D01*
X89114285Y-48069523D01*
X89209523Y-48117142D01*
X89304761Y-48212380D01*
X89352380Y-48355238D01*
X89352380Y-48593333D01*
X89304761Y-47640952D02*
X89352380Y-47498095D01*
X89352380Y-47260000D01*
X89304761Y-47164761D01*
X89257142Y-47117142D01*
X89161904Y-47069523D01*
X89066666Y-47069523D01*
X88971428Y-47117142D01*
X88923809Y-47164761D01*
X88876190Y-47260000D01*
X88828571Y-47450476D01*
X88780952Y-47545714D01*
X88733333Y-47593333D01*
X88638095Y-47640952D01*
X88542857Y-47640952D01*
X88447619Y-47593333D01*
X88400000Y-47545714D01*
X88352380Y-47450476D01*
X88352380Y-47212380D01*
X88400000Y-47069523D01*
X89352380Y-46069523D02*
X88876190Y-46402857D01*
X89352380Y-46640952D02*
X88352380Y-46640952D01*
X88352380Y-46260000D01*
X88400000Y-46164761D01*
X88447619Y-46117142D01*
X88542857Y-46069523D01*
X88685714Y-46069523D01*
X88780952Y-46117142D01*
X88828571Y-46164761D01*
X88876190Y-46260000D01*
X88876190Y-46640952D01*
X88828571Y-44545714D02*
X88876190Y-44402857D01*
X88923809Y-44355238D01*
X89019047Y-44307619D01*
X89161904Y-44307619D01*
X89257142Y-44355238D01*
X89304761Y-44402857D01*
X89352380Y-44498095D01*
X89352380Y-44879047D01*
X88352380Y-44879047D01*
X88352380Y-44545714D01*
X88400000Y-44450476D01*
X88447619Y-44402857D01*
X88542857Y-44355238D01*
X88638095Y-44355238D01*
X88733333Y-44402857D01*
X88780952Y-44450476D01*
X88828571Y-44545714D01*
X88828571Y-44879047D01*
X89352380Y-43736190D02*
X89304761Y-43831428D01*
X89257142Y-43879047D01*
X89161904Y-43926666D01*
X88876190Y-43926666D01*
X88780952Y-43879047D01*
X88733333Y-43831428D01*
X88685714Y-43736190D01*
X88685714Y-43593333D01*
X88733333Y-43498095D01*
X88780952Y-43450476D01*
X88876190Y-43402857D01*
X89161904Y-43402857D01*
X89257142Y-43450476D01*
X89304761Y-43498095D01*
X89352380Y-43593333D01*
X89352380Y-43736190D01*
X89352380Y-42545714D02*
X88828571Y-42545714D01*
X88733333Y-42593333D01*
X88685714Y-42688571D01*
X88685714Y-42879047D01*
X88733333Y-42974285D01*
X89304761Y-42545714D02*
X89352380Y-42640952D01*
X89352380Y-42879047D01*
X89304761Y-42974285D01*
X89209523Y-43021904D01*
X89114285Y-43021904D01*
X89019047Y-42974285D01*
X88971428Y-42879047D01*
X88971428Y-42640952D01*
X88923809Y-42545714D01*
X89352380Y-42069523D02*
X88685714Y-42069523D01*
X88876190Y-42069523D02*
X88780952Y-42021904D01*
X88733333Y-41974285D01*
X88685714Y-41879047D01*
X88685714Y-41783809D01*
X89352380Y-41021904D02*
X88352380Y-41021904D01*
X89304761Y-41021904D02*
X89352380Y-41117142D01*
X89352380Y-41307619D01*
X89304761Y-41402857D01*
X89257142Y-41450476D01*
X89161904Y-41498095D01*
X88876190Y-41498095D01*
X88780952Y-41450476D01*
X88733333Y-41402857D01*
X88685714Y-41307619D01*
X88685714Y-41117142D01*
X88733333Y-41021904D01*
X89066666Y-39831428D02*
X89066666Y-39355238D01*
X89352380Y-39926666D02*
X88352380Y-39593333D01*
X89352380Y-39260000D01*
D10*
X114121571Y-134669571D02*
X114228714Y-134705285D01*
X114407285Y-134705285D01*
X114478714Y-134669571D01*
X114514428Y-134633857D01*
X114550142Y-134562428D01*
X114550142Y-134491000D01*
X114514428Y-134419571D01*
X114478714Y-134383857D01*
X114407285Y-134348142D01*
X114264428Y-134312428D01*
X114193000Y-134276714D01*
X114157285Y-134241000D01*
X114121571Y-134169571D01*
X114121571Y-134098142D01*
X114157285Y-134026714D01*
X114193000Y-133991000D01*
X114264428Y-133955285D01*
X114443000Y-133955285D01*
X114550142Y-133991000D01*
X114871571Y-133955285D02*
X114871571Y-134562428D01*
X114907285Y-134633857D01*
X114943000Y-134669571D01*
X115014428Y-134705285D01*
X115157285Y-134705285D01*
X115228714Y-134669571D01*
X115264428Y-134633857D01*
X115300142Y-134562428D01*
X115300142Y-133955285D01*
X115621571Y-134669571D02*
X115728714Y-134705285D01*
X115907285Y-134705285D01*
X115978714Y-134669571D01*
X116014428Y-134633857D01*
X116050142Y-134562428D01*
X116050142Y-134491000D01*
X116014428Y-134419571D01*
X115978714Y-134383857D01*
X115907285Y-134348142D01*
X115764428Y-134312428D01*
X115693000Y-134276714D01*
X115657285Y-134241000D01*
X115621571Y-134169571D01*
X115621571Y-134098142D01*
X115657285Y-134026714D01*
X115693000Y-133991000D01*
X115764428Y-133955285D01*
X115943000Y-133955285D01*
X116050142Y-133991000D01*
X116764428Y-134705285D02*
X116335857Y-134705285D01*
X116550142Y-134705285D02*
X116550142Y-133955285D01*
X116478714Y-134062428D01*
X116407285Y-134133857D01*
X116335857Y-134169571D01*
X96298000Y-25703571D02*
X96405142Y-25739285D01*
X96583714Y-25739285D01*
X96655142Y-25703571D01*
X96690857Y-25667857D01*
X96726571Y-25596428D01*
X96726571Y-25525000D01*
X96690857Y-25453571D01*
X96655142Y-25417857D01*
X96583714Y-25382142D01*
X96440857Y-25346428D01*
X96369428Y-25310714D01*
X96333714Y-25275000D01*
X96298000Y-25203571D01*
X96298000Y-25132142D01*
X96333714Y-25060714D01*
X96369428Y-25025000D01*
X96440857Y-24989285D01*
X96619428Y-24989285D01*
X96726571Y-25025000D01*
X97048000Y-25739285D02*
X97048000Y-24989285D01*
X97333714Y-24989285D01*
X97405142Y-25025000D01*
X97440857Y-25060714D01*
X97476571Y-25132142D01*
X97476571Y-25239285D01*
X97440857Y-25310714D01*
X97405142Y-25346428D01*
X97333714Y-25382142D01*
X97048000Y-25382142D01*
X97798000Y-25346428D02*
X98048000Y-25346428D01*
X98155142Y-25739285D02*
X97798000Y-25739285D01*
X97798000Y-24989285D01*
X98155142Y-24989285D01*
X98476571Y-25346428D02*
X98726571Y-25346428D01*
X98833714Y-25739285D02*
X98476571Y-25739285D01*
X98476571Y-24989285D01*
X98833714Y-24989285D01*
X99155142Y-25739285D02*
X99155142Y-24989285D01*
X99333714Y-24989285D01*
X99440857Y-25025000D01*
X99512285Y-25096428D01*
X99548000Y-25167857D01*
X99583714Y-25310714D01*
X99583714Y-25417857D01*
X99548000Y-25560714D01*
X99512285Y-25632142D01*
X99440857Y-25703571D01*
X99333714Y-25739285D01*
X99155142Y-25739285D01*
X99869428Y-25060714D02*
X99905142Y-25025000D01*
X99976571Y-24989285D01*
X100155142Y-24989285D01*
X100226571Y-25025000D01*
X100262285Y-25060714D01*
X100298000Y-25132142D01*
X100298000Y-25203571D01*
X100262285Y-25310714D01*
X99833714Y-25739285D01*
X100298000Y-25739285D01*
X104596571Y-27009285D02*
X104239428Y-27009285D01*
X104239428Y-26259285D01*
X104846571Y-27009285D02*
X104846571Y-26259285D01*
X105132285Y-26259285D01*
X105203714Y-26295000D01*
X105239428Y-26330714D01*
X105275142Y-26402142D01*
X105275142Y-26509285D01*
X105239428Y-26580714D01*
X105203714Y-26616428D01*
X105132285Y-26652142D01*
X104846571Y-26652142D01*
X105596571Y-27009285D02*
X105596571Y-26259285D01*
X106025142Y-27009285D01*
X106025142Y-26259285D01*
X106382285Y-27009285D02*
X106382285Y-26259285D01*
X106632285Y-26795000D01*
X106882285Y-26259285D01*
X106882285Y-27009285D01*
X107203714Y-26330714D02*
X107239428Y-26295000D01*
X107310857Y-26259285D01*
X107489428Y-26259285D01*
X107560857Y-26295000D01*
X107596571Y-26330714D01*
X107632285Y-26402142D01*
X107632285Y-26473571D01*
X107596571Y-26580714D01*
X107168000Y-27009285D01*
X107632285Y-27009285D01*
X109730142Y-27009285D02*
X109373000Y-27009285D01*
X109373000Y-26259285D01*
X109980142Y-27009285D02*
X109980142Y-26259285D01*
X110265857Y-26259285D01*
X110337285Y-26295000D01*
X110373000Y-26330714D01*
X110408714Y-26402142D01*
X110408714Y-26509285D01*
X110373000Y-26580714D01*
X110337285Y-26616428D01*
X110265857Y-26652142D01*
X109980142Y-26652142D01*
X111158714Y-26937857D02*
X111123000Y-26973571D01*
X111015857Y-27009285D01*
X110944428Y-27009285D01*
X110837285Y-26973571D01*
X110765857Y-26902142D01*
X110730142Y-26830714D01*
X110694428Y-26687857D01*
X110694428Y-26580714D01*
X110730142Y-26437857D01*
X110765857Y-26366428D01*
X110837285Y-26295000D01*
X110944428Y-26259285D01*
X111015857Y-26259285D01*
X111123000Y-26295000D01*
X111158714Y-26330714D01*
X111480142Y-27009285D02*
X111480142Y-26259285D01*
X111908714Y-27009285D01*
X111908714Y-26259285D01*
X112230142Y-26330714D02*
X112265857Y-26295000D01*
X112337285Y-26259285D01*
X112515857Y-26259285D01*
X112587285Y-26295000D01*
X112623000Y-26330714D01*
X112658714Y-26402142D01*
X112658714Y-26473571D01*
X112623000Y-26580714D01*
X112194428Y-27009285D01*
X112658714Y-27009285D01*
X98838000Y-26846571D02*
X98945142Y-26882285D01*
X99123714Y-26882285D01*
X99195142Y-26846571D01*
X99230857Y-26810857D01*
X99266571Y-26739428D01*
X99266571Y-26668000D01*
X99230857Y-26596571D01*
X99195142Y-26560857D01*
X99123714Y-26525142D01*
X98980857Y-26489428D01*
X98909428Y-26453714D01*
X98873714Y-26418000D01*
X98838000Y-26346571D01*
X98838000Y-26275142D01*
X98873714Y-26203714D01*
X98909428Y-26168000D01*
X98980857Y-26132285D01*
X99159428Y-26132285D01*
X99266571Y-26168000D01*
X99588000Y-26882285D02*
X99588000Y-26132285D01*
X99873714Y-26132285D01*
X99945142Y-26168000D01*
X99980857Y-26203714D01*
X100016571Y-26275142D01*
X100016571Y-26382285D01*
X99980857Y-26453714D01*
X99945142Y-26489428D01*
X99873714Y-26525142D01*
X99588000Y-26525142D01*
X100338000Y-26489428D02*
X100588000Y-26489428D01*
X100695142Y-26882285D02*
X100338000Y-26882285D01*
X100338000Y-26132285D01*
X100695142Y-26132285D01*
X101016571Y-26489428D02*
X101266571Y-26489428D01*
X101373714Y-26882285D02*
X101016571Y-26882285D01*
X101016571Y-26132285D01*
X101373714Y-26132285D01*
X101695142Y-26882285D02*
X101695142Y-26132285D01*
X101873714Y-26132285D01*
X101980857Y-26168000D01*
X102052285Y-26239428D01*
X102088000Y-26310857D01*
X102123714Y-26453714D01*
X102123714Y-26560857D01*
X102088000Y-26703714D01*
X102052285Y-26775142D01*
X101980857Y-26846571D01*
X101873714Y-26882285D01*
X101695142Y-26882285D01*
X102373714Y-26132285D02*
X102838000Y-26132285D01*
X102588000Y-26418000D01*
X102695142Y-26418000D01*
X102766571Y-26453714D01*
X102802285Y-26489428D01*
X102838000Y-26560857D01*
X102838000Y-26739428D01*
X102802285Y-26810857D01*
X102766571Y-26846571D01*
X102695142Y-26882285D01*
X102480857Y-26882285D01*
X102409428Y-26846571D01*
X102373714Y-26810857D01*
X112430857Y-25525000D02*
X112788000Y-25525000D01*
X112359428Y-25739285D02*
X112609428Y-24989285D01*
X112859428Y-25739285D01*
X113002285Y-24989285D02*
X113430857Y-24989285D01*
X113216571Y-25739285D02*
X113216571Y-24989285D01*
X113573714Y-24989285D02*
X114002285Y-24989285D01*
X113788000Y-25739285D02*
X113788000Y-24989285D01*
X114645142Y-25739285D02*
X114216571Y-25739285D01*
X114430857Y-25739285D02*
X114430857Y-24989285D01*
X114359428Y-25096428D01*
X114288000Y-25167857D01*
X114216571Y-25203571D01*
X94012000Y-26846571D02*
X94119142Y-26882285D01*
X94297714Y-26882285D01*
X94369142Y-26846571D01*
X94404857Y-26810857D01*
X94440571Y-26739428D01*
X94440571Y-26668000D01*
X94404857Y-26596571D01*
X94369142Y-26560857D01*
X94297714Y-26525142D01*
X94154857Y-26489428D01*
X94083428Y-26453714D01*
X94047714Y-26418000D01*
X94012000Y-26346571D01*
X94012000Y-26275142D01*
X94047714Y-26203714D01*
X94083428Y-26168000D01*
X94154857Y-26132285D01*
X94333428Y-26132285D01*
X94440571Y-26168000D01*
X94762000Y-26882285D02*
X94762000Y-26132285D01*
X95047714Y-26132285D01*
X95119142Y-26168000D01*
X95154857Y-26203714D01*
X95190571Y-26275142D01*
X95190571Y-26382285D01*
X95154857Y-26453714D01*
X95119142Y-26489428D01*
X95047714Y-26525142D01*
X94762000Y-26525142D01*
X95512000Y-26489428D02*
X95762000Y-26489428D01*
X95869142Y-26882285D02*
X95512000Y-26882285D01*
X95512000Y-26132285D01*
X95869142Y-26132285D01*
X96190571Y-26489428D02*
X96440571Y-26489428D01*
X96547714Y-26882285D02*
X96190571Y-26882285D01*
X96190571Y-26132285D01*
X96547714Y-26132285D01*
X96869142Y-26882285D02*
X96869142Y-26132285D01*
X97047714Y-26132285D01*
X97154857Y-26168000D01*
X97226285Y-26239428D01*
X97262000Y-26310857D01*
X97297714Y-26453714D01*
X97297714Y-26560857D01*
X97262000Y-26703714D01*
X97226285Y-26775142D01*
X97154857Y-26846571D01*
X97047714Y-26882285D01*
X96869142Y-26882285D01*
X98012000Y-26882285D02*
X97583428Y-26882285D01*
X97797714Y-26882285D02*
X97797714Y-26132285D01*
X97726285Y-26239428D01*
X97654857Y-26310857D01*
X97583428Y-26346571D01*
D12*
%TO.C,J4*%
X90150000Y-192850000D02*
X88150000Y-190350000D01*
X88150000Y-177100000D02*
X103900000Y-177100000D01*
X103900000Y-177100000D02*
X103900000Y-192850000D01*
X90200000Y-192850000D02*
X90150000Y-192850000D01*
X103900000Y-192850000D02*
X90200000Y-192850000D01*
X88150000Y-190350000D02*
X88150000Y-177100000D01*
%TO.C,J9*%
X113670000Y-132000000D02*
X113670000Y-130670000D01*
X113670000Y-130670000D02*
X115000000Y-130670000D01*
X116270000Y-130670000D02*
X123950000Y-130670000D01*
X123950000Y-133330000D02*
X123950000Y-130670000D01*
X116270000Y-133330000D02*
X123950000Y-133330000D01*
X116270000Y-133330000D02*
X116270000Y-130670000D01*
%TO.C,J8*%
X92130000Y-23000000D02*
X92130000Y-21670000D01*
X92130000Y-21670000D02*
X93460000Y-21670000D01*
X94730000Y-21670000D02*
X117650000Y-21670000D01*
X117650000Y-24330000D02*
X117650000Y-21670000D01*
X94730000Y-24330000D02*
X117650000Y-24330000D01*
X94730000Y-24330000D02*
X94730000Y-21670000D01*
%TO.C,L1*%
X110570000Y-185000000D02*
G75*
G03*
X110570000Y-185000000I-2500000J0D01*
G01*
X105510000Y-183455000D02*
X105510000Y-186545000D01*
X111060000Y-184999538D02*
G75*
G02*
X105510000Y-186544830I-2990000J-462D01*
G01*
X111060000Y-185000462D02*
G75*
G03*
X105510000Y-183455170I-2990000J462D01*
G01*
%TO.C,J2*%
X90150000Y-142850000D02*
X88150000Y-140350000D01*
X88150000Y-127100000D02*
X103900000Y-127100000D01*
X103900000Y-127100000D02*
X103900000Y-142850000D01*
X90200000Y-142850000D02*
X90150000Y-142850000D01*
X103900000Y-142850000D02*
X90200000Y-142850000D01*
X88150000Y-140350000D02*
X88150000Y-127100000D01*
%TO.C,J5*%
X114150000Y-192850000D02*
X112150000Y-190350000D01*
X112150000Y-177100000D02*
X127900000Y-177100000D01*
X127900000Y-177100000D02*
X127900000Y-192850000D01*
X114200000Y-192850000D02*
X114150000Y-192850000D01*
X127900000Y-192850000D02*
X114200000Y-192850000D01*
X112150000Y-190350000D02*
X112150000Y-177100000D01*
%TO.C,J3*%
X90150000Y-167850000D02*
X88150000Y-165350000D01*
X88150000Y-152100000D02*
X103900000Y-152100000D01*
X103900000Y-152100000D02*
X103900000Y-167850000D01*
X90200000Y-167850000D02*
X90150000Y-167850000D01*
X103900000Y-167850000D02*
X90200000Y-167850000D01*
X88150000Y-165350000D02*
X88150000Y-152100000D01*
%TO.C,J4*%
D11*
X105507285Y-179066000D02*
X106043000Y-179066000D01*
X106150142Y-179101714D01*
X106221571Y-179173142D01*
X106257285Y-179280285D01*
X106257285Y-179351714D01*
X105757285Y-178387428D02*
X106257285Y-178387428D01*
X105471571Y-178566000D02*
X106007285Y-178744571D01*
X106007285Y-178280285D01*
%TO.C,J9*%
X111682380Y-132333333D02*
X112396666Y-132333333D01*
X112539523Y-132380952D01*
X112634761Y-132476190D01*
X112682380Y-132619047D01*
X112682380Y-132714285D01*
X112682380Y-131809523D02*
X112682380Y-131619047D01*
X112634761Y-131523809D01*
X112587142Y-131476190D01*
X112444285Y-131380952D01*
X112253809Y-131333333D01*
X111872857Y-131333333D01*
X111777619Y-131380952D01*
X111730000Y-131428571D01*
X111682380Y-131523809D01*
X111682380Y-131714285D01*
X111730000Y-131809523D01*
X111777619Y-131857142D01*
X111872857Y-131904761D01*
X112110952Y-131904761D01*
X112206190Y-131857142D01*
X112253809Y-131809523D01*
X112301428Y-131714285D01*
X112301428Y-131523809D01*
X112253809Y-131428571D01*
X112206190Y-131380952D01*
X112110952Y-131333333D01*
%TO.C,J8*%
X90142380Y-23333333D02*
X90856666Y-23333333D01*
X90999523Y-23380952D01*
X91094761Y-23476190D01*
X91142380Y-23619047D01*
X91142380Y-23714285D01*
X90570952Y-22714285D02*
X90523333Y-22809523D01*
X90475714Y-22857142D01*
X90380476Y-22904761D01*
X90332857Y-22904761D01*
X90237619Y-22857142D01*
X90190000Y-22809523D01*
X90142380Y-22714285D01*
X90142380Y-22523809D01*
X90190000Y-22428571D01*
X90237619Y-22380952D01*
X90332857Y-22333333D01*
X90380476Y-22333333D01*
X90475714Y-22380952D01*
X90523333Y-22428571D01*
X90570952Y-22523809D01*
X90570952Y-22714285D01*
X90618571Y-22809523D01*
X90666190Y-22857142D01*
X90761428Y-22904761D01*
X90951904Y-22904761D01*
X91047142Y-22857142D01*
X91094761Y-22809523D01*
X91142380Y-22714285D01*
X91142380Y-22523809D01*
X91094761Y-22428571D01*
X91047142Y-22380952D01*
X90951904Y-22333333D01*
X90761428Y-22333333D01*
X90666190Y-22380952D01*
X90618571Y-22428571D01*
X90570952Y-22523809D01*
%TO.C,L1*%
X107945000Y-181379285D02*
X107587857Y-181379285D01*
X107587857Y-180629285D01*
X108587857Y-181379285D02*
X108159285Y-181379285D01*
X108373571Y-181379285D02*
X108373571Y-180629285D01*
X108302142Y-180736428D01*
X108230714Y-180807857D01*
X108159285Y-180843571D01*
X103903571Y-185339285D02*
X103903571Y-184589285D01*
X104332142Y-185339285D02*
X104010714Y-184910714D01*
X104332142Y-184589285D02*
X103903571Y-185017857D01*
%TO.C,J2*%
X105089285Y-135250000D02*
X105625000Y-135250000D01*
X105732142Y-135285714D01*
X105803571Y-135357142D01*
X105839285Y-135464285D01*
X105839285Y-135535714D01*
X105160714Y-134928571D02*
X105125000Y-134892857D01*
X105089285Y-134821428D01*
X105089285Y-134642857D01*
X105125000Y-134571428D01*
X105160714Y-134535714D01*
X105232142Y-134500000D01*
X105303571Y-134500000D01*
X105410714Y-134535714D01*
X105839285Y-134964285D01*
X105839285Y-134500000D01*
%TO.C,J5*%
X129089285Y-185250000D02*
X129625000Y-185250000D01*
X129732142Y-185285714D01*
X129803571Y-185357142D01*
X129839285Y-185464285D01*
X129839285Y-185535714D01*
X129089285Y-184535714D02*
X129089285Y-184892857D01*
X129446428Y-184928571D01*
X129410714Y-184892857D01*
X129375000Y-184821428D01*
X129375000Y-184642857D01*
X129410714Y-184571428D01*
X129446428Y-184535714D01*
X129517857Y-184500000D01*
X129696428Y-184500000D01*
X129767857Y-184535714D01*
X129803571Y-184571428D01*
X129839285Y-184642857D01*
X129839285Y-184821428D01*
X129803571Y-184892857D01*
X129767857Y-184928571D01*
%TO.C,J3*%
X105089285Y-160250000D02*
X105625000Y-160250000D01*
X105732142Y-160285714D01*
X105803571Y-160357142D01*
X105839285Y-160464285D01*
X105839285Y-160535714D01*
X105089285Y-159964285D02*
X105089285Y-159500000D01*
X105375000Y-159750000D01*
X105375000Y-159642857D01*
X105410714Y-159571428D01*
X105446428Y-159535714D01*
X105517857Y-159500000D01*
X105696428Y-159500000D01*
X105767857Y-159535714D01*
X105803571Y-159571428D01*
X105839285Y-159642857D01*
X105839285Y-159857142D01*
X105803571Y-159928571D01*
X105767857Y-159964285D01*
%TD*%
M02*
